<mxfile host="app.diagrams.net" modified="2023-09-26T08:06:35.114Z" agent="Mozilla/5.0 (Windows NT 10.0; Win64; x64; rv:109.0) Gecko/20100101 Firefox/117.0" etag="JeBsFTqcB-feFgnWDCyy" version="21.8.2" type="github">
  <diagram id="R2lEEEUBdFMjLlhIrx00" name="Page-1">
    <mxGraphModel dx="1050" dy="530" grid="1" gridSize="10" guides="1" tooltips="1" connect="1" arrows="1" fold="1" page="1" pageScale="1" pageWidth="850" pageHeight="1100" math="0" shadow="0" extFonts="Permanent Marker^https://fonts.googleapis.com/css?family=Permanent+Marker">
      <root>
        <mxCell id="0" />
        <mxCell id="1" parent="0" />
        <mxCell id="SuySmRBEggdLQJVwu3iZ-1" value="" style="shape=image;verticalLabelPosition=bottom;labelBackgroundColor=default;verticalAlign=top;aspect=fixed;imageAspect=0;image=data:image/png,iVBORw0KGgoAAAANSUhEUgAAAzQAAAFBCAYAAAChAuosAAAgAElEQVR4XuydB7yOZR/HLxJlJS2VpJJ2KUlp2E2l0FJGGlY2iTKjKCN7SygUSlJkRHv3NhTSUIkkI7Iy3t/3etzc5znPc85zjmMd/+v9eOWc57nv6/pd6//7zyw71Jw1Q8AQMAQMAUPAEDAEDAFDwBAwBA5CBLIYoTkIZ826bAgYAoaAIWAIGAKGgCFgCBgCHgEjNLYQDAFDwBAwBAwBQ8AQMAQMAUPgoEXACM1BO3XWcUPAEDAEDAFDwBAwBAwBQ8AQMEJja8AQMAQMAUPAEDAEDAFDwBAwBA5aBIzQHLRTZx03BAwBQ8AQMAQMAUPAEDAEDAEjNLYGDAFDwBAwBAwBQ8AQMAQMAUPgoEXACM1BO3XWcUPAEDAEDAFDwBAwBAwBQ8AQMEJja8AQMAQMAUPAEDAEDAFDwBAwBA5aBIzQHLRTZx03BAwBQ8AQMAQMAUPAEDAEDAEjNLYGDAFDwBAwBAwBQ8AQMAQMAUPgoEXACM1BO3XWcUPAEDAEDAFDwBAwBAwBQ8AQMEJja8AQMAQMAUPAEDAEDAFDwBAwBA5aBIzQHLRTZx03BAwBQ8AQMAQMAUPAEDAEDAEjNLYGDAFDwBAwBAwBQ8AQMAQMAUPgoEXACM1BO3XWcUPAEDAEDAFDwBAwBAwBQ8AQyFBCs2rVavfG9Flu3T/rXJEzTnMVKpRxWbJk8Shv27bNffbZl+6rb75zWdwOd8P1FV3BgifZDBgChoAhYAgYAoaAIWAIGAKGgCGQbgQyjNBs377DvT5tuuvZa4DbsWOHK1DgBNevTzd3wgnH+85t2LDBtWzV3n0z/3tPaG67tZJr2qT+LsKT7hHYFw0BQ8AQMAQMAUPAEDAEDAFD4JBFIMMIzbZt292YsRNct+69XbZs2Vy+fPnci2OHukKFCnpw169f72rUrOcWLFosQuPcTTdd657u1skIzSG79GzghoAhYAgYAoaAIWAIGAKGwJ4jkGGERkYZ9/33C93goaPc+nXr3NnnnOUaP/ygO+KII3wvt2zZ4gnPRx9/rn/tcPfec6crfU2pPR+BPcEQMAQMAUPAEDAEDAFDwBAwBA5ZBDKM0ASkZdnyFW7rf/+53HlyuxOOP24XsLihrV69xq1Z+48nNCfKJe3II49MEfglS353M96a7bYq/qbYhee7UqUuO2QnygZuCBgCBz4C6//d4F57bZr755/17thj87vrri3n8uTJc+B3PJP3cPv27e7LL792nyiOc4fuk2s1L0WKnJ7JR23DMwQMAUPg0EEgQwlNRsM2d+57rs1jnV3WrFndtRXLuvbtHjEXtYwG2Z5nCAiBb779zv300y/ulFNOcRddeK477LDDDJd0ILB06TJXr0Fzt3bNWneK3G2f7NLOnXrqKel4UsZ/5T8pmkjM8vffq1zhwqe6888/J+NfcoA+cevWrW7osOfd2Bdekj5th2vWtIGrVq3yHt0nq9escR/L44D7qfglF7ljjsl/gI5+z7tFjOyct+e5/7b85y688Dx38smW0GfPUbUnGAKGQEYisEeEZsOGja7/gGHuf1997XJkP8I90qqxO+ecogn1b/2//7pWShKwatUaWXNyueFD+yS7XKbPmO0aNW7tDj88mzRqZV3vnk/u0QWUUMfsQ4ZAAgggIE2aPNW98srrLkvWLKmvSwlRR+U7yrVo1kCa4TMSeMO++8i3337vWrXu4BB4tysWbtjQZ90ZylJ4oLd/ZQ3pP2Co++rrb9XVSDbFcEMrX+CEE1zBU05ylxYv5kpceomswkd4AXRvtSVLfnN33/OgWye3W+IH+zzbzWd83N8NC/nMWW+7Xr0Hum1bt7l8R+dz3Z5sf1DMc0Zgx9ru/ewgN/K5MX6tPNKysbvvvntS37dxXr5582b3lOJF333nQ5f1sKzuspKXui6d2qb7eRkxRp7BHI8Z85K8GrYmf6TWQFbFt55a6GTtiwKuWLHz3QXnn+stiIdpDCk1yOD4CZN01mV1p51aSGdE8vs6o8ZgzzEEDAFDID0I7BGhWSMtZJOmj8qM/z935BE5XM9nOrsyZa+JIVok7xopnkuULO9y5MjuBamF33+aTNAICE327If7FNDP9jJCk55Jtu9kPAIbN250jzza0c2YMccTbtKSb5MAnVysjrwbgTJv3rxu8MAerkSJ4hnfoagnLly42P21cqV367xIGlUSdcRrL46b6Dp07KZ4txxurVxChwzq5a6/vkIS4Yz+/770D/fbr7/7fXrWWWe6oyUU788GeWis8+eHH34CYQeB4U+4EcMHBkflzePOO+8cV6vWXa7YRRfstW7vS0KDUL1g4Q/u3/X/uly5c7nzzj1H8xzbssYZ26//MDdo8AiduTm0ZrPrPO3iSpe+aq9hcSA9eDehGevXdasWjfaI0PwjwnrHnfe5X375zZMBsnnOnvnqfic0HTo+5SZOes1Dz17YKvK6s3KC/xmE5MideyJXziPdGWee5sqXKe2uUTxrgQKRjKSx2r01H3KffvqlP0f+kzJnwfyP96pi4EBaO9YXQ8AQODgQyBBC87l8kzkkn5LGr3y50kkO0HgwQGguLl7aHXVUXvevUjr/sOAzIzQHx5qxXgoBCE2TZm3cu+9+6N2zzlUSDFyLsHAgXEc3kmbkzJXT1bnvXnf66afudQxbPtLe/U/7Mtvhh7vx44a7fEcdFfedn376hWvY6BG3fPlyCTUF3MgR/dz5Ev7DDYvU86PHu3HjJ2q82VzTxnWTkZ69PqioF/woF7nGTVq7X0WymIOLLjrfHXfsMW6H3GOYg02bNjs+wx+UIocLi/PPO9s9+mizZOPLqL7vS0KDe1unzt0d7zzu+GOlUOoiwXp33GJ4TBDu16fNcI+36yrr0XolbSnqBvR72p1x+v63HmUU9ik9J6MJjVdoyKo57Y2Z3kJTrcrNuv867HdCQ5/eeHOmmEsWH6cKed+uufdnkizJq+UR8ddff3siTMulM4k7+LLLiruHHqjlzjwzdlxR96f7uGHDn/cE6cqrSrqxzw/Z72PdF+vG3mEIGAIHDwIZSmi6PdXelSubOKG55NIy0lrnMUJz8KwX6+lOBBBomjZv69555wP/kwfvr+mqSKiJ3+TukfUwL3CiId/b7Y677nNffz1f9Z82ui8+m6sA9WPivpIaUf/73zeOgPbc0vRffPGFXkERbmQpxGVn+IjRXvHw6CNNXe3a1ferUANRwUKMQJ89e3bXqmUjd7lcf4KGEI8VGc3ygEEjZCXbrr5ncZfJQra3XGb2JaFh/I0aP+LHj9vQ+BeHKzamUNx5/ltKpG9VB2zLpi3u6Pz53IVyN8ouC/mh0DKa0GD9WLz4J/frb0u9Au/00wq7007b+4qK1OaqtazGEJrt0qCUvrqUdwMPN0j+pk2b3J9/rnAvyDJLTBUueBCbyy67xLVp3SxmwevfNM5FP/zorT4FTz5RruVnpdYV+70hYAgYAvsUASM0+xRue1lmQSCa0ODCkoiAj7vLvmgQGmJj1ssdKTVCQ38Q/nEro3+xEgKEYxCyZMm6xy47GYFBmNDgWoaFuBwuryGIGdM//6zz1qWBg4Z7Kw3tlUlj42qj96Rv+5rQBIQud+7cqvs1TEJ1fEIDFgikKc3znoz9QP5uRhMaxhpxcYxYA9kz+2pvp4RzQGiY4xvkNtq9W8dkrqPBfl/y629u9PPj3etvzJDb91Y/hsqVb5SyokmyDKQ8j1pzjBWFxt6MQzuQ15H1zRAwBA5cBIzQHLhzYz07gBGIRWj2JMg4o4d659113DfffOfdi+Z/86G3hO5JQ6Dp1XuAzxSF4NZWbls1aty1X4W4aEKTkoV4qeJ/Kt92r9dOI7x17fK4qyqLWkYLofuS0Pz2+1LXoGFL9/PPS7yFZtLLo9xJJ524J9Ocab+7NwjNgQhWNKF5unvKxav/+GO5iP4Ixd1M8fExh8vSOXhAD1cyZOk8EMdpfTIEDAFDIBqBg5LQ/LJkiZs/f6HDDE6A4rFKl3mmagoUVyajeAIK2rTPv/jKffzJ596nuPItNyjmIb42EyEB0z3CT/ly17gLLjg3CXa7nvfxZy6bNFvVq9/uhUYEvy/0nkWLf3QrV65yhytIt+ApJytg92x3mlKlJtq+/PIb9/2ChcoCt9oHcsZsehea6XuqV9tVwDT6c7///of7+pv5Dn973IZwRTjppALu3LPPckWLFkkxu82SJb8Kg1k+aUMYr4Xyv57/3UK39I9l/nU8j/GdrUDx9Dbm5SOwTCF4nXSr8cb73KgXVNB1vbAu6G66saJ3QYrXJk2a6pb/+aefL7SYKbljxXtGRhKa99//2NfIOCpf3iT9+fzz/3lfdwL1WdcFC57sLrn4IqVMLZCsW1hY3nvvIz/XWbUeJ0lA+fPPvzTn/7n69e5zOQIXMmFIpq/7aifN8BTB7193ggKDmevALe4TzQv9YN18+NGnfm3TlyuvLKmYld3B9Ydr3vgeLmuTlfkNqwjvuemma1WPKn6wMQNZseIvN/nVaW6LgtzPlxvUNVdfkfI62Dn6tBCadevXu1tFaJYtW+73aMvmD7s6de6Ne16w/xYtWuxWrV7tNfE+EYL2C6mOjw/V14qeiLQQGjKh4cZD7a5lEizZn/SN9L8FC57kLtSZc1RU7NPmzf+5l19+xa395x+PMWcUbnWs99ur3uLyKB7CNz2nUKFTtJ7K78JyxYqV7s3pM73VjiD2RAgd4/l2/gL398q/HRgG/SNWiQxZrJeU2vcLFnm3TOwY5WU9C2I0vvtugQoxL3J/au55ZgHFe/gz5OzEzpDffvtd2e0i5xrxXSR+KKr4j5KXXSqhPGKFC7dkhKa5kgLUiewBEmh88eVXbqXSWSd6XofvE+rakETjzDOTZi9EmfDm9FneveviYhe6q6663Hdp8+Yt7uNPP3c//7TEZ8PLobk7WfN9ueJY8u9h6ue0Ehr6Qwxa/QYt3M+/LPFWmArlS7v+iq8K36W77kNhffWVl/u7NlZjLhcs+EFr+k8/blKEc38dJlfP004rrDkqkqIVMfzMP3S/fKFzkXue5yaPTIx8mrjFkiWLy5X0kl1fB/dFmtdCimsM7gNcBEmzzd7hbOLzuM4F1ibOocU//qw9v8b9ovuffjPPJ0tJcIrmhxi9ePcKe3fKa2/69XiBzohyO2OJ/161yn0ld97vtNZp+fMfrXuyqLvkkguTwfe7FBQUHqcfNM6ZkloTp0h+iNfIFkumzXU6C05XPFyFCqX9fl+7dp378MNP5I76q6/jd/TRvLeIH0O0Bf4XfYZzfanOIBr3OffMaSm4r0b3hzuKe4LzYoPcsTGTH3VUHneOxkqa78AyHncg9gtDIAMQOGgITcUKStvcq6ubMOEVX2yTDE7rJIBx4CDk5tNFjjDUoH4dd9xxxyaDJqhDMGbsBH84PiJ/+9tui6+hfeutt127Dl0UYOxcTWmiGzZ8IMkBH34eLxsxrJ8/CPr2G+JrerDBN27c5A9LhLzjVGSvcuWb3K36k5JW+Fe5AQwbPtotXPSjL0SKRjmlxu/fmj7JH1jhBi4jRo5x73/wiYJAVzpS3CL00nLlyuUzVJ2lA65hg/vVt+R48bm3577r2rTt7L+DL/bNla53g4eM0qXwqcMfH8EoeN4x8sm/5porXe1a1X3murQ2AuwRnlMkNHroZvmAz5g+Mdl4r7zmeh8MTqrcYUOeTbGY4e131FYAvAiN1gx1Qjjk09oyktB0fuJprek5Xnh9RhrVY7RWhg4b5WNg1qz5xwu6eFHlklsR6xxLUIXyZZK4VrEOOipAfN689z2GCFOBexHPDbthkdL1/Xdm+HiSoAX4FVR9ieHD+7q8O4tBPtWtdyTIWI134INPQ4AMz3OOHEe4Jzq1lqBziat6e03fb2JWWrZ4WOvmhhSJM3E5uIQFxLl5s4YJxRmlhdAg/Fe8rqrW7Dq/D9Bcs56j9yKC9gvjXlbmtJ89USCTWEBo8intNrjccvP1cWuYJEJoeObYF17W3vxI/dmgOKd//d/B/iR+KVfunN7aUk0k5RrFQgRCyLJlf7oH6zbV+bLWr/f1/zLPEVGPvpFCnMYZV0zr+smu7XdZ57766lvV9XpCws8/7ngRmokvjYp7Fq1RjZXRoycog+UXHgfOMtahn3v174gjc7hj8ud3N4qwVqtyS9znjFOq32HDRvv+1NfZXOmm63W+jZKw9Zlbo/MN4YffcSYdlTe3CPB1UtDcnmIdpBEjx2qdvydhebXOtX99dkEEJjLZUfvnoQdr++QP4ZaM0Oj8r3HvnbvOM8jeRq3vRM/rJOe/+s+aja5rA1Fo+3hn1Xda4ssOdGjX2pOw554b62NvWJNgytwSw1JINaDuuONWV0YZx+IqsVI5qNJDaMB//ITJPmEEgj5YvjZlnBfig7brPtRSu1fz06hR3SRzztr98MNP3ZSpbzqUaBsVu7dh4wa/bmjgigIpj86wyy+/1NV9qHaKe3zs2JccWU65AxHaPaEhs0qMBqG57rpyrt3jrXb1iVpQ/5NS4lQJ5c8/N9C99/5H/kylTESAeakrSrjH2rZwq7W+x42bJBddWbR1p23evMkTgqDl1tpkP6KQRBFEaYroc2O9yP79DzZR1rslvibRgP49/P05XvLKn0q2smr1Wv+4iKxylCc0DXT3HqXMl/TnpZdf9eQXJSh3C+ztSGWh455+QIqX8lHnfdA3CFTd+s18wfJLil3gevXs6mbPnqfnTfHEiGx8gYwE/iiiGjV80M8x5/mLGvc777zvFQvh+7yAYj1xP0xNXmFOXpEyaprcFuk79w57jcb9gFxyopQe9evVsbirVPau/XrPEThoCM1VV12hC/o8vwHZeKTK5ZDkIEXjRSOTUVlpAds91jKZi010HYLWEtBrR2mpw3C+Jm1L85aP6eDKKkJzp3tczwwfYuHncc7iv//6tLfk5jPf9ynQSGDh4fLju2zs1q2butIS/KN9kDkYfvnlV9et+7NeK8Uhh5Y8e3bS7WbVvwnm3LzrUEdTRJpd/n5l0hiHsBU0Dqrezw52U3W5cKkg4PI5gtI53Og7zwfDq668wrVv38rljyJEPCtIm01aUi4gDqw5c+a5TcIbrGlo9LzArfFB3Di47rqzSqrEJHrptlUB1ek7UyAn/Z0ENGHjtT5qHJiffTInmVXlzLOlmdU4TzyxgJs8abS/KOK1suVu9tpYhKi+zz7lM/yktYUJTYQgp7+uRbMWj7m3PKHJ6x64v4abPeddCdQ/+nkCZ1W5cVv036wjGtrxNm2ayXK4m9QgJD/To5+b+voMv/a4YAMBmYuMdUxj/tESTp3yYpL1HA+//gOGuwkvveLJCeuP99C4mMPJDRCEevfs4lMjP96+q7SG0/SubV5A7dL5MS8oxWqM6baqNbzbFH3r+sTj/iJNxEc/UULDc6dPn+33M3thu8Yye+YUnwUqaMwhZKabsjl9//1Cb5kN7z/6+d9/W/zPETIQuu9TUoRozWMihOa1195w3Z/p69dyZG8evjMGI6IR5j2caWBwsgKwe0tIwZpKWy3B6P4HG3lhZYc+SyIHvhPZf7l34YY+u9Tll7lOHdu4nDkj2JPNrnHTNn5tsAbenjNVia+Sx3StVBasdh2f9IkiUITQD8Z5mP5GpGRdBXueNXv9deVdi+axSehwKVUGDhzh+1i1SiUlgNnoLTYkq8AyAQEDWyyJNAT7Rg8/6O6+q1oyoZHPjRbxHT12vCdZZNtjjoJ7ANz4zIUXXiAhdkCc8zqStvlBZfTCesB5tlnv5iykJXpeJ1LXJlifFKwtL6sH52LPXv39WofEMPesO8ZOv/k31mLumtIiNelp6SE0vAfXsxsr3al+RPrSr293KU3K7lKEJL0P71Afd5MHvg/pqFu3uSwRC/yYuG9IIc6dE8F1i18z3BfM8V133CaB/oFk+4d391LykWnTpvu1zrqLzHEW71mxQQQpONfAMKeEfgj9PfdUcw83eHDXnAdJUfDCQMnZr99Q7ZmVyvpIrFNW79lxkSygw4f1db37DHavvvq6J1+8j35nyxa53zjD6DdzxM+xtPVQeYpoBSLEoUrVmiJzS71F4o7bb/WJSMgqt1tWidyVNPqNsuIBJZOhNtQ8kQrWtB+r1mf4vGdNdNY+Dix84XURnDf/SEmBxRyLzhtvviVL9J877/yIjBS8F5KB0rFWzbvd0KHPuUmy7mzQHs++M1EN6zqQV0jj/YTO7hKXXpxsLzLHfHb0mPH+fgBb5oPnB8oXMENuAe8iZ5yuNdNcni7nJXS2p2ft23cMgYOC0LBJuIADYQq3giukXTlWmmxSUOIKQ/rcYCM2aVzP3R/lTpJWH+rgAOdAvvee25NofyIHdFCobay/WAupWBkaOaxD5cpe7TNFIQAs1mXGs7AIcKljGh8o7Q0a7nDjeT17DfCaWw5R3Dnu0AV4BplzdMAh4JJ2FdMw7j8XSxuDEMEleM7ZRXcRCA4uDshJk1/zQgPZd264obw05xf7w5JKzwvkBjJVz8ICgDCFxrnd448ks6wEhAb8TzzxBFnF/vZCyNVyCUK7dWTOnG75shW+XwiBCApUkH5uZH9vpk9LY3y430Sbw3Hne1cuWS9Lg4VQTcHHF18YKm10UsKCQJ5dlxGuK/ua0DDOpk3qeyE3nhaRSw0SEKtBaGbOfNtfQPnkdoYLUgFp0CG+xTTPOUUGvpfr2XS5C/36a8T94jxpoLFE5csXqQUT1IlZqTniAukggZT6LKyBlyc8533jd37QZ7YizXS4xcMP15EVcl1DkOXieuWVqX6e0VReW7GsX5s01nqRIqf5df3xJ5+5+x9ovEvzPnni895dLlb74ov/ufqKA0FwRnjv1+dpCe+JFR6NJjQIGmAWbghqZHLqP3CY1xyDU/W7q7m2bZonWWvsT4qLIsQjIF9xeQlXUeM74/TCfoxYOT/7/Ev3uggj1otjjjnWtWjRwN0si0OYfCVCaEbKwtBT8Uikxr6o2HnKNnaB8NF+0XuS7s9vPdYVVYOLAp38NwLhokU/eCF8tdzhuqm449KlyyUg5fRWp92KDRVylSb4VLmdBZa4RAgNQn7nJ55xc2UB4UxiHZaSi9G50kofe8wxEgT/c3/IbQ83Se+KuNNC/tCDtUQSaiYTVgJCs01WQYRAtOHULLtKmmKyzR2tcx3MKAhJEgvmBwHuhTFD5GpTMMlc4uratFlbR+wQ5O0ezSMaZ1wscbkhgxva6YVyFfzqy3eT9CV8XnNmFtB5hhsdio9ycilOz3kdKdQZv65NsD4hMJxbKFzoG8JdxYqlvQsWRU7ni0i//fY7OzOmZfE1nihuC95pbeklNFi6at3X0JN65uBhkQ0IR6DES+0+xI0LgZ7TAKUGVhjWHqnqab/LRfAd3dGzNU6s7LiJs18vVbHbcHtr5hylIn/G7zEUB9WqVvZrJZvOT+otTZfiZ5rum4hi4WhZWJp71yyUhZz9QYPQEEOI+2aePLn9GjtDuF8ttz/WF25WWBrJjNi85ePuI1mXcHe8VMI7qcxxAaRhafryf1/72j7L5UKH6aSp5AsIcVjBGRAa3OToN+QHBWDx4he5MqWv9vfhnytW+Ht3oVzywPh4pVpnXXz++dfa11v9Wi6rz6KA+n7hoiTnPSQpludB+LxBQcf9uUpubpfqvi8rOSR4L8rW+doftLzCg3qBb82c7S1BpUqVdGXKXOWOlJV98U8/J5FXypa5RvPUKZm8wr6fMvUN17v3II3zb489CVnKlLnSKzZpP2itz5w5130oV3KUviWVRe+Jzm0tzi+tm9o+nzACBwWhQbvLAQCpIT0uAjX/jQCIAE+cyVDlyH9JAhcaFg4sshgdc8xuN6y9SWjoBwfSiarh0ejhh7zGH8GUAw8N6gcffOwebdPJX7CM48Wxw6VNOS/JJKFxrXp7LX84MLY+shycozgXtFk0rFIcSO07POmWSvuCln7wwJ7+8gu3uXPfl6tcV699hFyQsabYxRe4oyX48n60WWhoISBdn+op4egnT3RGyM2IaurhFhCaAH+E1XqKx8DHGncTDk9IJoIGQjkaJi6aTh0f9drItARcc0AGWtpwH/5Ytkxub128O8CRcnNp2rSBu1Par2jN+P4kNOAKwSwqH/qI909y14i8Ei6bNakXE5OA0PAc8CR+okWzh/284Z6AhQxt/py335XlbaBfC8xZlycec9ddWy7mM4OkAHz26/+9u4v4xDsZUsMPZQEC3IiRoz1hat2qiYpU3h3z3Viv7q1Z18dIsO/at3tESoE7Yn722T6D3KjnX/T1LbgQCexHOE+khQkNQiqCPy4mQePd+MIjMOKHDzm+4YaK7mG5XFAzKNy6ybVuzAsveSvUndIe15FbH9a+YP9t1jmDixSkbtSoF70G9YorLnNPd+uQRFubCKFBkUA8X3G5neD6hVAdWLCC/Ylw3kxpwQNr9FvTX/ECULj9IiGtUeNWvrgjAv5L40em6G+fGqFhDw4fMcYNGTpKVtjN3k22SaN67jIpYXBnQ/nB+YVr1p8i3UOGPu+JCD8DK7T6KFfCLSA0rB/+0M+mTepK26wzXIIfBT5ZLwskwLVr/6S3FKBRbtK4vqtXt/auNQMuU16b5h5/XG7AekElWf5wg0Vg5Zzh2bhwYQ0BOzTQsS3qY/29gdLohONPcI0bpe+8TuQ+iV6fWCkqViznqt9VVfEOhf3aArt//lkvofkr90SXHv4MZXyPyQJb/e7b03SGgnt6CQ1zQJFa4vDA7aYbr/UEOVFCg0URK8exUugVkZDOHYYVIlBQYf0gpqbjE93d5yrEzXOx+jeof/+ud5A+vn2Hp7z7Ld8jNrR2rXu84jJC5rf5Z+AGy1noFTftWsl1vFIyj4AgyyNrdovupDNFZlq0aOjjPJl/b/HfuW5nzZorl621XolI/3Pp/An2IwoE3DvfefcDXyYj0WAAACAASURBVEg5org53b32alILd0BoiNGj76wPFCJ1RfS5h3keewrC2KJlex87FcgDnF0N5NkAsSatf+AyjMsaZy5nP8owXO6vknIh3ILzhjudtcT5dXOl66TQreEVRLyXO+U7xby2V9FVXNTAkvsD0sU5d9215b0ilnsmkFfwmCCdNwpdPEDOOKNwkvciX9Su08C7UzJe7nyUQMhegds4Zxcu9F269nRfyXMF7LAYo0CNlUkzkTPfPmMIpITAQUNoMAG3fbSpgt7KJHGvCgaHUP2QfMuJ7eBy6/H0Ez4gOTiQE7mAwkClppEKPw/hOq/8v9vLR/pKaTsCDUXwPDZ2w0atfIwIglAbZYi6XwUWwxfu3LnvyTe+ifedrnzLjYrteDyZ0M7B1ELapLly2cAa0e6xFu7WWyvteg4HZseO3b0/KwcGlzqXBhdLdIMIvvDiRPf0M338QVirZnX3aGu9P+SCEiY0PA+BvJLiDriswg0S06NnX/ecBD2+zwEJIUsLoYm1SBFyBwwc7s3ajB3T9zNPd94lxIS/k5pAHv5sRruccYBjxfIkS9JILE9v1sSY5wd7S1d0CwhNEBzdQS6AlyoWJXreEHaaKtboM2nGuQwhCWgYY+Gc1rTNqeGX1v1DrFvbx5/wQjDB3i/HiNfAPx7tKBYUsGMsaSHCYYERDBAQwzFYaAU3S/hGeMEiheBzZanLvOY/bFX5XZf87XfU8sIkcSsD+j+tBABnxsQVgeqeGg/5hAvHSIPer0+3JAlDEiE0rGXcNnOrv/EudgSeegrUJlkE7jGThN+FFyaN9QqPH6Iw7oVhLqU6NKkRGtxGWj7SzluBwZEYEywvaLijG2sVC81j7bp4IYlxPCxlDv7+4fUYEBrWD3sA/33cEHFVCzcwGTBgmBsskoQ1k7i2F8YM3fUszgKIL+cV76pzXw3FZzVMNkec/Vglo7P6ZfR5nch+SLo+nTTwl/tkFJDp6FhB5rvrU709KThM2J93blE3YdxzaT5D94TQBHW12Bvcs8/2ejJhQsN6QKiGLMSrs8Vnnu072D3//DhPTohhI9tgsF6IK+J8w1qPUgMlW3SBX9bMdMWaNJUCjRgy3BhRmERbv4Pzj7HQH/ZpxEsheXwn1uFIHFfOuHivkIX2tir3RginPvvt1x8kOUPChIY+4srNeUYR5fBZw72LchPSxs9ZRy20JijMmk8EP7x3SFyDRXK+knKwXpo1q+9q3HNnks+EzxswJVYL1zsIc/i9EEqyVBJDHHE/zyqyeLe79947klkCkVfu1RmHxwQEacigXloPu90PGd9LSkzSoWM3H792m+KCcZOMdU6gJGGsKGdouBN37PBosjpnJqYbAhmBwEFBaBCKSCPJARsv/SwaJg6Kt+S6w6HgSUHXdvuE0PA+/FLR9kW7kgWTRKA/l7E65InGY3J5CR9eU6a84Vq0etwLw/jL4hYTS1Dlwpr2xlv+0kfTTOX54HOkpsVHnuxM9GPQwB4+W0k8YvHRR5+4Rk3aeA0pwfTTpk6ISWgC/Hv16OIFkVjPQwiqJqGQywPz+PgXR6T5Mg4vaC6Nr776Rm5AHX1mKtLSog1Hsxvr/akJ5Hub0HChEtMUqzEWskqNHT0kZixJQGjQcrZt20yuNLfHzKaDgP5Mj74ioi97gQAtarenYlcn39+EBh/uKtVqSvscydD24tihSQRyMCF5BnVUcBvFVeqlcSPdSdIqJtqiCY3325ewyx5CA09GMNwUwYo9h3DOe6LXzxTFtHB20KebpT18olPbuO6BfKbBwy19HAjaWwSl8GWfCKFJZHzEwZEow79HQsGLEu5xhwm3jCY0kCfOg7Vr1/jzY8ignnJ5vDDuPoaEoFEnaQS4XKO4DxQOaLiDFhAaBLmrtXdZr9FkJvjsHLkjtWjZziukjjvuGB/nFMwVzycOCsLFz05RAH3fZ5/0BC6RDErRBGRPz+u0EhrwJHMYVvBY8WGMj6Bw1iFCIBhN0H7AWpuWtr8ITaJ9HKYEIIMGjfSeFWSYDFuBWM+Nm7T2rtvs05kzJsfchxDp6jUeVKxJVle69JWOeynaqhucf8xTqxbEy96dYubL1PpPhr/bqtSQBXGZ3D23uB8WfBaX0PD7t96cpLUJmUkeozb2hQmu65O9/Cvx1OjTu5u/H6Ib51arR9p7KyjWqHulYGilJCvh8yt83uB6RyxvrDXG+iK2ptUjHXy/wXfyxNHeMhPrPn1Myijc7OjDo4r7xeIT/lx9JV14W0pYlKgvj3/On03x5AwI0sXFr/H7lOKzL0rxklKMa2pzYb83BOIhcNAQGsy3BMfG2zQcXEMU5Na33zCvFcYVK5zFJ5ELKAxSWiw09Img8JQKK5IJpKUIC/E2sWJy3nhjpntYVb+zyuzbVBlkGoqsRI+Vi75lq3ZulvzEGWNEo1111+fIYoTbAC54XKBYXMJ+xdGLAOIzUJcLhAZ/+7eUPSx8MQQWGt6VGv7EGFx6WTmv5Tr33LMUtxE/g1Ii2xH3AzT8+OBywZPZq1FDCGPsOJT9SWgYT3RMSdIx7vBEL9odJ/hMQGjQhuG2Q5B1vHWOayUCAes5WiAIv3N/ExqE3U6duvugU9b03XdVkUVxdyAxF+WLyib2VLdnfbeJx+n5TBdppyNBxIm0sEDPZVlDFitiiyA07IGPPvpM2Y0+9AH2BLjWuPcuH6wbvYbo54SJitHSOiObYrVqt6SY1AKXLIQq5gu3P54ZCKlpJTRotSF0WBWCzHQEIiDwDRr8nE8yQtrVvU1oPGFQVqlmzR/zyhIyNuJqkpr738hRY13//sO95ZnMYn1F8I4/7rhd0xcmNDfK3S+60GN4nj9RKuPGIlTEc8RKWoCLXXNp5rHGY6XB6oabIfEaWN1SqrUUff7v6XmdyH0STTjHvzg8matjePxffa3zu8nu87tP7ye9W2Na2p4QGs4hsiRy9twoZQkZF4NzKLX7MNxH7xpGhi1lCmN9e1finXL99BmzFKMx3ZPW6POLtNGMn+Q4zCVuXbgURjfiu+rWl0JQv8CFFG+GaEVi+Px7/93pKbpihp9P7A77kT7jhhaMn/1JNkrOFVwuUyI0CPnRvw+/g2xwtes09GQH93kUtfH2WXg+cbOEsMQjNCgl+/bpHon7i9E+VixLI+HLfZ9SUhC+2qVrD3lGTPBPqVXzLh9zGH5viZLlfBIFcOnf92lZl3YnJYr17vs0Xs5orLRvvvGyd4G3ZghkNAIZSmi6S4NOEFmMxDnJ+s3BcMmlZfzB9a+E11gHQFigjjaBRz+QC/m1qdO9wI+mHF/OObN2a/gSuYDCz0ztAM/o5xEsesed93lBhloNY8cM88F74QYB4dJBg4U2eqiCwkkRGbSIS8mj3u8eAQvtC36y8doWCXq46IEdF8Irk8e4k+QLH7S04M98Xly8tCc0CJUvSWuzJy5nL8oK0UMZgUhne7FiSXpKC0dK4XhtfxOalGJKUtu0YUKDQMhFHw+7sIB4IBMaSOib0tyT8Qx3Ify5cSEKBBQsELhP4gvPmqfKfVqL+UUnBYBclJHGloZAgp/3WMXFkMKUGDfcybDaosEM4+uzzMmyS3YhLlyvPUyuWN01jaR+pf8IBvXr3e+zcgVWgkQJDYQPH3nqYvwhl611EuLXKKsTGdhoWOMI7vWZ5cBnL1toEEIJcCdTHmNBkCYIObU9jFWBuD76ibWE5AWnk8hkZ0t0vfLx1FziOHPnCLP+/Ycqm9YP7gifFjaffy9C3MWKSbrmqlLJXGJ5dkaf14k8L60WtB9UJwWLJfFeKEC4T8uVLZ3QfRrgnV5CQ5ay+x9o5APpuQ/IvtW8WYM0ExpiRGZoLy0RKaGeC+ULgmQ+9BGCQ8wQ50P0+YU1t0mzR+WC+pVfg+2VhhkXpfAahAi1VRwViWi2aj0ExDTahS9MaL78fF5MYhQ+l0kzP3PWHLlbfu2D/+nz3wrqD9KgE8P1119/eatsLHkl7HKWGqHBm+Hue7EwpY3QxDrvEz1vGCuuvRCa1LIc8lkIzRilzmYtxFLAct+SVAE8CupsD3CKd9eRkIV5hAB9/OHMdNV+S+0etd8bAhlGaMh+hS8rAV+pXYLAntGEhmeGYz646MJpSRO5gMLLYV8TGrSSjz3eVWOY5S+zihXLSPN7m+JGEL6y+iJZHDBkdEMAxJ8egSMcrxMWCBhLpIZGvHJkkQRVPBshivgUaumE4zbSSmggqHx/TwkNBUUfbtR6p6tZbi8kUQQtpVS++5vQtGqhQn2yIiWy9qOPncxIaBjjzz/LhUQukGhc8V0nffN1O61PXHC3VL7baztxQ5j08vNx3TXjHdOJpG3GDZNgXqyXCFF33nmbT2gQ9rkPJ2WIpGfGVS3+5RC4kaBU6PZkB2mJK+yKhUlEwNiqmLPOXZ7xVh4Kd6Lp5J2QMAQIGnuT52OJQEDa24SG9z+r9LUkfSAQGItsOIYiHhq4iT3aprMndxQAZK9S5DhoGUloeCYCERaaGaoTNmfOO+6nX37ZFcSNGw1uPhBM4rbCbX+c/2klNIms59RElvQSGhIqlKtwiyem7IHucg28RW7biVpo2FszFVxPgV72NoSf+4c1jdAbNKx/QbrqaAGdZ2C1peQAdxwZwMhkx5mB4pP4NdxtJ01+3QfqHy2rQO9eT3mlXvS5mxYL9XIluOikZAUklIjUfiO99NZd5SAi+zGLV5Ty954SmojL3EP7nNCkpjAIr63UCE2Rs4or+2YkNpfzKzi34q3PSGr1rd5zBnf0lKypqa1x+70hEA+BDCM0pKSk+GR0sHu8F5PV67LLy/vYCDSQC+Z/nExgTYtAzYaaJrctgs8ORgtNRKAYosDXF/yhCanBTSbQFhOMuHz5Xz6fP5iR1hOXi/BBzoGFBgZyhMWlszKPROfLjzUf1KyAAJKlK/y8tOAfENQ9JTS4BxFLRJIELjhiiUhPHS82KRiPEZqkM5uWC51vpoZfWgVCnolQ0lHuXGhT2Z9U7O6qQqYI6WNUS6ST0gPTGuncaKxsWmklg4kIgLx36uvTd2UZxN3s9dfGJ/FZJxiaTEcIcrh13F6tMiJMKrfGDp8umD0TjglJjdCwpnv07O8L6SHwgcWVsoZcrfiTSGXune/VX30UQE0a6X3hcsbYBw0e6forMB+Bs2TJElJw9El1Toif6aDsSRslCBeVZbmvCE3BUIrujCY0TAoYYn0jMcPnSvtN7SVSIwcFEwsXPsWNHN5Plprd7kppXb8ZodBKK6GhSj0WGizwEG7v8aDMf6mtxPBCTS+hIYsXFhreC1YoA8N1mlLDY7GsS7iB4XrMnsOaTgbGS2QNRdkZtLcUDzJ58tSYLrN8j2KzZAHD5RghmGyaxyqeCk8D5vePP/70GcK4D+6+u6qPiwvHbAXvSfT826L7FDdHikVDvDgfKFpMHGhh1bAJ2rYd21T7q7PPQhrLApMWC01mIjS4yVK4NF4iiPDaRM6AyJylmlqW5cxIyd5AYI8IDdmD8GkOUj0iDJCWLyi6mFKHX5FvfavW7b1pGcF8ojS00QJNIFCj1blWh2NqMTRkUBmu4HsuZDT6I0f03/XM8IVGvx59pGnctLP8nnoTmL/jxbxk9AX5oy4zLoSlCjok/SHBh9T/+EcHRpCBBRcysKJSM6lUo/H6UsIPPsj4AZOTnkBssp2kt+1rQoPbyyvK8vN0j/4q9vWvXO/O8Bpw6pKkJuwGhSFxK5qkuif7srAm+JqFJvYqw5WrTdvOXhgh3SmB0cdrHVNMkzWfQ1rPKZPHKrZgt/CQ6HpNhNDwLASgO+++36c3RiHQrGl97yoWrCkqpLPuEOpJHkBsWiKB5rH6mRqhQQtcRzV6Vq5c6YVH0qbeKAvPcYo7CVJE81zIDkkBiGnYF0kBOGMgni1btffnNwHG06aOj5scIRj70GGK6RIRIobmMll5n+39VBKCtzcITRh3BCrOTDJIUsMLixxjIYg57DKV0ed1Is9LawwNLkEPN269SyE1SvW8zo2yNKW2N9JDaFhr3BvzlICCHI3FRUJGjxqUROhMjdCQSpksdFj8L9f91VJKKDI6oigLW9ZHyK1xgIr1xkoKgHsaKX5nvDXbB61TQ41MW5AkSCykJr9KMRQ86WTF+FT0f07QOo3VEiU0c1XQ8hEFykOgiCtpqkyeuL6SLj+8H//d8K+79bZIUgAjNM4Vk3v5Np2XzNlHH8z0MXfWDIH9jcAeERoOmb79sCqM88IA5v5BA3qkGoCHFh5t0BdffhW5uFWoivot8QgNFyxxFCOH94+bqYRDhrTNXApcaNQwCGt9OUApXPn86HH+PVSibvd4y7iCMlrUocNGaX6ypFpYk+elJtCmdiE8rQrlHPZ5ld1mhKoX44qy9Lc/3Bq5AjCe3CIoJ+vQOFPCfaGCSjurQOvohmsPFppfFFzp89arcjtZwdLb9jWh+VXF15o3f9wt/OEH3atZFETeUql2b0pIuDz9zIu9CRxB9M1pL8VNhoDbQtXba3uXBUhfX6WXpm5QWhsuNkGa0wOZ0CDwUWQwOtV29HjTYqHhu7htpZQEI3g+fvT31qjr6xHgdvZM985eWLm3Zj2fiYygWLT6qVngYs1PooSG75JlkAQE1DJC0Jryyou7BJYXx030xSQR5sqrFkQvJR9JROOYHkIDaSDdKVbpoipE2qtnJFNXdMNlB1c4LJWJE5rhelbS+jrh56bmchIEDSPcEaRMnatLQjF60X3kc20ee8K7fuEiR4KS1qp7Fda+7m1CE/SJ+AsSr+A2B9lAGJ7yasTaTUuEgITHl9p5ncjzkq7PHH6dxwvyR5kzbtwk92S3Xp4AFFBNs0kvP+eTtaSlpYfQkL6/h2KnKJrKuhwgpQPJMcL3cWp4XHt9FZ++mxTILygejvTosdpIuaT17z8sJqH5Qq5Y3F+rpZCrWuUWX4dmwcLFvpArsgZeINRfQzFS6NSCnnTEa4kSGupgUW4A+YUCk716POE9IKIbMUZkOYMwp5blLLUYmsxgoamh85tCw4yVtM7R6yUta9Y+awhkFAJ7RGjoBASiwcOtvM8sB/EtN9+gWJqW0qaoJkec1luHyBhl0IDMoAUZq6rQRc8skuzTgUCNCxmfq1njLl+hF4tNdOOyfqheUx+AjOUIoTb8TA5E3Dwo3oZgBfma9PKomILLq7oY+/Yf4l0aqLESKygukQstLRcked85IE488UQ39bVx/vCGhDEevOopSkW/41Wb513MAf7ss+fM85dRZZ8fvkUSk39aFs6+JDQeT62LF6Rlxe/6huvLi3C28hq+RFqF625zy1SUD01xz2ee8DUOogkymvoePQcoecSb/gLLzITmdlXKnq/K6wgYb7z+ko9rSqmlRmhYixR5w0ceXOs+dJ8UEXVTtZxBxnupGOgIFWwMNOd//73aF0nkOcTdVat6S7pcENJCaKgMfpesNCTMIK7sKSUHuOWWG3wfILlly1f2WYc4a1Cc4HKSnpaahYYU0U8ofoY6NBTyQ8glRXF0wyWXTEgoKVJyOQvS3EJAnhvRL0WNfmqEhr6TVATLGWf5bbfepDTi8c+Pj5Q1CQEad1OUTsRdlJe7Tnjf7StCA37vq4BxE8Vsca9Q6HPGmxMPGELD2sKNr0P7R3z19ujG2V2zVgMVBf3O/wrsOyt9eFpdc9JCaNiPEye/5kaOHCuFw1Kts62qVH+VL26bLyoLVWqEplyFyn4fsb9wVwsnhgjGyhmP4oDzFwIXHUPzluqVQGjgoI/ISlq79j0+xo7kNdyBBNFz96P8SCmekvclSmgCJSf9IWMeyoxYz/5ayRLI1MXa2tMsZ5mB0JABrVPn7n7flyhB/G1fXyTXmiGwPxHYY0JDQFjrNh2lpUOIzuoFAg4qirJhhgwOZAjF6lVr3UuTpsiH9jVfoIpDpFrVyio02TSmhjZMaDhkKNx0iwTV+++v4StOU9kWv9fFP/7kU/wu/uEnr8kpJZ/0wdIaRLuNvPveh7rw2kpg3uzJwUMP1vaFpbL7jUhhsH/d+AmT3WS5w3E4c+BjTdoXhKZjp25u3PjJ/oDAulShfFlfNZjG2Bkr8cIIC2DK52IdvGiAuTTQnpIwgErMt4rYIPAEGc8YFwI9VoaPP/lCmsGJ7jFZQ6LTPe5LQgMxxuWOix0/ZrR8aFljZcxj3NFjf6R1BwnJb/iidKcqfSX1DSC0YMVYf/99qRsyZJSKkr7n5zTixpdxFhoK5tVSobKUG3OXNRkJ2BtJASjkOlvpvdkf+JkTKI0rJnsOkh5d/DU1QgOxJgtWT2WeY1+dc05RCdD9PcHmHWAcVJ+OxuB3ZW269oaq/se4QJIlDI06bk195KJ0/vnnpEqMYuGaFkLDWm8rawJrmjUBYcH3m7GwFqj/MeW1N/38EAvSqdNjPj4mvM/AjnEiwLPWVioLEu5rrKOgpUZoELpJjUx/IOtPd+voazgEWZog87/9/rs05v3dB0oEwnkWL8sZ7i8IgGQ/ZByNVAeLKvTBmoe4sZcCgpEaoYG09uk7xGeG470okTg/qOlFbBzP4QwCg/nzv5draD/3/fcLPX4l5OJLmuG8ZIgLtYwiNAiSpLEmELyyiCiYgxl9oq+cdyNGjpFVfbSSnOxwlaIq3We0AiqR54XXJ5AgjJ937jm+Xtn5IrP8G+x8unZlbhs3fpJHjnmjSGp6SHWY0JAKnZi18BnKswnO/vHHX/xeoMYJaYrB8CQp06j4XlLuzNHna2qEplbt+u4TKRU5J6h6X79+HX8eMD9eyaj5eVkKRSw0JCBg3NGEhox/EGpiQDlfmjdtII+EIr62FIOI/O2van+XMf/R2c2CpZcooaFoM1YazkTOph5ShnHvRO7bHV6pSOa3J+VSxz7zmbq0d/ckbXNmIDS4eWKlWb78Tz/PlSpd52NdiWcK5C7w48wEwwULFmt9T/TFjZHPrBkCewOBPSY0dAotYksVgPruu4X+8MT1p4DcOshSgo8r7lGkJF28+Gd/WUe0pNt95WQ0MXwulnC+K4ZGwvs1V5fyftI8/9JLL/GxJMcdl9+t0GFMDM+CBT/4g/pY5a3v3q2TzMfJNw2bD+LziYR4DiYEitLXXOnTJEPMKPTHYUMmHYQsCs1xGO8LQrNgwSLXXW5nn3z6pUzpeXzfDieYEnczETn+TWXkIySgEIOAxp2Lh6DJcOOy4ICetDPwEgGg1BUlfYHNE086wbvsrZZA9pvcA+ZLG/jdd4scQhhFtqIv0H1JaOrc/7AX4FgHF0nYpGhkrERTzMeFF5zr/bzD7SNlf8P/HEERbSiV3nG3Y/2hnSe+CIyPOza/Ukxm1UG8wpPijHA5Yy2RFarkZZckyegT7h+HOwd9GWlAcXkKt71BaKgIDUlGmwl5QXFAkglSkrIPcQ0Na9JTIzQIsu/I35y+ckGxjgj6JZsUbmWcAcSDsG+iG+u2Xv1mbp4Cj1F4QIDA4yrt/+7dO6a7yFpaCA01ZljPjyqeh7MHgt+vL9nzIu6G32ttdJQrGGcAaxALbmkF6p999pku/9FHeylq6dLl7mdl1fqfMqYRCwPh6d/vmTQlBVgtMvdA3cYiAos88bhAaxnBjjNwk86gBRKa5qnOBvsyorBRgdA4aZsh/61FxAJlEqmx2TfUeCD7F4oaXHmDzIWpERp/lussgNx9KXdg1ms+ucAWv6SYO0e1pfJov2zcvMlBUNmrFE9lLWBpok5FLPe0jCI0pJqtKaH5D1lhixW7wLsgn3ZqYZ2NubxQ9a0IFokdVqxY6RVfgwb0TFKINBECEl63qQnwiTwvvD6Za1wtsbyR1Y+7r/Cpp7j1cgn9VMocatAEFeuJ44Ios8fS2gJCw/dO1fMpdsra5yxlv/M+XMPAEdeuSO2jHbLsFVX8WHVfDypWra/U8Bg/YZJXpPEO8L9dtZkuvOA8T4pJcvC5UhVzfkDe2Pux0jaTOnn4iOeV6Wyi7xMKPZ9JS8/kTKf4JAorMVb/u1Pldsb+JXNWdEuU0Mz/7nvXqPGjXoEJOaL4a5kyV3ll7AZZt7k3cPv8SRkbOUuZdyM0EaUGrorEz6Gc4jwtXvwid4kK8Z4r2YT1jky1RHfvD4qD+lzpsDk3esoNPqU6a2ld7/Z5QyCMQIYQGh7IoUygP1lv0MZgreEixRKCWoWDAM0Lf6OZLVPmamWwqqpig2fFrZVCjYNGElKz6GLvp2q6P/70sw680V7Djm8xz+ZCxdqDWwYXxIPSRt+s5ASxXLMQDhB8uz/TxwsMaF85cNmMgeaV2i933llFgfmXuerKFc+lTj87tFc/QqquwAUHrTUCEBr6OnXujatpnjLlDde85WM+yQC+wbjahJ/H+xG2Zkjoop+QKg59GodDMB40U8TTcGmUkABdX9qw6Pos+ByPl7aP+hsc1GRh4g+aFPqKhWrDhk0+eQBzdP21FVwLVSA+RgGX4RbgD87ly5f22vR4wflkHaIODcIz2rWJLyVP8pDS1jvr3MskgEXcFNG+RtZN8kbtAcbdW7EH4b5weKJto+hhhNQcpjHn8c8kzeZaEb3zJJTVfai21uk0n00nZ04IzZM+iDWtjTWONvH99z/2FyHr6IgcR0hwiJPvVz/GRx2NaVldmOEWybL1tvq92RcmpABhPJyDwppBUC2V2WN9lnikFi0ed1+pMCPuiriQZM+ezb8DQWbhdxHyGLQzil6i/ufwe5N6RLH80/9SIHsXuUuRMpc16cmSxo37FPsa7Wb02ILnI8zcJ9LKXgusjAht96oYZmruI/HmJlxZPHv2HN5VhgxFsax6PIM4nvoNW/lLlnfepWKf1LFg/th/CF1o+QnER+gCszwSmCOuFDvcRu1JfOlJ7Yr1r06de2T9rJQkCQrEjnMDQTFWGmOei6W4l+L5vvp6vl/r7DuESIgebpF//rlSsRYlfPrjCS9N3hVDgxUk3HgWxKKVrJPsP9Y6d6Bt1QAAIABJREFUWYQYD++HjCHYB1nYwlkQEa7nvT0tWSVzzpzPlDnsRbl+UsAXy8iRR+ZUbJ8s4tpT/B4c1igYmD0K6atVq7oUJhfGjHVLdL36OySUpTG6f0EMJC6PuDPny5fXYwfp4z4ANyx/BU85ydWTO2TVKjcncSfO6PM6keeFCQ2CORY0zlTGyZzQ/21S0FDAkedR1+OOO27zHgjxgt1TO6datGzng+ojVv3DQhjs8PuOfQoRJjUxa5pkHOXLX6N6N9eoMOo5ySy3wftSu7+wWj7Ts597XbXgIODUm4IAo8zkLmPPcGddV7Gce/2NGf5nEPnw+cXamjhpqnta93Pg2oW7mW9SZHIHcpYxDs4RrAGQmpoigOXLJa3Xc/udtaWwW+D3AXVoqEsXq/EeYq8GDhruFRbc/ygPs2ttozyj3wS+Q/SQMd7T3iVuZPHCz5OcW2sl1FepWtOTa1zSon8ffnfEQkMdmqwitiX9vRq28oY/20qKYtYMex0iwBkbPu9TO2/Cz0pk/wefp4goSTZ4L/JKtPzD51ZLST351ak+9osU/dwHJONBAcsZ7Gv26Lxkb4IdSmliL/ckUVFq699+f2gjkGGEBoGAlIo//LDYF8vjMPlZlzvZQWhow3HluOjCC6Q1ukJuQYWkBTkhxYrcaNzqNWju06O+POE573v8saw0FOz78KPPdRGs8bEmZMOiWvR1FctLW1PEH5zxGhoi3CTQ1r4tzcvvCvLbogMKQQ6BAQ1nsYvO95fB5aWu9cIx2keIQ/gg4WIgxWl/ZWzhIH66ewdpwW+NK4hyKDV8uKUulG3SvtXTn91Fy+jrWNWYGTz0OX+AIkg1bHC/75NvOlTQ4CErL5FQRnE5/psMUXXkZ/zgAzWTafPQBH6rOaB+DW5luKcgyHJAYSGggCa1Zy6WRuXss4v6wofRgiX412/YwmvLqPT+hOqIxBO06XeJkhV0CfznSqu44aiRA9LkRlSmXCVfvwAiEhlybGLAZUIq525RFZP5DkIdbgu4DC7UOvxDcwshRTAsLRJRUcIuGdOefKq31wIWKHCCt1Skx7UDAaT7M33dKAWUIlTtnKa46w6ic7gEsSGDemr9R4o/Bq2dChO+KG0Xl8DA/j28tSceztRhIKMQrknUVOmsrIKxPst+pPbK+AmvaK984i0zYMEeKlf2arl5NkvyvYsuvtoXvDv77CJuwjjqBCR1HaKvBKdjmZg4cYovCsl/M0+nnaaihlpHEJR42W4QeGrWrqeL79ddZIjK6Wir09t+E2mr37Cl6pIs9gJU/77dk2jlo5/LnGG9ZM64YEmJS7xV4H7Hnib97+eff6U985knHMTR8T00xAh/Z2n9XHTRBd4agYsmgmkYf7Tfd1Wv41OsY/klsL5QoaSB+gjg81WAcNaseY50uWgwsS5zRnJ+lZWyB03xb3KTbNqsrTBW/J8K1V6kcym6IZy+Kwv1y5oTCvaxxyGmZ5xR2N2tIP1qSkEduICQArqBziBcjAisfuP1CTHXDjiwF7FW4ZJEdrjvdGYyzmxSyFCR/EwlNCDzJBY6LAHxssIlul4ZV0r944wFW6qsz533rvtBVsafpOBi00TGe5rPbAlul6jAZnRgd0af14k8LzrL2XPKWoayCnfFDz/4xK8BFH/cg5xBN1xXwa9fzqX0NhQ6uA2ynjhCw+coZ1B+Ceuks2adoeAppn1bSPWD2D8pZfZL7f7iPRQExVsCIvy1FCkktuHMO6XQycqAd4mPi2RsdR542JP26POL+kKPK8YV1y6ed7PcmPCg4P7HyoRViTOeIrQQC94HySG99FhftHe3Qg7lyVydUdwnn3w0K8XCmpCRb7XW33xjlvtQ98dvv/3m7zyIDa6B111b1te6QWYgjjCnlDhfK9FK+L5cJwsiMXpYXlFukYglnqIGbO5UjCPKpSoi3l1VEDheUhSKS0fiD51XmLaS4jGt502wloL9hRXzAlnPJisbaLx7ZvCQ53x6eeahhZS19evdF/OznOuscxR7yGbsSWIkEVA4z9iXEOUSJYrp7CzqTlXSkkBxmd41bt8zBOIhkGGEJhBCEaS4MNFqoBkntR8NraF3nZJmkIxLEIZ4mynoLEIyaRtxm8XFCq0MwgBWBw42AsB9dW89lwP52GOO2SVcpjTlXI74vyP0Q1j4N+SAfp1w/PFe48rFQ9VgAiVPk/tJtJsQG50LFkLEaYOAEE8LRF9wy/lBBzUHZSEd8CeHqt5zUFeTRmmNPpM/fz7XsUMbWYguTaJhxApFQ7M1e85cVfTu7/8NmRvz/OCYhaoQerHCcMCgNfpPghk0AU0grmuM9yhpdLnIYs1FgD9jLSBzf6xsTAHOzDt4bVPmKlx0uDDT0vBTZr1kSaXqAkVAIWMIUbEahBXyxgWD1SZYH7jpMV4uGVzQli9boTnP7jXt4fScifYZTJh71kAkj1Jq1SJi1y3hm74/coHjCUXlM55SIgQuIz7P+3G7CNdKiO47c8JzV2qvbNb842qHphiifPzxxyb5OFpD/MjB4lwJOvGCkVm/pBymH1graFgMj5LGnHmJ9z00oRSTnDTpNS+gXKvCsWQ8S296ZN7LWbBIxBXXENwzcQGLjg2KxmSZrJe/SVj3FhiRkTPOOD2JhZifY31jz2CF2Kz1xJqjoRFGWYL1IIjhi34+5AfXW8bLeQWBjpUxjfOF/bVCKWlxA0LYhCzk0X5kbvIq0xLa5YU6MzhfOP/iaXHBwSss9DzOROYAHBD06GvQ0JYuWvSjJ2gIZbiKxWuR+MHN7k+dkeCLhZP16S3vuSJujJwJQZxEvOekZb2m1r/I3Gx0WArXr/vXrz/6xHpiDbK/vXZd53d0y8jzmmcn8rxYdWggg9QyYU/iHkzjPMbihEtVanjGnbCdv2C+cCH2RCZKJ8QaoyYMewVLRF5ZsL0VZafVI6Vnp3R/Bd/jnbjN0QeySHL/YIXAC4C5IfkF98y3SlaCFSd8fgUWOAgw9zGxFg2UWp2zKrC4cp7zuf90rq2QDNBeLqIB+enS+XGRg0q77jH2DcI2Y8PdOlYiofB4OStZq3+vWuXXGNixjlBYMC9YUFFugG02xT5dGuXyzH6G9P+7fkPM34ffBUaQWb6DJY57NR754X7hDx1CZkDxGG6Jnjd8J9hfYI8lF7f9eI17A0s2SwjPl5RINpYYrIzIZLyDeefM8jKfzgkwjHgIZE9mEU5tPdvvDYG0IJChhCYtL7bP7kbg1SnTlC2okz+4K1e+0XWQOxrCULwGWSxRspwXBhEqJk0anWIKS8PaENjfCLBma9/XUAL6D15gwXKB26k1QyCzIpDWwpqZFYdExkWMFEHmEBFI+dzZU1Wg9aS4X4UMdO7ytFyrJ3uSTe0oYvhSU5Im0hf7jCFgCBycCBihOQDmjdo43br38a4lN1xf0fVULvyU4gpeVqa49jLN04rLvWLwoN5eY2zNEDhQESC2Dv9+SHuhUwqqkO4oW7MH6mRZvzIEASM0icP4j+IsqlWr5YukbhahmT1jcorFdnHHbNHycW/twXXr+VEDFaOR/ppriffUPmkIGAIHKgJGaA6AmcG3tdodtX0GKMyzt6oGQRkF2xYpgvvRbpcR6j7gQ/7WzDm+bgB+/cRC3KGMMvHSVx4Aw7MuGALuHtVZIsYDd4RHWzdxD9xf07Spti4yNQJGaBKfXl+ouFkbN++dDyLxqyUv9fElxGiFXZ2JcSMBEfFn1G3DxemSi4tJqbc7+UXib7VPGgKGQGZCwAjNATCbBPaSYveNN2f76ukEtBJLg9tZ2Pd3reJoViu1JVlD8Ecl9Sc1fPCVt2YIHKgIfPTxp+6hus28zzjrdsorL/jAcmuGQGZGIJyFj/gnasvsSRKMzIwVbqikH+/cpadiX1Z5BR0xN3gehNNIb1R2ToL4iRcj7oUMn2QMJSmQuZtl5hViYzMEUkfACE3qGO2TTxD4R/abeUpvS3Aiud3JOsVBHwmKzOIz1OTJm9sTmCuvvMLdcEMFnxqWVJbWDIEDFYFmLdq6116b7hN2VFaR1yc6tYmZVv1A7b/1yxBIDwI//7LE1W/QwhexxNJOprqUEquk5x2Z6TsEy7/3/kc+cQguZdSlIRkOge/+BtRFSNISAs0Jpqc8wG23VvIZu+Kl+c9M+NhYDAFDIGUEjNAcQCuErCxLyZxF0TP992oFUntC4w/zrMqilt9nZjpVWVGOU159MsdYMwQOdAQmSkChPgPZga4sdblPF5ve2jMH+litf4ZAgABKKWLHVq5c7XLlzumq3nZzzGyUhthuBPBWIOsnhIZMg2TOIisX6bZwsSbLIJnZChY8UZlHT/TFguNlVjRcDQFD4NBCwAjNATbfEBjSsGJO54+v8Lyzj2Q1o7Dmnqb2PMCGbN3J5AiQnhZ3s0DDuiepmjM5VDa8TIQAZ/n69f/6tQ+BRxg3Ip/YBPv0zEojT70f0kEH9yDkJVIwNLvFjSYGpX3KEDhkEDBCc8hMtQ3UEDAEDAFDwBAwBAwBQ8AQyHwIGKHJfHNqIzIEDAFDwBAwBAwBQ8AQMAQOGQSM0BwyU20DNQQMAUPAEDAEDAFDwBAwBDIfAkZoMt+c2ogMAUPAEDAEDAFDwBAwBAyBQwYBIzSHzFTbQA0BQ8AQMAQMAUPAEDAEDIHMh4ARmsw3pzYiQ8AQMAQMAUPAEDAEDAFD4JBBwAjNITPVNlBDwBAwBAwBQ8AQMAQMAUMg8yFghCbzzamNyBAwBAwBQ8AQMAQMAUPAEDhkEDBCc8hMtQ3UEDAEDAFDwBAwBAwBQ8AQyHwIGKHJfHNqIzIEDAFDwBAwBAwBQ8AQMAQOGQSM0BwyU20DNQQMAUPAEDAEDAFDwBAwBDIfAkZoMt+c2ogMAUPAEDAEDAFDwBAwBAyBQwYBIzSHzFTbQA0BQ8AQMAQMAUPAEDAEDIHMh4ARmsw3pzYiQ8AQMAQMAUPAEDAEDAFD4JBBwAjNITPVNlBDwBAwBAwBQ8AQMAQMAUMg8yFghCbzzamNyBAwBAwBQ8AQMAQMAUPAEDhkEDBCc8hMtQ3UEDAEDAFDwBAwBAwBQ8AQyHwIGKHJfHNqIzIEDAFDwBAwBAwBQ8AQMAQOGQSM0BwyU20DNQQMAUPAEDAEDAFDwBAwBDIfAkZoMt+c2ogMAUPAEDAEDAFDwBAwBAyBQwaBPSM0/21OClSWLM5ly54+8HbscO7vJc799JFzeY5z7pxyeo6et78a/Vn3l3M/vB/pxoU3pX9saRnDju3ObfvPOb0+0vQfWQ9z7rDD0/KUxD+7batzC952bsMq504p5lyBs9L23R8/cG7Vb86dcYVzx52e+Hftk4aAIWAIGAKGgCFgCBgChkAGIJB+QvPb/5z7YoqEfAnaCP8I3oeJzJx4dkSwPfn8tHXvvy3OTe3k3IcTIsThyW9FJLKm7RkZ+entEvTnDnbuzb4RcvHQCOeKXp2Rb4j9rEXzRKI+1O9EbMAVgpMrv3MnnaM/wjTv8Rnbhx9FIEc/5NzGDc5deptztz8t3BMkkssWOjemrnN/idAUu8G56v0S/27GjsKeZggYAoaAIWAIGAKGgCFwiCKQfkLzUkvn3h/rXHYRmhy5JHhLCN641rkj8ziX/1TnyjeSkFtJsCYoHGPteeFh5957ThaKbc6N1J/9Smj0/nnDnHulvXOHH+HcwxOdO+2yvb9MJjR37hOROsYOlhCrTZtktTpahKq0cze1de6oAhnXDywsI+6ThUZzd3Ud56p0TZyU/CpSO6iaLGu/Onfetc41npr4dzNuBPYkQ8AQMAQMAUPAEDAEDIFDGIH0E5qh90jwHudc7mOdqzVEpCavNPU/OvfGk86tl/tSwQucqyfB/OiCicELoRnX2Ll3R4rQSIgfsZ8JDWaZNcuc+3ORXL6yyR3rIueOEMHY221ELeE6XkRRJLGKsDyhiP79kixXo/R+YVz1KeeuFAE5TH3KiAYJXfqdiJPc3JirtLiN/faVc4PvEKH5xblzRWgavWaEJiPmxJ5hCBgChoAhYAgYAoaAIZAwAuknNMPude7jF53Ld5JzHb6MuEVtkdvSxEclfD8vtzFZNR4Y7dwFckXCSrNdBGXTP86h1V+7PPL50y+PkISsskbEIzRr/nAOKwJuX2fJQkF8zS+fRYjG0ac4V6RUJMYES8bPn+rniyOxIKeIUNFW6N9LvpC1I1/EZYwYnQ1r1K8bZXnJ4dxWEalN6537drpIxJHOFbpYFpATI1aZf1Y4t+idSP+L3SyitlL/fjfiEne+xpVdnwkawj1/TlcsCSQEt61gzD994ty/InlYVnh+TvUlXhtZO2KhOVLkBYJQ+FLnVi917hG58eGBV1ouXnf03P1uyF+AK1gdUyji7pdTFh3fB/3+S1lOtoXjnfRzflf4ElnTCjv3/eydMTTqGy6DQWM+wQC8cX3jd8drbIfnjBjeAkKz8mdZaK5z7kFZ7MAaIniqnn3saRGMaeH5KVxc7nPnRn5O/7+ifyJUkMYghucPkayf9V7mN5/mA+L13Sw9U/0teGFyDOnr33J9+11zsF19DdzmeO5pJdIWG5Tw9rEPGgKGgCFgCBgChoAhYAjsbwT2gNDUEKF5IUJoOiveJRDSITRv95fwLVe0h/R7CA1k5FNZGd6T9eWv32VdkMApOdMVklBbQa5pRUQ0EHijLTQbRYDGN3VuoQLzc+Z2rrbiWBCUR90v4Xauvi/SUkPWoaNOcG7zv3JTk+VisYTgwhJ4H34lItTOUgzMHPXncJGViys799lkfVbxOvcNEvkoGYmT+d+rEsJFBrDE5BDZKKeYkqv1jm/edO55vR/h/aFRESvGcw/ob/2gsly/rpQ1JSBrT16p4Pg/nSur793wSIT0fCY3tXeGRmJMsgqE7SJeJ5/p3I1tIu+O1TyhEVa4mzXR+yEd/8nlrJ4sNln0jPKyYlXrFiFc/Jx3fDhGRE64ZhOG24T7KQrsL9dQiRXKalwijwNuFelZF3kbcTlbNY7D1Jeb2+n56seQO0VohHWJqrIA6dngBimZ+azIjhIGbFodmcMcmoNzyzt3fSvF8gjzXRYaJXMgvoc4n19FaDaqX7mFIy5sV2lOsosABfPzg+anxC3O3dU78h6sQ8Pu1nc0f+H3j2+m9aUYrYsrRubll8+VpEH4ZhEORUS8qnWPrD3a+r8V6yTL1fdaE5s1jq0iz8wLBHCb1lqlx5y7Rn1J1P1xf+9Ke78hYAgYAoaAIWAIGAKGQMII7DmhwZrRUCQBSwvWkWmKwVgi4RNLxMMiCkef7Nzn+v2rj8vSINJwWXUJ3BJ+v53p3NeyihSVRaPx65GYkfFNIi5nWyWYE0Mz/RkJqhJct4qA3NJR1okHJegf5VxfWUu+nREhN/Ul0OeXqxRWlmdldSErGYJ1568jz5zaOfIMBPkjJJBjCVovobeBrCDHyMIzGGFaAvt1LSLPXixrEFYgAtw/f9m5gXdF5GDGiHWgn4RxSMIl+ruefo9QzjufkfUoi6wRNQc6d4WsV/PVv5ck+OOOhYsY1o3vRA7ma8xgw/NiBfgHhIa4pPuExfFnaKwiNhDFXLK61BBBwlpEp755Qz/XO/7SO0oI19OEx5fTZNnQGLB21B4uoV/44xqIJQqL0QejZMUQAcUC1Ex9ROrvLdJADE0JERusaoxpdL0IWcLSU1okjvfNFQncIGJ0vbC6Uf35XRjjckaWs2wa+zkiO2depWQRmndwLCjCWkfPO0UEM5gfLFwlhelDsu7xHqw/zBtWs/D7cWn8WK53ufV+5uNq9WGtSNZ76v92jeX61oonElHhGcE6YX6xYEH0ZsiKxZhLiXSWaRAhhtYMAUPAEDAEDAFDwBAwBDIdAntOaCAyJ8tSgsYfoZjUywjTaNBxl8Id7NnrlRp4rqwSCqpHwEUwX6F4mz4SzNfJFauxrCmkaX5R1hoIDYJ387dkDZFWfa0sDzcrML+sEgbkUbwOrb8sLd9IGMd1qa6sGfkltCMw91USgh8kMOPO1FGuRxCa17tI4FXmLlyPCohU3CjLCvEpp4pU/KRsYgMkkB8pC0JHCedYmdbJxQoChdsWAj0CO0JzPf33eRL8ByoTGEI58SaPaEz8PUEJEmbLEoS7V10RJYTnISJKn4rwnC2iU0vJBYg1wvXseZEyXO6IOypVM0IUwi0gNOB5oogZlqU1wgASBZG5S1YTXNe2bHRurKwwHwhPrD1Yw8CVrGXDRajA8HYRwquE4WaREAjd798oNknvXKXnXapx3SfCg4WkL4RCc3fp7c7dL3dBfvb0NSIGcuOqJuwuF1min1jYXhaROV7Erqtc/niej6FRUgAI2/3qS36RxAVzlCxA5AhXwnqan4tF/jbJAsP8LJwXed4Dck/zhEbkt69SYoffz8+HYwEU6YHY8dkzZcXD5Q8r3C9yLTz5POfaiQwxx0/IpWzp/IjF7FYRWMY6SP1aoHl6UFa9EiJQWLSsGQKGgCFgCBgChoAhYAhkOgT2kNBI4EQrforIwQZZOUgKgDB6g4ReNPiQmWULnOslIkCigLMkJGOtIB4DLfpb0qL/KmtBdbkflRNheUECOoQGYf4kCazE21yqLFoI8cRRBC1VQqPvdtR3w4SG/765o7T10uCTajqL3vGNrCWDJcTvkPBfVH07S6SqeBUREwnsfCZMaLAEXSzXralPqN8iCrjU3TMg0r8nFeexVMI9hOdBWUPApCExRbIEFZcbVzERMIR7rBAQn+UiA7idIXxHp0jeRWjkZlVQpOpwCfT/KIZmlf7ghlZSZOCWThHrQ1cRGWKJLtE7ICP4heEaNk6WLsjIdbLe4FbGOyBpk0Tm5sjyRPxSa8UGnSD3tzChKKFn1BGhmdHLuck7LULlRDL5HG2p5goXvs169mD9Wfb97qQAZ8s6Q5Yz5hz3tobECWmeSQzBcxMhNMH7A0LzkUgarm2dRDax0uCWOFyk5Yud1q3uit1hXjvKAvTnT5pbuQreJgILoempJAWkv24gKw/PNXezTHd42YAMAUPAEDAEDAFDwBAAgT0kNDsFzqZyfUKInKjYEYLoj5ObFBYWtPUEdqOB3ywLCi5duDB5wVvCLlp5guUri2ggfIcJDQHlCP4EhaPl31NCQxxGdcXSXC7LSSDc4sL0hmJGvpGbFlaLHOrbCSIzFRW/gRDsCY0sDQjY9SeJOIiYLHpPVh1ZabaKkJWpL7Ki/x4oEgSBqCRLEq5rfL6OBPvsiqPBrYwYEgwxkA0KWCLc891YNV+SuJzJuoDLGeSPOKD3ZQEBv1aygOAu116WMYL2iSUJ3oGAjwWI+SgrV6uANEEO+8hCggWqcoeIpSraQhIQildEgmaItGHVgEhA7mjE3vwr4orb3lOaG2JXfNrmXyJpmx8OZTm7X+PPCELD2DrJ2pbrmEgfsNCQNCGv+hUQmolyP5spUgwRhZBirXtPWB0hMthAc3im4pusGQKGgCFgCBgChoAhYAhkSgT2nNAgcD5BTIbIyodyDcI6gMBeXhaXO3oocFza9d4SdiE0uA1hrfCSPbxCwjeCNwIn7mCByxk/qyvrD25Hh0mYpqYNKYwDa0ZfuTDNF2HC5QyyQ5zOFgn9vZRp60cRDqw70RYaCM3dsk5csdN9ivdDqkgGQHa05T9EYmaIC4FEENcT1FkJExqsEz1kjaCw6FllIump5yquBaG/kb5TRJnbaA/qfXzvIvX17LIRC00wZsZNXAlZ3qJbOClAU8XOECdEIwC/nf47q/pcQ3E6lyvGpIOeQfzKhUq8EGST47O8CwsS7ygsdyzaIAiaLBun698I+UE67VgWGgqcThPekCdc1iCmkc5H5oznX6G5Wa7CmkHa5tQIzcadLoEQXr6La5snVMIe10OymMWy0CQjNLUjSRPChIbCoB9o7WFJ4pn/yR2P8WEdKykC60m0NUPAEDAEDAFDwBAwBAyBzIhAxhCaQIOOcI2A+6vSOBNP0liWGywUnSWIQxwQ7GspbiOHLBZBWyFXoQJFIy5gQVIAUvkOlLsW8R5fKtMVWcweFMHh+7Th+vmn0tJTMwVXMOIpyMY1VLES/8pqcCIxNFEuZ7EIzTrFZOAiRWphYlK+EiGhD7hMtZobsR5hjQkTGoT6SQpGx+0sD9YXxbiQVpl4F2Jqglo1j+vfCPy4g9VUJrVw3RhIHkU6g5TG4ZWVJMuZ8IO00b5QnFF/PWubyF4LuXYVLbOTwMmtClc3XLvC7mvEKDEHxO58JDe4F2StgSjivnel8AuKlsYiNJ/LGkXmsxxycasuFzOywwUNaxHzTHxUuA5NaoQGIkhcCwkOCmk9tFM8EX3AEkSc039yiUsPoflT4+wnyxPr60L9TTzXNj2L9NIXyjJIXFS0W19m3Mk2JkPAEDAEDAFDwBAwBA5RBPaA0OysQ0OWM2IccssliBiHV+V2NVuWEIhCNQmrpD+epHgRUjkj/F8mjTm1WrDS/Chh/E9ZRuopziGbfkfaZgLPSbtLljMCyEcpuxVB8afL9YxUzAios/T8l+XaRa0bAsFPldA/S4L6SiUkID0wtUwgWT7LmWJeSArgXc6w0MiyEbicfS1XszmKgyEVcV6N42sRBYT5PMRt6PvfE9xOUgB9BZez4oqh4R/LRFSI2/AkhfgUuWARM1RZlo2AKLyubG9kWIMUlJJF4gyNGaEey853GldnBcMHnw0vvhG1I2Qth/C4Sa5fWBogaW+rn7yXeKUmInm5RFQYM3jjGna55oPkABAOiNRiZV6rqWQEJFIYIEKyBJJZOJL2ObdiaGgQP5IHPCsLj88yprFiOeG/ewoTsqEVKhb5Of3AXe272RECSrIAiJm30CiWhTo04cKauNx5lzPN7WX6DO5qrwkP0iuT6KCSst5B6ObJurVGhNATmp3vh4AMIymAXBrD64s+B/jgCvf0LxFMyXr388eRNUi9Id/0/qM1j6WVre2b1G6kAAAgAElEQVQi/T6jCpEeogeFDdsQMAQMAUPAEDAEDIEDFYH0E5oxEhTfGyUh+VTnHhMxIdCctnBuROjcJKEYjXlNWWT+lSUEUoEwjOsZhRmzSmgN3KLuVTpgXMuIhXhXQvhhEtD7/hWJ1XhNhISfIfxXEUm4RgRprQTrCaoPw7v4eW4Jtwi4uK29p/edKutBa5EGbwGQ2xtpmyE0vIc4mIDQkI3rRQn4WIS8q5LIAK5MZeXiVkoE4UvFhAyDAKkhrFPXJag7Q6rhH0UaeC7kraWeRXa3oBHHQnwO6Zt5LqSDd2TR57EeNBRBimU5eEHv/kjuU+ADaeH5EAOC+nl+BY2b1Mi4fZEoYAa4quAkFiZSJzNmauDwDmq9EGODlQmrE78nE1oQz0OCAUgEYyEeBje2e0Q86ReuYeD2hwL/6QvPhCTgWocbGkkcKH4JPitlJblIuD4wZveY6ovIQXAf0s9w/cLLEBe+SZpj/iZ7GeSUueL7pG++XCQmeP8YxRi991zECtdGONNv2vNK6gDhI9NbF70fAku2N+ocYakLMuuRge0nkZxjC0fmLlww9EDdjdYvQ8AQMAQMAUPAEDAEDIE0I5B+QkPqYlyOqBOCW1WQFpeA7C9Vh4RUwWjXz5f2H038allZSK2LuxLCOUIz8REIoSQAoP2klMM8k7TKuEUheeOStkDuZBS1pHhjUQnzNDKqUeuE4psUfCwkYR8itEDCfX6RrGIiU3yf5/28070JKwI1a4JGZjbSHOOuhJWFwHqsD7gt4Tq2UpYH6t3QyGaG+1bQsB6R9QtiAUGjtgqEIdxwRSP7GX9DzsjeBvki7ibIHBY9ZYyJ50JiqHgPEeB7kBuwQsD35EItiAFCeIdAbZG1AmJIP8mQhjBP4oWvZHkibTUuZ3wnaPSjoHD7nyw+fBd8gwB6Po/1jDnDQsT3wAcCS4wSroQkCACfjXLNw9pDTFHQ5iotNdnjwJyYJBoY01f+kFSB2BbiiJYrE97KXyK4B+8n/favmjssTBeLkAXueQvmRixQZJIj/TOkc0LzSB/v6ClrW4UIqcOa1FFufeD4kBIEUBvIMp1Frzb7tyFgCBgChoAhYAgYAgc9AuknNFgdENIR6CEUYWsD1gAEYCwXPvvWzoB4BFr+IFjTEMxxPwoaz+T3fD6IReE5kCQke4R1nhc0rD24TBF/Q1wOn0VjH/4c5Inn0rAK0KddTc/k9/zhu7wXtzhvFVHDcrNFz6PRn7CLGGNHKKeF+xu9JPyYdz4fgdr3LTTm6M/75+pPkDgh8oKIyxRYxbLqMD5PWCArUe/wmAinAPPw+yBgzAGY8Tn+Ha7XwncIsAcH+sM4+T1joPlniwhBXKK/C9HkO8xX8Hm+g9UGa5JfHxoTcwKZov/hZwTrCzIHwQ3GTX88Id65RubJevdyy8i7rpTlCPcy+gOJm7PT8tdOlpqCchG0ZggYAoaAIWAIGAKGgCGQ6RBIP6HJdFDYgA5KBHCJGyU3RKw2EOucyrYHuVkv6xF/V5ALH256VljzoJxe67QhYAgYAoaAIWAIGAKpIWCEJjWE7PcHNgJYdnDRwy0Rd0YsOBgAqVtEQoMiSgkedhU8sEdjvTMEDAFDwBAwBAwBQ8AQSCMCRmjSCJh9/EBEQAyGeB7vyiZ3MwgNFpkj85pl5kCcLuuTIWAIGAKGgCFgCBgCGYiAEZoMBNMeZQgYAoaAIWAIGAKGgCFgCBgC+xYBIzT7Fm97myFgCBgChoAhYAgYAoaAIWAIZCACRmgyEEx7lCFgCBgChoAhYAgYAoaAIWAI7FsEjNDsW7ztbYaAIWAIGAKGgCFgCBgChoAhkIEIGKHJQDDtUYaAIWAIGAKGgCFgCBgChoAhsG8RMEKzb/G2txkChoAhYAgYAoaAIWAIGAKGQAYiYIQmA8G0RxkChoAhYAgYAoaAIWAIGAKGwL5FwAjNvsXb3mYIGAKGgCFgCBgChoAhYAgYAhmIgBGaDATTHmUIGAKGgCFgCBgChoAhYAgYAvsWASM0+xZve5shYAgYAoaAIWAIGAKGgCFgCGQgAkZoMhBMe5QhYAgYAoaAIWAIGAKGgCFgCOxbBIzQ7Fu87W2GgCFgCBgChoAhYAgYAoaAIZCBCBihyUAw7VGGgCFgCBgChoAhYAgYAoaAIbBvETBCs2/xtrcZAoaAIWAIGAKGgCFgCBgChkAGImCEJgPBtEcZAoaAIWAIGAKGgCFgCBgChsC+ReCQITSbN29248ZPchv+3ejuu+8ed+SRR6Qb6Zkz33bffrfAlSxR3JUqddmu5yxe/JN75dXX3YUXnO+uvbasy5IlS7rfYV80BNKDwJJff3dTp77pcuY80t1T/XaXI0eO9DzGvmMIGAIHCALx7psDpHsZ0o333vvQffjhp65c+dLu4mIXuKxZs2bIc/fXQ7Zu3erefHO2W7hokbvrzqquYMGT9ldXDtr3rlmz1k3RXbZWf9eqWd0ddVSeg3Ys1vF9g0C6CQ0b9vXXZ7gZM+e4Hdt3uKJFi7i6D9V2uXLlTLXnvy9d5vr2G+r+WbvWHX744a7No03dSSedmOr39uQD69avd7VrN3A//7zEzZr5qsuf/+h0P659hyfdrNnz3E03XOvatm2+i7jMefsd17JVO1fysuJu4ICeu37+99+rXMfO3bxwWb/ufe6MM05P97vti3sHgR07djgu1fd1qf4mUuD071MKFXSlrijhrr66VBJyui/n8+2577pJk6a6IkVOd00a1/WD79a9j/tj2TJXs8ZdrsSlFycB5P0PPnIdOnZ32bNnd8OGPOtOPnnv7qu9MxvJn7pdZwz7a8KESe6cc852zZrW36sKg+B9EydNcVn4XwzlxH///eduuuk6V+mma122bNnc778vc0OGjnQrV65K8vnt27e7888/x1191RXuoovOTzNkwXrb+t+2Xc9lvSL0FShwvPA4y5Utc5U75pj8MZ/9zbffub59h7hTTjnZ1atbxx1//LFp7oN9Yf8hEOu+4f6d8NIrbuast90tt9zobqt8017ZD69JoJwxQ3e81lt042f0o2ePLi5v3j0TNns/O9CNHj3ePfBATffQg7W8XHAwt02bNrnH2nV1s2fPdc90f8JVqFBG87N3RtSn3xC34PtFyeY/39H5pFw9z11bsazknXx75+VRT92wYZN7qltPt3r1WlelSiWdS9eke9xLlvzmHm3byf300y9u5PB+7rzzztknY7CXHLwIpJvQbNy40bVp21mC/Vxd5oe7PHlyu0cfaepuvLFiigcrh+ATXXu4V1+dJiK03W3avMk92+spWTTK7ZUDOZiaf9atc1Wq1nQLFixy//viHXfssceke9aatXhMh/xsd9ON17qnu3fa1e/p+lmDhi1c8eLF3Evjn9v182+//d7dWb2OF4z6PNvNlSub/k2e7k7bF+MisGHDRvfss4PcnLnvuC1btorMbIfPOE2Xy354Nlep0g2uaZN6+2U+u2ivvPTyq17DN23qBPfXXyvdXdUfcGvWrHFNJdTXuOfOJPvmbY2h9aOd3WGHHebGvTDMFS5cKFPMPILTgIHD3aDBI6Wpy+s+fH+mBPq9JCEIMchK/wHD3fARz7tcOXO5I47I4aJFui2y+tYQqUQAg0B++eXXrkmztm6tFDX0MRACt23d5rJpHeXJnduVr3CNPl/b5c6VK+F5+frr+a56jQdddp2zOXPmdFl2jpvnQ7QgU8cfd5y7/fZb3I03VPTWOb94d7aXJPh26NTNnXDCca5P727pIlUJd9Y+mOEIxLpvEJhbt+nkpk17y5Uvd40bPKjXXrk/IVNTXnvTZdN5whoPN/bDeikK5739elwynSgYnHMjRo6RUvQ+17xZg2TvSvQ5B8rnkI+aNm/r3pw+y/XVnqtc+ca9Mj+M94ab7nDLli2XwjS7y6E58ueU/m+77rHDDsvmzjm7qGvV6mFXZB8oUv/4Y7m7+54H3OpVa9wdd9zqHmvbIt3j/lFEpknTR92iRYvdi2OHuUujlHcHylxbPw4cBPaI0DRp1sbNm/e+LA6nOdh0eZmLuz/VQe5cXKix26+//e5qyVKCOfHEAie470UweknDc+ute0fDFPQiownNW2/N8cJDIoRm+fIVruuTPV0OCUV1JfyceeYZB84KsJ64Hr36u3HjJomU53K3V7tNB39hfyl8K832e+9/7Odt/AvDdx3M+3I+uRDffHOmtOsFXcsWD4twbXFdtJb++We9u1MXRqkrdrs8MpWZldBs27bdzZo1102WSyfz07JFo3RflIkseQhNr94DZXEZ5a6/rpyrctvNEZIbojXbt29zRc860xU+tZDvy6effuEaN23jsKgMloV2mxQ2aGVXrV7j5s9fIMFQShw9o2OH1u7WNGjUP//8f676vQ+4giefJHfZGu6EnRaWLeoj1sTP9PtP9O5j8ucXqansateqvpPUREbK94cNHy0reAFPvgro3LV28CAAoYm+b1ifnFnz3v3Ar89qVSvvlf3Q+tGO7vVpM9xZWudVdEdvk6U0vAfYl3ffVSXFOz8RpCOEZqz38shMhAYlZx8pbPcmoSlT7mYvT12ndXBthbIO6zJk5scff3aTX3ndK8GuuvJy16tnV0969mbjXnr6mT66n9a5mytdv0eWKSM0e3OmMuez94jQoIHgoG0l4WKoLky0koMG9HDnnnt2XLS4WPv1H+qKX3KR13q+8eYsaQ337oanM/uT0GyVhnbp0j+81hx3j2hNV+ZcWgfHqFZL2LzjrvvcihUr5ad7l/7cLbfJiPZ8nax6uCj+qd/hVhS4He3L+Vy3br1btWq19soRXsNOWyqXza3btrlj5WIU7eKZWQmN38O6JP8WFrnl1nrccXvXbQqBsbesdgMHjfAEAbfYiNUjqZ0G15jA3z8gNCtW/OW+++ZDfTxiJeFZ9J2LfqrcdCGho58flLAAGiE0D3rFUc8eXd3pp0WsbgguaIJXSRs67Y23JBCOFinP4x5r09zdIGVLsF43btzklv+5wh0hYeb444/z55C1gweBWIQG6xzz/n/2zgNQx7r//9+IFJFKUk80aUspmhKFFDKSvffee++9Ze+tEJIoRENRkiRRGnZ29nzer+9xna5zu8+5z7mdzO/1+/d/nqdz3/d1Xe/v+rw/4/3Zf+CA3QfON+UrOjQgNHPmzjfZlVXQuWPLoB/j3udbL+oITfjzMTuEZv8BU1lksHzZEvaHmB+HDx+2aYnDR4zV+XG9GTVygHlQxPS/vNiTtikdmvMJB0uyZLGPRAc+lyM0/+VIXZm/fd6EBg/yoAE9LLH5eMFi07hRLWsAkAYReGE8UmOCV2no4N7WezDnw/n/eUiW52DjL1S4TLylnMUlQnNlTp0r463+lIe7aLEK1ujs0L65vJ05ohzOJ06ctFGR2NSGXQqI+AnNpAnDzD33pLsUHuuyewaP0JDiVq5scdOqZaOQRpuf0GxYvzJKYTMGxvT3PjAtWna0XtIfvv881oXPHqGhjoqU1ftFbPwXUZ8dO3aYnr0Gmdlz5sloSW8+mDUx5PNedoNylT4wjkOEAQIzAi4EHB6hISW8jzz850tconvmK43QQCYgohciQuMRmmrVyptKFUpHGSNqrNhzIBo9e7Q3L2d74UJMm3i5hyM08QLjVfUj8UJoBvbvbpLLM1i+Yi2TVUXUQwf3sp7CqIfuGfOF0ndIybgr7R1m4rhhpkGjluajj5Vj2vvcHFO8ihSzktJGbvoppXckuS6JyfDgAybnK9nME088ek6kg+LbrVu3SRljvvlh9Y/Wm0uaBqHYzKprKV6yslm3bv05NTQYGxTyzpEx8K3uxX9PIO8qQgcYuE8++XgUtahgHjPeNboaGv5WTCkjN6e4yTRQNOvee6MamUQC5n20wKxcudr8tXmLOa0wPrUP2bI9b7K99Jy8HMkioeRz48dPM8WKFTJZs2Y2w4aOtYpryZMns+kkmZ/KZL3Kn3++3JQoUViH4L+RBe9H6ipVcPfuvaaSCjBf0u9zoQLXT4XDbCLdu7aRl2WHmfXBPI3BOnNSxj6G8VtvvWEja4Fkdf/+f5QrvED3/FrRjJ3WUOPg4//O6P9OqC6lUqXSJpevTuqQNnxUbT5b+oXZIHU4hCVukVADzxNRxPivaANRkoaNW5mXXnzeVKxQyixd9oWZN+8TeZ13mBsUTcny9JNK4Xk9LGGJv/7aYnN+iYSULFnU1KlVRfMqdEFqfI1ndLsNByI1aszNLp1bR0aNvM/j8S9Trpp55OGHrDDFDWfTPD1CwxiMVxRgh6IFeFjBEGW/RxQ9pe7j9tS3RTn4PI/el1+tNAgLkCJFftRtigq98HwWkyf3a+amm5JHPi7P16RZW0WNblN9UTVbOPyB5ssxkT9SYHBqhDJ+PC/zks+Wma+/+c5s0txjvtx7z93mZRW5Z3vp+ShE8ptvvlXBaR/77+v4aprs+tIYppfBT13Rzz9vNPPmLzTrfvrFJL4ukXlMBflvFXjTPJD+PpMwlupJ/ghNeakini+hYW8aNXqCnr+vuVsRlk8+nhkSHw/sUISGz4HlMolaNFVdBY6jMaMGmyxZnrI/4a2f9A/cb9MWPfEA0lRma6/cqNSU33//w+4B/M5NN6mY+PFHTAEVm5Om5lec4u9EmxGEYa9EgYiangTXRKhSMX7Hjh03Pbq3t8SL9LsmTduZBAkTmIH9u9kI1UzVT54+ddK8on28fLmSijTsMRMnTdfet9XsUHru8RPH7W8ReUCQgz34pptSRFkqbdt1sfs7qYd7tJex9/6wZq0+c40Koc+O9wP3miOqNVkgR9sSiWts1Z5GlDNH9mwSc3j1HAVA5leHjj21R9e058scYfPZ0i/NP1prqZWml0fzmnnJ/rfx19/M9OmzpWK1wc6pxx5/2BR6K7/2yYj0w7hehw4dtns2YjN/bd5sMWfvL1won1JMe59Ts0lNGQQZ3EjTekPiFP77xmV/jelZvZQzitr79u4cq3fDCfTbb5vsu3z33Wpz8NAh+z4Q8pdeeM48Kxsh0HMfHaGJ63zz3oW5TUH+8q+/s3gSWMUW4D1eeCFrlPsvEFkk3e2dom/Z+ta5inYuWfK5rVO8KUUKjfmLShnLc07dW8T+tVeO3E/NV19/a7apfoQslVeyv6izLrtp2bqz0oXPzUCJq70Rai7FRGiof+rQsYcVWRg7ZrBJ70t3P6Uoys8/b7BiK2vW/GT26n1vUL3ggxnu03n6hlLj74086z/77HMbsSb92rs8sZTjx4+Zbt0i1jtXMPvC+w7OQfazz5Z+ZZ3Lhw4fsvtNRu03+fPlkYjNHZH7jZ/QjB092Np77B+sOdY5QiuMGeeFf+57+13Gxx81DerXOOfsZLyJWj0jldpaNSvbTCEu//pHaY86aRwJB1QnRv3jK6pVez1PTo1xiij3A8cNG361qZk/CMdjR4/ZYL5/T7xeEbLu3duZVGdrt3v1GmiWa78pXaqoztacQQMAocbd/f1cBOKF0FD0lj37C5YwYJxiSGV5JnOUu2EgdOve306krqqzKVTwTVOrTpOgHgw296HDx8hoXShj+IRJIUMqkYpqjx09bnbt3m03lneUt1u8WGFbJGsPUm0ua9euM716DzI/6j8Jg9+skCcLCOMdFaDPv1huJ16gKMD3q9eYgQOH69l/NXekSaP7pdC9jtpCuxNKFysu8lBSxdde/mk4hOa+B560QgSQv6ef/leZipqiAVJ8+/Krb6xBnlLKJBz2f+/abVMK8ugwr1atov59xIE+YuQ4u7G8U7SgQbltyeLPrSADhiQEBeWr+g1b2ohZnTpV5LEpc84h9HL2N2xeP0YhIWo2AwzUOiKba0X4yskYRX6ai/Sr/Qpnk0Zzd7q7FIGrLSL1dOSms00GSJeuvS3pTCPFpZtlhEBGfxLJwuhOk+Z2k0JjQSG0JxjB+A4YNEybxRJrZLOJYQJAhiCTT2Z63NTXRpQu7V32GTgUixQtZ7JmeVo1C/eZpTIyMHAY860aI777ZKaMpm3bppEbRmwXO8ZXk6ZtbOojKlAlihURkXzOpvfEdMXXeEZ3jwOKKOZ/q6Q8a6ett52D1X9hKD7+xAvmYSlcTZ8+JvLvHqHhexD5H374SQW9Cex4YQAyJqhiNW1cxzz22MORP0nqEvPwI23iEJebU6aUEZrQHtjbt+8wmRiTutVFxu+23+H53sxf3GKWNUtma1iRygQZhziMGTUopPEDmUSh5+uvV1rDOUXy5DZVYbfWOCo5GB+1alSya4KLaHCVqvWsVPpkX00Tf7vvgUyWrD33XBbz6eJlJqnmFYbn37t2mcOaj/fde49p3aqRxSs2lz9Cw6HToH7Nc77G4U4Rrnd5EZodSu/a+Mu3kWsEooAwSPee/e1c5hDln9gavrEhNDwDeNau20ROm19MTeFWo3pFew/uSVolDpqBA7pbA4Dr++/X2MJyLvY2DAbmDcYgRuhTWlPNm9Wz9VvetfqHH02PHv3N76qZTKfaoeTae9hLcBRhZN/1vztFIhPbfP0HZMASAWXtctWvV80MHjzSJu2xdjNongwe1NtGlXr0HGANGwQNIAjUAOzY8bf1LL8sx07bNk2j5P8XKVrW7NTf33gjlwznpbZo/QalIuLQYuzu1XiTPopy4dcyNjlDOEu2bN0q8n+D6jiL2X3On37H/KpYqbYdG8YQfHCsnNB7/fbbH9rLbjMVRMCOajwR6sDphXIlTgPGmDOvZYsGca5RYr/s1/9dGUQLDDUp7KOMG2lED2a4X2feHmtw+kVoONc4BwYOGm6qVS2nlMh/1Tbjur/GtB7iSmiOaz+dOn2m9qRZZpf2jpu1dplbkBz2Eq68SoesVq1CFJIaHaGJ63zj9yEWffq9a5YvX2lSKcUbI5I599efWzSvD9oztWrV8pH7ypgxk0w3pYMSAeM5qeuFmJwQxpwvjDGkGmcAqb9cEURrm7U3Vqz41qaXks7JjXb+/bclxH//vdvOPYigv4YmrvZGqP0KQrNXa7aCnH1lNedxRJ3WP39qP+g/YIgcVN/YlOn2bZtHGu88P87iAZo/rPc7ZXuwfg4dPGT++Osve57gIMW5yL7w5Zdfm85deovQRLw/Z+5RGe6///GnbIcj5sO5U634AFcw+4J/z+dRjRw/fqrFi3uyV+zVvGDd4jTFOQZ2CRIktM5VRAGoBcLeWSUn9RntC4ijsCYQX8Gh16VzK4nm3BkJk7UXtN9xLmFveeeH9wHGu7NsFv7ev1+3yHkYdf3/bVb/sMak1J4Eluyt18k5VvCtfNofJNDi2/c/lq01SDhij91z9912vmM74ihiP2XfxcFPhCw1c0TX4088L9yO2jpYnGXevAo11u7vMSMQb4QmX77c5t13R6nAepB5XYtnoCaK/8DmYCtRqrJ9mulTR9sNg1B6sJDskKFjzOgxE6xCRwV5R2HiTCC8ThizEyZOt7UodSVjm/9scS1egrbtupv3Z8yWis9j8vwVt+Rkvwy4xfJAfPjhQhn9x+ym+t3KJZEqZztlRDdr0dEe+hTq5nszt10AHM5rRIwGqt6HhdixQ0tLirjCITT3p3/K3rN/3y7mGck6cx3U5tFXB9l77822JKGsajjwBLIhsVGMGDneGkJNm9S1Cxo8RyhPfuDAEfb9T5w8Ia9gPruR/CMD5L577rZGKs/3qbxjNbXwAkPQdsPRBghJ8YeorSqLFJq+/malxRoDNj8eWhES0vWQ1MRbmV/4dFQutSf8QErOsOFjbW4uUrp49InIfKNNHs8QMrVEPSgq9TzDjO+o0eOtoYR3EZEENkg2gQkyjJcvX2G9Yj3l5eWdIwy6yjZSRRTntVzZbZFjYnmdIKhdu/fTXElg719chCS2hqK3NIhGcKBx39S3SQZXUUDeP0fObPJo3R90BcXXeEa3PKn5KiBCw8Ezc8b4cwgN8zhjphctdjPeH3cOoUEF6ZZbUlpPGxFGnACQ0kGK3iGD+aK8lP36Iu8cEY2aNm2W6dSll5XGrFChpDbmdBbHnTLsxo6bbMURChXMp0M9wuPF871VsJQcBscsgaUuhLQUjDz9fzIacsY4DpYw9BtiRknZCO9ykcL5bbSH92Wv4DkZ22ZN6kj+M58lJxw4NWo21Ptk1B4yJsrvMx7sKXjbyPdH+SmlSC+1I0RF9u7da50gEBM/CYkOf4/Q4IChJvDxRx8+Wz0TUUNDmhcHr78Y2yM03It5zaFt17mif2tF8NfLG5ordw5LNDD8Y3vFltAQZawtAwCC+LoUGHucVWD01+BwgHueVBSJiJCCG4YnhyoH8E4VEfeVQUjEpFWLhjZKAP44PTp36WOdHTgncJ5wUBPBIGIzXIpw7MdF337LPKF1z+8hFlOsRCX73dSpb9U+kN7kfk1pnZojzC8MJrBZ9d0PlgjguEmke2FErFHEZYTmB4XGRHeI1ngXBG39+o3WIEK6nAJk9iq88R079bJGFsqAEI1i7xS2Zwge0w8/UoRo5odW7nqI0p49gs7vMr9q1mosT34ak0h7YDHtuUSqeJZJk9+Tg22BNU4wVJ9VdByCcYv2dPatrt36qg3BATlVmllPc1zqlIiEd+rcU3gkUHpjCXmO5fASNut+Xq91+YGNiPEeeHI9ERo/4SYaCln39r247q8xzUMv5YzoeHs5jMiUiBDHiDDqcabxj3dvomHspQinlJEj4Fk5H9h7ELBYI7U+zq9Tp86YtyVe4Rf2CEZowplvnNstW3eSgMhn1nFYqsTbkZH7jRs3WZGPP3S2lpfxj0APzz1mzEQ5GwbY8wUC9I6MzIcezGCjjUuVHk9GxI2qBemqzIXnn8tq3x38R+l7EHTWD2cPBB/SvGr1D2bSpPesAty+fQes6JFHaMKxN0LtExAanAoZRH4zaH4yPhj+m7dsl/2wVhGxZ0zjhrVNWrUh8K4tWtvVtJdu19ylHdTkLFQAACAASURBVECmTE9YQgPm3373venZc6B16iHyxBnDu/ys9eZFuL0U2hkz55hM2o9HDO0XGfUKZl9ERJCXy0brYlB9bNCwlrVbiBxxli1VBGj4yAnmRZ3rffp0svaFR2h+//1Pk1T4s1dkV/TrZpEMiObQYaO1RjaY6pKi90fs2e+KqeaQzA32u3MJzUTN0f42a8f/9+Dr/2HtVQltxgJ7H/LX1CJ55G2XHM81ajYWNr/YGtx8b+aRomUiG2nm3CQahJ31ao6X5UiMeF+u7DneNMxHzgLmjusXF2qWx+7v8UZoWLArV35v6jdoLi/IYStbTMjSuwjpsmmRj960ST1taieDEprNSrmqXLW+3cRLa4IQQSA8zWbPYUt6Ap4CwtmknpCOg7f+L0U68hUoYdMdRo8aaPXXMdbwePGdJfJGtOvQ3Xog/IRm6tQZpofCfxCEYerbgfKadxhBOPoPHCo1mfe0kLJJvCAi5B4OoXkgQ2Zr0PsJDXKsdeo1lXF4yEydNEIb4l2RE54DjDSeVpLNRG7xPXnhIwjNeLuJYsBXUU8b+g9gYKK4hNEBGeH5Fi36zNSQlzYYoQkWovZkJj+VtxOjq17tqjZyAoZ4zdciPV2svDX4586ZYjEHnwaKBi3RZtStazsd8K/a52dD3bXrb1OpSj0t2t/M4k9nWzLH83vji9e/tTwTuXUvzzvBIbFy5SorfYthivY8aQoeoaGxVh0916vy3LNJRUSWjphGjVvb6BsGNRtwXEUXKPLfsGGjjJ2FwvkDpakcE0G40b4/hn+limWs7K7/iq/xjG6Z+gnNrJkTbPTCf3EIPPHkS5GExvu7F6EhDM5Gmv/N121DMjxeJ0WA8Sz3FZEA84EDutnIFmvm9bxF5GE6ZNrJaMkuMumF4fFY/imPXa7chS0pZQ0wJp7IBusuhzbrRvJepsazbA0dE0VlK9g7bpbHq0ChkjZ8P2hgdxtB8TZ7vM+rvv/BFC5Sxha34+EkEhtTSifjwTOXKvmOjagiGnDttQmtIUUK5ogR40WEHlMdQOcIT2qIyzMYkZJNosM1MFWNAxrnB5EDz5jzCA0ppF5KDX/js+xDVSqXUSpKDtsbKC6NA2NLaNgfG2otkCrhTxGK7vvM+6NHj1jHEVjxTF5vkTFjJpsu3fvI6CtrPdOsKTy+pJNANBZ8PMNGUPkO94UkF367nAhCWjNS6xbPJpdHaMAE0ttYkUGIh2cQE5FhvJmDROHZw7xUVfaX5i3am08XLbXCM3igPawhNESFX389l6mheU7PKBwcRKo7idDM+uBDO7fq1KosB8grZ9OFrrGpdWXKVbdOKkgAThvvN5lfEBocAd21n+GMYRyZz78ozaW01DkPyXGUVw67mtUrKWKT2j4vc4UI05ixk0SaC2tfaxgHj+sZW8OH4yqXogDNFWnxUjvZ2/BOs58TsX89GkLjr/EKZ3+NaSl4ERqyHe67Lx2K9tbQ52L+ZMr0qKKopO0ksU6yVkqzopUD6Tktmze0BiB7D/MKo3i0vONj5RzjvB05vH+kkR2M0IQz31iD9Ru2sgRwxPB+tp7Mc9ow5jNmztZYDbRkd+rkUXaf8iI0ZBM0lqFNlDdC+tzYlMkSpapYpTB65NQ8G/W0Kcqlq5jVihq0b9fcZpxglHrv+b3+fctWHa3h3UdCHh6hCcfeCLVXcZ4TscBu8e8rzEueh/WWR6lSRD+8uY4N0avvIFNc8xVVOUhZxFo+o3PgH9OiRQcZ40tsXSlOG+wNxttLpiQTp7oIEecQdhNOBe+3g9kXONjatO1qRQrACycJ2Rl8h7OKFHcc3D+JOEyTwxsHhEdoSF9kXRFRZe9mr2J831PKZQcpfuJkmPvB5Mj7e4QmqxzH1BwGi9BAunlm/9+jW//gD2Gsp+f7UtGuzp1aRTqYcQDXqdvc4vP+9LGR0VnOzY+U9txcOD4vkjZIkXF/qv53q1Zbsku0PG3aO+N0HoSaD1fz3+ON0CC7TA5mvfotrIeQcKW3gDis3ipUSh7infJWdJKn7VkdKEeDEpqFkmZt0bKDHeBRIwZaVhvocUfRp36Dltaw6q8Je59kXJG2rVajofJjs0hp7dwaHlJPChUua3N7vZQzFi/pRvwesqy1FUnw97bgIFu0+LPIdIiFOsTji9Cw0bz//mw1jmpvc6UhZoFGDiFLNsXN8qb89ONy+3eP0GDgzVYqUrAGoedDaObP/9R01bMUlXfS/zz7FN59M19xSxxXfrPIEhQOsNpKG/xSkY2xytknFci7OLzKlqtpVqz8zny7YnFkRMwbXxY3dVQ3qvbHfzFX3ilewRocPZRzShGjZ5BRV9RXinhEg/xz4t0hI5WyMczWDEAYMWTiekWQ5b223oA8XQ5lIg+EmfPKaGokD5dn5PPbgYQm3PGM7jnPl9AwdqR94bXzY/XHn/KYF69kDVnSB4u+XVBRuW81VtV1MDxgOuoAI/3Lf/FuJUtXtakJbMz0A/AIzfr1G8zHH9Hs8tx1GtMYzJgxx6ZGvilS0ETPERhyJ7JaQl42IgDvTSOimyIkoYFk9+rZwTaw9L8zZLeC6vvwNLJf+L3y0T2jR2iGDB1tiQtefl9rF/u1VKluiUzf4n97hIZ5BI7INnNQU5hL1In10aZ1E2tgeM+HoY/xg9fSr5+WUEZgxowP2/eOLaHByKpXv5nSV1dYb2afszUPob4PCSDvG4MFxwgX+0DL1h1tFIJ6GPYbz8AgvWytVNz8Y0bUIudrBayh+p4Odo9ge4QGA4SeFNS6RUfmSOWC3JDqE+FlNqof6Wnz2N9QBAZnhZ/QgHeP7h1UH5U3SkRk8pT3Tbv23WxePvsFhqp34cHP8WoBm3pZo0YFZQD8S5I8wkyUmwig3zHCOL1TrKKt01m4YKb1hPvnGMZVA9X5kZqER95TSgy1D22W467oO+x3R0WOGytamTvK77IvVa/ZSJkJX0RJOYtOtCKc/TWmZ4TQcD4y1oGd2jHaqEfBMcXfcV6RtkzqNkYuDsfAsxsSyjmNEdu9W1vrPOEKRmjCmW+sV/7BmdpfEWhIsv/CK067CebgtCmjbMqsR2ieUGZHP50fgQ6PauotR2YI3neMWRu5VrT7uRdy27k1dcrISJLuP/9q1GokGf3PI0WPmM/h2Buh5pCXclao0JuSbX4lcp/aTV2w6jqwxyAPpH2XLFHErpUCiq5v1DixH1GrayPrZy+ekygsa6+20i+xi/xrgbXM3k0WSElFwPypePxEMELjpSizr48f8651Bviv44psoX47YdI0Sd73thHg33QWe31oIL8vBOzrXylNn5ps9r2ffvwqcl85H0JDH8Fg6599qZsyQaiDxLbFKc88oDavUZO2Ft9P1bDd3xB2kRwxlFXwe4Ep0qxrcMbejGtGSaj5cDX/PV4JDYOER3OwUs/wkE6dPNKy41laHHTNfUqGUC8dQBgCXkQgMOUML1d/5fLjGVswf0YUI9IbKIyDnK+9FZnChYFFikTf/kNMaRV2N5dsaaCBhAGGyplfFIBDDYN8hUKUeCgQNgi8CMESPr9dC3DJojl24cdHhIYDaYDqdoYMHSWMUp7jReA5+AzpDBz0G9dH5OR7hIYw/+KzzxP4zOdDaKJrBBYMPxZ5u/bdrTf07SIFbNiX3FvmAQu9QeM2avh3i/W4eAaON758hmhYVBHciL14k1ICEilPtn+/LvbAC2WQeQdSYAg5nIWN8b5N0SMOvhlKX+RAwvvSUqk3bxV4I3LzCSQ04Y5ndM94voQmusaankGHkEONGuVNxfKlzcSJ05Ru1tt6JfHEBkuXwfPLoTZEgh+kTPpl0FHsCkasY8KfFB2itnjDb9LaU1w/yseZH3/8Qd1CGkOEinkVKkITGAH1fpB0UkQDSKHwp1zF9Hx+gxFRAMY/1MHjVzlbvWqZ/TxF6YgdNGrS2taHNZIKJHVanrdu3bqf5dhpaVM9/GsBb28HRcvwFoea/9574EWuXaep+V51LsVULNuqZWP7DNF9n7lO07rFirD+qBoN5Mn/UXopY3GEfU9G20tyPiGrD6Hh+Zs0ayNxl2/02xGpaDwnz/6+0rhaiwB5qW5ebaNHaGwNpVJ2ouscvvLbVdZoxIjZtOl3m5bERfoekZrAonQiNOA9aGBPm4rlHxvERojCZJWDI5iHNroi6pjmF+9Ys7ZqPpWWtmb1F+c0kpyt4utaql+CSHp4xWb/+Up1HkS9uEYrlSVYywOMR+7rr6GJjtCEs7/G9JxeyhnzkNoBomf/Gr5n7LlJKhNnE/MMA5PoO/M/mGTvHo1nvvwlbKSrdu3KSrOOEA8JRmjCmW84QymE5/wP1jz7pEgYaYnJFfGeLkcJPaS88yPQY++9ZzD8qT8pVaaqFbGhqWlgo1zsm3rKVqE202usaVNCw7A3Qs0jbz7XqFHR1nh5awHnIBGinr0GKO3+c/OoxDL6yOFz5513mocezWpTO9kzg6U7HZS9RISsmmqNKKz3CA17BqnwNDnGQdS5kxzLyiDxr79g6wsnz9NZFClVWh/pnmTc+K8IgYU99nkH9e9hI1p+QhOssWZ0qpLnS2gCG6N7thg1a4Gql6RFk4nCfIbs5lS2AtxwtyKqAxUFwx4mq4QoWKjzI9Q4u7+HRiBeCQ23+1PGaGEVgeK9IaRPXQpqTBQns+BIIcNgio7QkIc9ePBoq9oVncGO1zNb9rx2MeJRQa2ivdLJRiuntbw8bkhHBy7SYH1oWGR4AL6VwcPBnfHxx87xwjIJITEpVbvBAR5fERrIAAWFbA5EFl58/tlz783xIQaPl4ncan/K2X9FaKKTmQyGn63vkGIRKYAsYhqrUgdx9MgxKYastAIR9etXt93sPc/FMNUkUGvF/yZVItjF/CDFC1U0CgdDGXShDqTQy+DcT2D4E61poQgZ6SBscuPkWfI2pUBCE+54XmhCw/08j15VFROTUjRKxILmomnlrcyd+9WgTgQMFggPBhtjfL59nfCgj1NxKPndGJ7BSBRYs8aJkLCewyU0oeZPsDGIT9lmvNFEDUi5IJJFDaFXgwYJmT3nY+2XEcpe3nWt0sBeffVlm4Ya2+f/SZETUqYoYEWpsMBZAh7s+6zdnyQe0FvjjpokUU/qp6xTR2v5Z0XePpR3l3ok0gwhKERwevcdrJqCKZaIogiFYUhR7+cqGkYVqkun1nYf8MbTT2i6dmmt72Sze4X/Is+cfHh6QVGzhsJQQqWVcNFMlWeJC6GBwL4jAhtdykk4hMY7r1A+g8AHGsvhEppPlRrctFl7ixdiOsGaLkfXWDOYgRXO/hrT/hgX2WZUoiA0RC/8ohj+3z8goz7vG2/b9DNSoj0DPBihCWe+kX48T9ka4Jjr1X+jFd4zQMgSJLzG1ovkV8SFCHCo8yMY/jPVcqKuCAu1egNUpxEYkQtm36A+GI69Eer8iknljO+S+lRPThPqgwbIXnriicfNvfdnsk6oPEr5Rowo8GKNCinVxzxulU299bxixSpbo0T9HVklCM9AjPxXsOchdY+aT8gvzs9gJApbB6/Oqzpj7pP4TCjZ5kuB0BCtqli5jq3BvleZQtQAJU58ndmqyOtikV7SRxEmIF3bXf89AvFOaDi8qasg9E1OMN6zNm1VCKYc8smThkemaERHaMaOm2Tlg6+XEs3cOZMjc7H9UKxQnUUJFYmnS/c/64FDuQjljFZtOpl8yokmNcEzGLzvoUBBETNSgV7KGUYLHhPqa1hk9aTiFIxFc/jjUfU8TvERoQGnsWMnmw6qK8opA4C0jujujTHpNU6LbYSGcHAlhUa9nN9QG0504+F9L5gBi9FP1/ppyotFrWOFaqiIZpGzfL9qIvKq2DtHjpesUeq92/tKNbJqKTJQmQ+B6l3+5+SQIF82lEEX6kAKdxnZmgT1TcLgwoBZpFogLzQfSGjCHc/ons2L0JCKMm/utHNkazkcUTkjfxhRgMAamugiNBiNBQuXtl515GmLv1PIGgCs2QdVpIlBGphyxjOSN09RNf14+O3zJTQISTAP8MQ1b1ovaM1BxLpLaI0F5s/lSmjAj0hr2XI1zCYVuPbp1cHWfnj549QcRlZa+yYEWLPvhJr/fIX5B0HsqXrAJEkS2zRAz+gO9n32voFSGhw2fLyV5SY9mMi5Z2ggN9ukedsoEQfmXNPm7aT+s1bG4suKqCy3yj44VzAgCyvl5dmsz9j/7V2hCA1pneUq1LDysUgpoyaJpLiXlgbxZdwxcvyywTFFaEJ5aM+H0CB+QPQhvggNapDlK9a2Ue2+KoZ+7tks52wJcYnQhLO/hiI0yNHGRraZYnIM9u3b/5YzcnZQ4QsKvBF4wRBs26ZJpNx0MEITznzr2q2fBBym22js6JEDg5+p7GU6U4mq2NTcsypn0UVogp33pNdlz5HP1lkRPQhsbBoRoWlh91YvQsN5GY69Eer8CkVoiH5iL5EJ0r9vZ0XYM5sXs71uVVRxfFDjEWh72Dop/T8iXah28XcK4Nt16GHrc8lWaNy4dtCslmDPw1i+IrxQjZ0nRTQie4GXV5uVVM4THJ7nS2ieelJF/yJwgU2YGe+u3fvKEf7kOTU0pJzFJUJDNJkIzRmt30yZHpNM+Lc2bRbFRhwztLpAtTWudb2hxtz9PTgC8U5ouA2pA1Wq1bNKSbfemtJ8t2qN1WXv2qVdZE5rdAY0+e4YVxAglMX4nn+xsSlAeJAvRhmsl/KVUeghzaBEqUryANxlc2P9ebD8Flrrjc+mfaz69rPIA6lLtz5WkQSJ0YlqRBhIhHgfDhsu75CND0LD75FjST4vGuezP5gUNESOUeflWvKd2BCaBjLCSVEgwgFR8rwrnoIUBwoG7TkqZ9GoznHfYAYsPXNq1W6saNsx1WsMtBsehazI/ZJGhOcHr75//CiGq16jUWQONWpmwbo2MM5eWk4ogy7UgRTT4gcH5oeViw3ooE4YuZ5qtZB+zaZansEDe0QboQl3PKN7Ni/Fj2LrubMnW6ll72LDhIQjYUw9SDBCw1ijckVKhL9mAYnJlkr/ZEyoh3lamzqRqLxvFrVpj70kLZlVRmmwC5xIv4tuPsRlk6UnVemyVS0hG6vI121KUT3ngDsrp+TNn4tBaBAUiI8+NBhw3XsMsMo3zz//jK0PjK0SVsT8r6iaQdUAyRuM99J/MR+oZaIYGoMRtR3Sbr1xD7Z+2H/p7TR37gLTqUMLU7x4kSjzZMqUGecQGgqgqSfInPkJm0O+XZFyiBGKYCjKsd49aXvv+UIRGuoDERshPaaNakjyqm+W99yQtEZKW52vXmVXKqFBnrxAwRK2HrGimiJWl8CBf73+ofTqmqrF+E2G0+uKngZTOfOLAoSzv8a0buMi28zcQ+QG9bl6SrGhZUDUmlRF9JWe3Fl9dTCUJ4wfalsBcAUjNOHMt+lSDO2qM52ahnFjhpzT8417sTdSP+vtZaHOj2DnvTXQc+a35x2CPY9JBdF/0UKCaNWvqtntKyESTxQgHHsj1L4aitB8MHueanfaimD+z6Zxc5bUUF0WPQBRCLM1MiItwfZfsGI+svdPnSYBJUnPs86HDulj+/oEu4I9j62pLV/DrPx2taJEXa3cejAHLrYW/55/wiU0yK2/XUwCJZJQJoPHHx1hvGgz8Z4cq08r6yJQFCCuhGbylPc03/pZkYAS2kOJTlI7mUQOW5we9L0K1mSeNFqclTjJcSK5dLRQszx2f/9PCA1GIlKdGEr0B6DoFMURvHfeFR2hYaCrVq9vvZJPZ37SVK9ewcqM4vVHt5tCMHpXUKCMYk5RRVYwDAhpYqjDmOk/QPEbE2rv3gNWivhdGSbb1beA4jS/ytly/a1evRZWfpYmb6TUQIaYYBzWFLv+pDx3ZBxJF+GKL0JDjmo9KXrx+0X0HoUlT0uRIu/DRkI6yi+//GrlTp9Sw0yu2BAaahPwQGD44P3Gi0QKIE0yx42fbJVZ2NDB1lNBCydCw2HLBsBzkieKKhjsi3QRIgY000Mf3tZInL2YGxS5os//vIqkUY6JGN+IHhhezxs82Uj5xlQD4P1mqAMppqUwRSp3hIvxyuBlhhzz3PtkaKAYNmXqTFtAjJjFaz5yHUzlLJzxjO7ZqGGoVaeZFJ6W2H5LKK0R6aIPE9FPnnv7tp22uDKQ0DRu0s7OXd4HaVLGH0PzD/Vh6Kc6M3oKIEs9TIcS0Q8+C7FGVY/GYagL3i1nRBKFztmc9+/fp7qinfrPf1QD8bwdq/ON0KAaU1Ge6R/X/mTKSL3GNlWTGAGpVhG9aPYomvGH1vCtUix82K6Ji0FoyJmOrg8NLkzw+zcd47vIlJsN61dGMUxZz5BQnCoIXkwcP8xKAsfm8oti0LOA1EAuUnLoP4EHdq7S1kjxRC65Z48OVsXJu4IRGg5TiO17EiaBANH3iTV7RAf+KhkEFMBSb5hNUvVeyplX0H2LlKsoMKZfF+udfjw4BBInSqx5k9Yak94VitBgANCnhjVG09zy5Uua62XsYjDSKBRFPmoyrlRCg6HYTEpuNKXlfKHA+lGl/nFR34Qq2PKvV0it72SsVM7C2V9jmoNxITQQ6+5Sj5osMnz77bfbdgOPPfqgnRvsMT+p0S2qofTUKaFicnpheanIwQhNOPON+trKcvSgkkoRf1HVkqW9CzW+CDUt9hWU7hJprlIMzxXq/Ah23nNeIkxE9D6XbIZakj5m/2Jt0wdqkOonkN2mJ5BftjkceyPUHhGsDw0VaGC+XnOIGhoioK8pBa99u2Y2mkSfOlTF6IsCoUHa/5ab1a8HNTqdPX9rXSIA9KTORWpdf5EKaG2dR6zFlqqfey1ndt9jaQ9Q03PPmRGM0PAs9BYcMGC4MgEeUMuNqrZJ+o1Jk9noP+t/27Ztto6PaCCEIFxCgw1BSQJJc/Tme+utvDYaR2NdhJjob7hPduBTOgPPl9CMmzDFquahqotEeBL2PmFIii54QFg4Sz3y7IHWWGJUrAcyJIpIwtwvJhBqvN3fo0cgbELDxun1kSGkisqZ/yKdqq3SBWCfTyj0hna3182cz/m/3693F/t9j6USbUGXnwP6UXk+8EJfpxAkqRlshjQyw+gqqxqM2852XsWjj5GHfCaMOMszamQpry/FWXgFHn04g9mjw588X3/KABvTcEm6kuqGYcJhwgImnxMiRr3Ohg2/KSWjaqRUH+/NhkAjLn+qGAX1GPgYi+9PHxeFddMng6aT/ZWPTmSJC5JBF/e+/QbbBZ1BKT/3qEiRNJtTIhxoxK9X0Vmhgm+oqWEN+3vDFZmiBoV0lM8WfxjFA/avEfGn1ZjfuGGTVfrBsEVYYN1P623uOzhCNiE0lWUo87v+8cCjRKjU7zWgFw2iCv6UPbwdYzTORMt4nmvkySHaAo70i0kkEoo3p4RkdDNJHti7yH3trI7vaLsjz4hKHb1BMJ5pgkqTLTZkT4rR30ejr7w7dIT3X6NH00cgQleeDSouBerjJky1dQTkUtMHA9KARC/FqxgUGBzMNYifP5UmvsYzuqV5SvN55qx58lz2sBEv6kyYP3jFIQFPq26MA5+N0N+nJiIS2VYGbRqTVF2fUfdjDWEkoqiE6hz9mZBnfl6Fvt5FszdqPEilIGoCyeRQOWnHZI+V24awoiJGnYU3HzB6g6XghNp0GeuPpaRFgzPmHjUcRFfJxz6ud8fQxbsJyacwlfeM6/rynsE/f5gfRGNDXRhnvfsMtg4EGnYG9qHx1i9dwakZYc9hXtdSUX50NQQ0a6yhGhe8t0UKF7BjEBvPHFLmpIxAIB7RPna9lZS9xspwUzhNgz8KaknxLaPeMIik+H832PrBefChGjmSD4+3PKd6LkU4gPaZb+RsYO0S9cHoI9UL4kbNYa8+g2z0N5kMERY765S5xdqAyOBEwTHk9byISDGqJIfRCZtz7xXNevizB/aQwTVixDhFoO6x6S8Qq81btqh27Wdba8n8A+NgKWcDVECMXHzg+3p9KILtB16fDGrIvP2P54lpfnn7IylnwWpoICS1FZ3AIebhFWqOeX+n9onaDwqMcT4QicMowgGFIYSXd9my5bY5oheh8RprougFIUWtysMgrvtrTM/ZuEmECmhsUs74HeqdEPxYtuwrWw+VQY2QI/rQEEXcKMP4N3nnX1MkqqIyONJG3pqeZTji6N9EATV2QzjzDZJP7Rdrd8++vfY8h2Szp9MglWatkOxnn31akcmWFjPv/KBWhAho4PnBeY/SHue9hz/rh72WlMj9kt+lNxYRi0NHDqteeK1NObJntJwYzAfPvgnH3gg1j156Oa91BPr70LAyiXr+ojlFn6fnZHPUrVP9bNPKBFIGO2B69RqsSAUtFW626cap5DziYm/nnDmgz3Tq2NrW0DDPqNmiTxTnht9pwV5Oup4nmsP6wuFMBoi3viBK9Nbrol4uOCqQfOd5OUvYQ9i/iNZi+4wZPdjW5kFoSNFjXUwYNzSyf5/fjgi233IvouEILlGDaOXXNRa///6XFR1grCA1mZ/KGMVeiGn9+9ebv+8TkVPOTdYqDcS5eB/uB6khtY4GwpU1r/3p9Q8+ksWcFMnDacvadY01Q83y2P09bEITkSPa0iqYjVKuKovdf1GYWqZsNatUMVQqIPQI8R863vfnfbTANjjzK9UwedasWSf1rLm2LoNNiGnCImKDQhrzOeV9413w/yYb4KJFyxTWnqsuzz/a4ma8mXmUxvCC0jxIVSMfONAAo64AbwrsHcKEtCAXMrBETB5WdKZ48cL2v3OxydMMjUgQnbS9Z6D/AwViNAocPIhGaf8mU2V46Bmr+IUqj98zy+aB4TxTDapWKTUPDwULks2QRQ+Zo6+Gl3KE8AFiAng5ApsLevjjicLLOmHiVPVn+cYuHKJOL76Y1RQs8KZtgEcDNJoklisboYoSOR7zPrah+pfPNhH1fhPZ0oIBKnF4XbqrQRXa8hi7b0jilUODuKFYXAAAIABJREFUEDXG6O8ae6IW6KyPHD7Qbpxc1lunQ3zhws/UxXi5PWB4Zxb1nXektoZtbtVe0W+GZ2OzyJe/mHB71PYsCQx1T5BKV+s2XaUI9bT+3uOcni0xLQUUzfCyLVnyhUjeJkWb9tg6mVv0rBiyzLUs6iiMHK3/iq/xjOnZMC6pZeDQYY6wQdJNuaDIJlKQtaS6RAO1me+Pj5SqphEc//5lRVIqVyxrFcyWffGVah0OW8Pz2Wczn218+HiU9CDWHGNCQ7qvJMMNsbE1M8muF8m7RSTnXnmIc1lZdMgF8+GtQqWtJ/SLZfPjRCK9dyYa+4OihfMXfGqFOdgzkCumqzv1HOBPD4SHZcQzp8JZX9zLmz+kHpA2GBvZZhwkw2Vks9bYR4LlQJNGhoQnhIu/QxzozcC4/fzTN+fIE/ObiC+MGzfVKv3MUe8E1nmoa+PG382b+d+xnkwIH2uCbDyEM+5QhA7DMasaPWJUsEcFevuiWz8YHRir7ME//rhe++t11nimeSCNa5FPZ1/u07uTnXt05m7esqNtVPysaj2IBkH4MVY3/7VVRHuddcwQ7UQNj+fcIucEtYu8+4hhfWVMPHHO6/IZaj8wGnEgsW0+oHfKpQa6OxSFHKM0PWRce3T7t86wuIr+qaUk9SVQOY33BS/eIdh+gLw0tX7161WL3P94qJjml7c/zlb6TjBCgzFUrkJNG2ns0ysCr9heYLN69Vph8IGM5GVyPh2XoZfUjkNhGTzfqTaFtJYihfOJFEZIV7OHIlXfq/cAie80NlXVk8w7b+K6v8b0nPQBmi5JalKm/PhH9x3ehd45iCR8oUjwZpFtziPWL2dY9uwvmBwSk/CU0bzfIRWL3ihEdYj+IYQTznzj90hvggzP01mGgin2A+dLsmScqWl17zuUHlRUIhgP2ttzfmCUUuCP1HngmuS8R8aYXjMe/nyPvl0r5CAlis9cRPKc+kNaDbBu5mpt9ZP66qiRajauyLc3PnG1N0LNIyKc9IZi3Xtrn/eFFNLzigaT+TQv71Vdq9eTh7/jOPxczS4XKOLP+cJ+DFHjjLlVe36WrE9ZhxKpyGR8vDtktDXUAwv6GfNiijQwdrwj6wvMEYXyNx5mHpBCzRwnWo1TlT2UZ0kvo/9WOexwymBL8h5E6MnmQCVy9qwp9gzyXzHttxCX99+fI8GVj2wGCaqpzzyjBrwSmME5U7pMNTlPskTZH2Ja/956691noKkpMYtmynzhXb2IIFjirCGFkka8R0RsN2360+6JvB/v1Ubr1JsDhVTHSi0imS30J3M1NqFmeez+HjahYeLTJ4XJQtfUQK8GkxcDiUVCOC5wk/C+v0feNzzCwb7Pwsc7RySAwxz2frMK21BZ8poyBb4mIV4m8x55+jkYmbykPbGZsZio88CDGXjosyhR7sAzf1wHCiybSUbIkPxwf2E7v0OjM/pJeCSH54BQEeLF04G30X99I+8tjd+IlgTDglAuRXr+d8ULivY/RW1eWgufgyRQd+OlwAUbavDnfej6zbvhbafx4W2pUtmQO424IHtEJbi88QBvRBYCi/b4vR8VUcFTSSQEjzSbaF31HcKoGdi/q83RPU3nNTZ7qdngOe6gCAMbF4aFX+GI+2H4McYUFrPoeUfSE+jKzBh7i/yQ7rlGKnnJdMinF36Bi5+IHffAs/uANkbSHGN7cV8Opl3CiedAoY0LIxZCi4EXLMc1vsYz1HNaHLVZ4gUkbYJIEgQRDIhwsS4g+V6eLp46vHKsJ2rYKEYnMgDRxBiGmNE7IVj9RkQvnn12jfA7XKw5rwdFKs0dL60gYj6ss52xicAGyxMO9W78nblJWudueehoeovbn0OX0D3NGSHB3m+Hu768+cPc4uCMjTeMeYHRy4EVtMhLT0ohKESe9C4OKubPBqWI8k5IWwe7GEvWBfhnFEEH31AXaSysNQ5K/2WV59T0kxQSxjuwXs37bEzrh/m1fYf2nt377H5J9IeifOY+jZLZ94ig8n5EZpq37CSimd60b9/CpmeCEx7aw9p3f5BaWldFXiFKnyyYZdMhrXNKBIPPPSQnTLD+LPyN1Dki0gdFvCHp9N/BOGQ//FOpLxg7fiJKZJBn5+zgWf1XxPuutb8RbD9YLVlr9nj2bm//4/sxza/I/TGa84MUyp+VakSUC7xiWx/lPTfrCSOQ/d1bq+yBYMhZw/7G2qURHxeY4dEGG6Ji/vfg73HZX2Oaf9yXiCNnUGwcAd6zcY6wrg+qDtGri2A936b0abzygZFJ3mPL5m0m3d13Rcj5a6rPpzFhHOebH89z7Ydr7dnCmQ5eXq2Sd36whohMB/ZJsue9zgdUwjz8vfswv1nPnKenNYbU4DJmrBvW+p9/bLbndKB9Exd7I9T+sE5CRzgSAi/mINExnoV9NBBz5hDn+Y4duyx5pAkx/w6MkiTBkZXS2gHWcGd89J5Be0jpO+BJNITLri+dCxE11BFOTO/i921aOeetnpn0YgY7ue6Dw+02nbdeJg/7Hqlu/Cc2pL8PHL8X037LfdiHyEo4olIF9vBUWpvsKdwz2P4Q0/r31htON/Z7CDnzmnS+8ROmKzL7shVW8Ww7xhfbd/bcj6z4E4IMH6j9AOc3F3Yiae1gho0Rm0h9qHng/q5h1kAFtgJxuDgEQiLAYkbdrJl0/4vIi95VynKBmx2GcXU1UftOqVGkfvi9VCFv4D7gEHAIXDIIeI3liFp16tjK1igGHsKkG1Wr3sBG2pDcv8tXx3PJvIh7kMsCATffLothuqofEvuGRrKkcdNIlshc4DVDmTedJIKBU/TDuVOCqvZe1SDG88s7QhPPgF4tPwcPZrFSNIrCS5PGdW1hoRc9+UOeqYULF0kWdqxVUJkyeZRSxc7Vu79a8HLv6RC4nBEg5YL6xKHDxti0jWpSRyKSa3tH4HFUfQRpOdTUPfHEo1I9HBy0n9HljIF79guHgJtvFw5rd6fwELB1QnLYrpJyazEJ95RW/aJXFxaRRvqjGa4azMVSs33jjTymq2oISaV013+HgCM0/x22V/wvU/tCnxbCwuTnUveAShUXIXBUUgj/odxDl+u4pmFc8QC6F3QIXCYIEJFFEhjBCZQiWe8If9h6Hv3fXqUqUvSbSrV67do0tb0X3OUQCBcBN9/CRc5970IhAGmhpq5dh5421eyee9La9F+at55SPRWCLajUIlCFjH5sUzYv1PNfifdxhOZKHNUL9E4oylAAuvCTxeZbGTtblQPt5cT+T/npGZTf/qrkHR95JEOcimQv0OO72zgEHAJxQIACXuqmEKpAgYhaPJwUGJ/p0z8g8ZT0JqdyyalzC7emKg6P4z56hSPg5tsVPsBXwOvhuEWcgFYKKJ5Rb0bqPf+g3Em7jRdfyGqFFlydzH8/4I7Q/PcYX/F3oJiOolh6WNhGoPo/VH4o/iRqE7SQ8IpHxb2gQ+DKQwDyQkEvBa80nsUbyXpnrSO1SiGxuxwC8YWAm2/xhaT7nf8KASI1CHoggEF/L/ZEyIsn1uJv9/BfPYP73QgEHKFxM8Eh4BBwCDgEHAIOAYeAQ8Ah4BC4bBFwhOayHTr34A4Bh4BDwCHgEHAIOAQcAg4Bh4AjNG4OOAQcAg4Bh4BDwCHgEHAIOAQcApctAo7QXLZD5x7cIeAQcAg4BBwCDgGHgEPAIeAQcITGzQGHgEPAIeAQcAg4BBwCDgGHgEPgskXAEZrLdujcgzsEHAIOAYeAQ8Ah4BBwCDgEHAKO0Lg54BBwCDgEHAIOAYeAQ8Ah4BBwCFy2CDhCc9kOnXtwh4BDwCHgEHAIOAQcAg4Bh4BDwBEaNwccAg4Bh4BDwCHgEHAIOAQcAg6ByxYBR2gu26FzD+4QcAg4BBwCDgGHgEPAIeAQcAg4QuPmgEPAIeAQcAg4BBwCDgGHgEPAIXDZIuAIzWU7dO7BHQIOAYeAQ8Ah4BBwCDgEHAIOAUdo3BxwCDgEHAIOAYeAQ8Ah4BBwCDgELlsEHKG5bIfOPbhDwCHgEHAIOAQcAg4Bh4BDwCHgCI2bAw4Bh4BDwCHgEHAIOAQcAg4Bh8Bli4AjNJft0LkHdwg4BBwCDgGHgEPAIeAQcAg4BByhcXPAIeAQcAg4BBwCDgGHgEPAIeAQuGwRcITmsh069+AOAYeAQ8Ah4BBwCDgEHAIOAYeAIzRuDjgEHAIOAYeAQ8Ah4BBwCDgEHAKXLQKO0Fy2Q+ce3CHgEHAIOAQcAg4Bh4BDwCHgEHCE5gLNgd59B5sbkyY1+fPnNbfddusFuqu7zYVCYNq0mWbzlm2m4Ft5zd13p7tQt3X3iQaBkydPmg8/XGB+Xr/BFC9W2Nx1150OqwuIwNJlX5ovv/ja5Mz5ssmUKaNJmDDBBby7u5VDwCHgEHAIXG0IxBuh2b17txk2fJxZt269qVunmnnyyYyXHJYnTpw0o0ZNMN99/4O5JpqnO3r0qKldq0q8P/8zWXOYm2++2XTt3No88cRjIbE5dOiwad6ivbnzzjv0PJVNokSJzPyPPzHT3vvAlClVzGR/+UVzTXQvEfLXr8wP7N27z3z00UKzTkbsjh1/25dMmfImc/9995iXsz1vHnjgvv/sxStWrm1WrfrB9OjW3mTP/pIbm/8M6dj9MOu4RcuO5pNPl2hMOphXX31ZY+IWTOzQO/9P9e4z2IwbN9lUqlTGVNY/7F/ucgg4BBwCDgGHwH+FwHkRmjNnzpiDBw+ahQs/M1Omv29+3/Sn2bNnr+ndq5N5843cl5wBceDAP6Ze/eZmxcpV5oYbrjfXXZfY6BWiXIcPHzadO7Yyr732Srxi/kCGzOaWW242/ft2Mc8881TI38Y4hwRhhE+ZNNIkTpzItG7bxUwXoalRraJpUL/GJYdvyJf6jz5w7NgxM2fux2bGjDlm8+Yt5uTJU+a0HVj+ucZcmzChuTXVLSZP7pym6NsFTIoUKeIdu7ffKWdWrPjODBrY097HGc//0WDH8mePHDli6mqtfzT/E9O/T1dFRl+/oGPCnNy3b7/2mCQmefJkJkGCqytC0bFTTzNy1HhTpXI5U79ede1fiWM5cu5jDgGHgEPAIeAQiDsCYROa06dPmx9+WGvGTZhqvvnmO5Ms6fXm8JGj1qDs3bPTBTcgYvPqGBh16jY138jwLFwon3lFUY5TGL4+UnPy1AnzzNNPKZqSMjY/GevPxJXQEKFp2aqjueOO203NGpWsh3PO3PmK0nxqChXMZ15VKoczmo05duy45uAUM3bsFANhffyxh2wE7PbUt1lSs/Pv3Wb16jXm2+9Wm+Q33mjeKpDXGljx7TF2hCbWS+GCfNAjNKyXfr27XPD96PPPl5sOnXuY55/Laho3rGWSJElyQd77UrlJBKGZIEJT1hGaS2VQ3HM4BBwCDoErGIGwCQ0eyDZtu5rvZSzmzJHNZJIROW7CNLNkyeemX58Lb0DEZow8QvP1N98qwlFTqVvv+LnM2Z84I6/qdbH5uTh9Jq6EBsK4RTUZRGZSpbrVkpd//vlHEbB9NtJz443J4nT/K/XDGKzde/RTitkuEb03zdtF8pvbRGaSnI2+HT9+3Ozc+bf5eMFiM+jdEeZWpf317dvZPJv1mXiFxBGaeIXzvH/sYhOaDz6YZ2rUbmRyKdLbv29Xk1T1c1fT5QjN1TTa7l0dAg4Bh8DFRyBsQkPR7Rdffm1TCahRwPBu3LTtRUvxiA2UfkLTuGFtU65ciQsW5YgroYnN+1ztn9m//4Bp2bqzWbx4qcmQ4X7TV554IloJlWLmvyCH27btUE1Fe83ZFaqnecEMG9onXsfeEZpLazZebEIzVymQ1Ws1NLlz5TAD+nX7T5wklxbiUZ/GEZpLeXTcszkEHAIOgSsPgbAJDfUzeL8TJrzWXHttQhOZs67C9f69L3zOemyGJhxCc/DgIfPZ0i/Mks++ML/99rtJnOhac9/998rDn1ne1xx692tjc2sTjNBQuDxl6gyzYOFi5dmnMJ07tTQ3q4idi/Sp5ctXmmVffGU2bPjNnJFRnjTpDVIMety8kj2befDB+6MY7tT+NBGhTH37baZWjcoSZ9hgZs3+UHVNf5hTp0+ZpzNnMnlfz6XvPRDle6t/+NH06j3IZHz8EVO1Snm95+dm/vxPFfHYqTSZ62y9T9GiBU2qW2+J8p4R9VOHzFfLvzFffPGN+emnnxXtOiMFt1TmheeymDx5XrUF+d4V7vPFBO66db+Y2nWbmT///Mu0b9dU0Zm3oiUpkJoPZn1oWrTuZOsZvvz8Y2F+o/158Cffv9g7hcxTTz2h9LXJZrXSKW9Kkdw0bFjTZEj/gGqtzpjde/aYj+cv0juvsFEfomREJ994I5epWLmOUi+/jVJDwzv3FLbffvu9eX/6WPOr5s97qoFa8+M6pTmeMffck87ky5fHZNY9A1PgeF7G/WOtp+/1LAf/OWiu03g8+uhD5o0g4zhB0VHqRVo0b2COaV1Omvye+fXXTSZdurtMx/bNYxUh2LZ9p5k+fabS9HaZ9es3mmsSXGPnXerUqU2WZ560tUFEB/2pjkOHjhZ+Syz+N910k9IiPzJLl36lOXfa3KbI4uuvv2oFGa6//vooQ0mE9zulAX788SLz8y8b7X1Q6vB++9Sp0+bhhzPYdC0vusF+A5afaS3+qPl29OgxO0asiTfy5rJKZl6tSihCY+fuVyvMZ8u+MBs3brL3v/mWlObFF561URXe03/t3r1X77nILJN6F/+dLNUEipryvMz7azSnyirie/31SSSOMtbs0mf++muz5siNJm1aKazpC8luTGoaNahtHnoofYx7RhvVyoE/CmHl5XTx199s3Pib6dSlt573jGnerJ5Jn/7+KL9FWuqUKTNMmjSpTY/u7SPxjMv7btKe0aBRK5NdxB+nz7jxUxV5X2rnaMUKpU02jSfvTf3k0qVfCsMvzSbVT7JfZNF+wTp6d8ioaGtoWBd8D4fYb7/9YY6fOK594zbzbBbtqblf0V7zrwpkuPtTrDZl9yGHgEPAIeAQuGIQCJvQBCIQyoC4FBDzExqU2EoUL3xWFEAmiQwODmnEAjySckgH76DBI8y8eQvMrTpkb731ZmvEEBnYq3qcoe/2lhH1v1i9WjBCM278FDNs2BhzQkXslSuWNqVKFbURL1LNBr870iB9itwp90af6YBSziA6GFsYFvnezB1p7Ow/cMDkL1DCSkJjIM/76BMVvyc3N8jA2qroBMbHQw9lMK1bNrJCA57huFiGSv0GLe3fHnn4IcP/9ormt2/fYY3jrDJSOnZoaX/vX4JyxPTvP8TMX7DI1hvdqmdKkCChjL3dut9280TGx2zu/H2K3nGF+3wxgfuZjKJatRtbw3b5FwusQRrTtUrqdrXrNDXbZbiPGzPYPPtsRNrZmDGTTFelrb0lSW2MrS+/+tpisHfvftO1S2uRluzm7127TNeufUTelotYJDFpbk8t8YGT5m8Z/88/n8X8sGadSOTPZuCAHpGiAMw3nu9LGc5dO7cxEyZNs4IFSTXHDh46ZLZu3WEjSq1bNjRZsz4d5dEXfrLYDBk6RuN9QMbp7ar/SWb+kRH+xx9/qV7tBlOxYhkrvOHJ4Xbo2MO89/5sU6FCKRn8n+tzm+147dy5yyxZNEdzJnRN2CeffmaV9SAiiTQPE4m8owzIO3K9rJqz+nWrRakva9ykjZk5a67qvCoq/XStImHbLdGjtmnLlq0mWbJkplqVcpYU+4nQGJHG8ap9wki+9567LZn59dffVYO3WZ9LYB4SmXlYc7JRg1r6jaSWUI4XaZsoDBPrO6lEnDGgD2gtbvr9D5Mu7V2mZs0qJquM4gQiYjHtRxj3/QcMNZ8uWqr1cX2EpLPuz7zgXanBalCvhuS309r33rVrt2nfoafe7wdbm0UKKL//kwg1Iij/uzONHAmpTamSRc11wm3U6PFmj+YORDt58uTmTo0xsncQMwjaI488GOM87dV7oBmifeHZLE+b3r072bXlXZNFVLv16G9Oy0lRX89YpnSxSFwhfKQBz5g51xQrVtC0adXkLPGI2/tCNIsULWeyvfScJUyM7w033GBTXkuVLGaqVytnnVkDBg3X3rhQ//2E3jG1Xf+Q4fvl8Ekogvfpos9MJc1TvyjAHomdDBfhmyc1QubnHZrbCeUQI4K6U06UzHK8IHji7avh7k+x2pTdhxwCDgGHgEPgikHgqiQ0K+XlfezRh62xjaEUoQlwxpyU8VZSRgnRCq51P6+3EQCMpt69OlvDhU//LSNx42+bTG5FaPxRiJhmhUdo+vXpbLLI6Ppg9jzTt98QCSkcMQ1Vz4Onn9/CSEZu9lMZl7cqKlJBxOX+++62MsCQqA9mf2Q++WSJNbbatG5iIy9ckJ2ChUpbssW7ED1COAAjH2KCjOrvv/9pqlYtbw1MT3VokdK1mjRtZ4kREaACUoMiKoNh9tPPv5ihQ0dZtaYWzRqYt9/+NwIyVZGlzjLwHxWOFSuUNPfQe0UPuVNyyWMl17rs86/Uk+VN00gRDgy5cJ8vOkxPy0P93vsfWAM8bdr/mU8WzAqpJLVB3m1EIYi0QeyKqT8JRvaYMRNN954DZDjeYq5NlND2Lbn/vntllO618t13p0srgjlC5HaUZLRvVySrnLnv3nss2Vspxbxp02dZ3DH4+iu9yFM58wj0ShmIGML333+PRAnesP8dcjJh4jQ7zi+8kNWMHjkw0jDFC48a367deyxxhewkS3aDOXL4iFn+9UrTp++79p0hSZ5x3LFTDzN5ykxLXIiGlC1TzNwuI5uxRwghNkXpRJAgc3foe0RbIPbMR/rrtG7bWUQisRnYv5udv95FVHCuCH8qkX2ic0UVJbv33rvldT9hFqhuacLEqcLvLjN+3LDI/ktEAMqWr2FOnTpliRDvp1iHxmWT6a13Y3yaNK5jC+qZ55C2r79ZaRo2aiPD+jpTW8QFQzux6qTAnfsQFcnxykumbZumiiilipHQDFb0YMzoiYpepTVVqpS148L9IWMTJk83X335jaIQL5hePTrYMcGpMXzEOPPYY4+YWjUrmdR6T3Bh7IaNGGvXbR/tD7crKoLDY/PmrQZRgJ69B9h3qyMZeOrywJMeRYxlTBfj/2aBYua2W1OZAQO6SegiYj8C05atOqm/zseWtGV/+SVFdVtZwsf155+bpezWQmItP1rC/pwipVxxfV+iYMVLVrZzCZLypiKQmTM/YSOyaUUc2R+Rw27RsoN1BNWpXVXOkAiSRlQRkQ7IIeuhfLmSkYTmzJnTwmucdSAwV2rXrmLJLO+yVXMMIvaxHCQF5Fho17apxT7c/emKOaHdizgEHAIOAYdArBC4KgnNt+oXgpRvAl+zNw7mkzIYUGgj1QMCgQxvDXnYU8jLOnfOFGvkc2HMEBXAcIxtwzgIDZGMEcP6Kp3kV2sIEbVoULe6Tc/yivxRjGvQqKUiBUdM86Z1Ta5cOa0xyvPg3cfoqqlnwlNfpHB+00qGOQe/RxgwFjG6ihQpYNPEqCfByz55yvvyMnc3L730vBk8sHtkGg8e0CZN21vjsnr1Cib/m3ms5xQv+SFFEdrIkCWl6AWl4hCR4l6kC+V5/W1DBAvDI/vLL0TWCIDNX39tMa/mKqi6lgckENFJBuN9YT9fdLOY+wwcNMIMGDjMZMz4iFK6xoWsicFgh9BgMPprqDCw8Hojr4txlidPTnnubxAmJy3xA5scrxZQ9GmPadaknilY8A079pBhImZrfvxJkZgmwuuwGSCDP5DQrJCB+JwM26ZN6pr//e8OG5XgNxdLQKNV644yvo+aRZ/Mkec/Iq2vncaJ1LRXX81uWrZoaNOqIJzcDwO+Tr1mtudNjeoVbY8PxoSahbGK+N0pj3cnGbkZH3/URljACe96bBTxmCfHjh21z8e8selUNrX0hGnSTMRFdSE9lcZUUOIL3u9BaD4Uofnf/+403bu2EZm5x85Xvrd27TrTSBEcUq+GDukjj//z9v3el7x28xYd7Lzppu8QDeMiBbN7jwEiiDNFngtYEu3VQ1WuWs+mKbEmChXKbyOpPAOpaUQFS5apavYozWuQImRZsjwVLaFBhZHfwuBu06qx1lcOG+nhOqH1jzGPEwMCMnrkABttKFCwpF1vkCyEJ7z0QAhY/YatlEq4yUybPNqmc3KRLjhnznxTu15Tm77Wu2dHOwZcjGOosWDMCr9dxqaNsr6KFC5g95ntimAwz5B03yuyTSpgfwlcsL64vhbZrVGriZ49kfn4o/dsdCyc9/UIDbL2RI1Ly8mT4qYU5rSwJprCPli+Yi0bCSxZoqj6jlWN3L/YF0nha9q8rf3PiooYehEa9oWGSmUjUjr03T4iXM9E7hsW++9+MM30PYjTvLnT7XoIZ3+K1cnnPuQQcAg4BBwCVxQCVyWhQba5lA7iHDmzRTbYtFEaGWGkY3mSzTQJrVOvua0nKVHibRkW+axnMelZ4yQuMwFCwwGNsUv04tChI6p3qKec/eeiKJa9O2S0GTpstJ7hJjPz/QlR0rwiHvGMogn9rZfzmaefNP2koHSTjA2P0KxXU8llS+fZFBy/4YRR+fyLuWV0ZTDTp46KNCI9gwFDa8zoQaoXuT/K91AGG66GqaTbLfx4pv3b8q9XmDJla9hC/Pbtmin9Sik1Ua4zplSZatb4HiQPc+bMT4b9fNFhjNFHSlafvoPlOX9YWI0PaSj6CQ3EpHTpd85GaCA0fW3Urp96lqQhRch3IU9epGhZ653upz5CDz2YPsq9eJaChUubNWvWRqmh8ac41q5Z2UbH/PUQ61U74kWMpk0ZbVOd+K3X3yhqU58gLHjHbT6U7xozdqIZI5lqoml46D1Cg0wu9QutlMIWWLMSl7l6RMTiqEjWSZEuaksg+/36v2tJMdGRGoqqeBE+CA11G0Q0iN74BRlI1eL9kMxu0ay+jX7yrNQoEd3Lq/oa6jy87zC3u3TrZyZils0UAAAgAElEQVQprSx37hy2SWmEut9BO3dvEvFp36650iMhDn5M+F5fg7LYu4N7WRIBOaIPTaBsM6l8RECJlowfM0R1LVHVAkmlKlaikiXtPbq3swISr+TMJ+J6UGmXLexve+tq69ZtpladJla+/r1pY0Ss/22YO1uR1Fp1m5jXREpRffQITWzHYaDSuXr2GmjJYyele0K6SAWrVqOhauhe0no6oJTUr8wArf+XRQwhyCNGjNfe0M+UK1vCEmGeM5z3jSA0lWzaVy+Rsce1vvx7CXM001PZ7DMxRl5NjfdujGNzRW+o5fHLNlMTiDOGOqOJ44edI5RARLR1m85K7fvRTD+7HsLZn2KLsfucQ8Ah4BBwCFw5CFyVhAbZ5qaN65oySsuJyVtKnvzUabOU2jTL1juQovJ05ow2lQPjEwMrtheEJmXKFJZ8bN26XcQiveotutv0I/9FGscsGWZERIbIOAv2fDSRbNS4lcjXvTKwuyltI10kYfhZaWKrVy07p6gZr+7jT7xgCduM98dFPrtnMGBUTp44PLJuwHumESqWHzx4pE1rWbJork0PmaDeQxQm4yW/OaXSUnyRLu97m1U/cV3i6+w7kMLmEa64Pl90+GI0kX7XoGFLkzzFjWbl14vOUTcL/C6F1rVlZBLFGiIPcfbsL1qzOCJC08+m70EQA9MIp0//wLRq08karP37dbUpR4FX0WLlzxEF8BOaJo3qmLJli0cZT49g/SJig4H3tAjqli3bLXkiOkakDOMv8Nq//x9LeIgWdOva1kdoxlthh3qqcwmnkeEJGaqrVq226VJrf1pvdouQ0FuK6CDklHoRfwoRz+URGhrR9lFDXf98jU6Eg/VXsXJtc0+6dKZ9+2a23oqLSEfrNl0lhkHNUWtTWBFIfm/Nmp9MIUUskioqllKy24mUFhh47d61x+yQUAORIJwG0RGaMWMnqX5mmI2iRKw9L+U04hdJPftd0RiiWwM01tQN1WvQXGmen9n+T7VrVbYOD76PCAO1S0SJFn36gblRERHvOl9Cg2OiYJEyJqVS/2bNHG//c9Kk6aapIlvjRr+r6C49tZrZiCLPBKGpWqOB+VwkZ8qkUZpLEamo4byvR2iITrEeULH0X79s+NXkFekmHZD1AMEPvII11iSdjAhTUvUsSy0RgEDswZQUyYOKdL43dYwV6Ahnf4puz3D/3iHgEHAIOASuXASuWkITW9lmiMBaKSqRCrZi5XdWqeoWGVUYDDWqlbdpH7G5HkifWd3qb7Ye9AkTp1tPfbFihUwVpQz56xsosp6rHPncMsq8HP7A38eQwvuMoUGPC2qB/ITh+++W2vob/4Ux+sSTL0USGtLouGJrMJASt1jF5dQIjBw5XvUBA616U948ucx115/btyehcu+vF+HJ+Uo2W9MQ7vPFhC3qc7VqN5XxesTM+3D6OYaX/7sQoMWLlylFqKVN8fpsydxIMhmK0IwSqeshb3mmTBmFd5dzsOU+wWSbQ6nq+QnNpAnDbUE09SMlSlWxEYLXXst+tjYpKgoJlA4IsYQUP3+2TuJ8ZXIxJhFZGDhomK0BwZh8QAatjSyI0Hy25AvVsXyrIu/SUYq8bQ2N5itpmn17d44VoUF4IW++YqpF22kxpUYE0kQqIM8ADqRpUXzPhXpcqbJVJVaQSlGd10Rq/lXP85CxqVz6HzwHNU/RiQKQ6vnuu6POKnaVOseo5vdIR7322kS2Bg3Rho/mLzR167WwToLnlSaFkuBxjQ97AlE2elpVKF8yyrufL6Eh7apqtXpWUAKJ8ZdefE5OjNZmieb8wvkzzBHN+Xz5S2jt323Gjx1qa9fyFyxh7pZzY+yoQZGkPJz3DUVoeO9SZSLqXyA86dNHpLz5r2DzEaGSmpKypsaKNLqAwKP9n9TssMe8KcETxj+c/Sk2+7H7jEPAIeAQcAhcWQg4QoMlFeIiDYVaib/Vdf4nKVlRlI1HlHQKv8pQTD/jEZpePTraCE1z9UShaBtFH4w0T1mtZauONkKD6ti0KaOCRmhGq4i9W/f+8mw/YovQSYMLlzCEYzBQM0FkBIOawvQ0UjgKdmF4E8Uh+hPu88WEaUTEpanqG/606l6IK0QXcWMM8aZPnTbTGtETxw+NxDwUoaHPDak+1ARBIJFCDrzii9Aclnf6tTyFrdpa3TpVTP58ec8x/Lx7U8vgkeHzJTQQgMYSh/ho/gJTsVxpU0jplUSqiFRw9RKhQ74XQQS/alU4hGblt6tMpcp1rSFM5G/t2vU2lRK5XpS13njjNYu1l55HyucLL70ucpHadEEIgQL0IMuWfwUBYy1FR2hmzJxjOnXubdOdJk8aoYjpv8p9/jElUoNIBnO3SbN2Eh741LyiIvx1ipxQS8X1yCMZTD4pzVGX5qWper9xvoSG/QUFRGq7qJUj1S7HawXMfffcrehiLytkUl1zkjSuD2ZNkmz6OqtWSAStaZM6kelc4bxvKEJDtC7zM9nt/sV6QDY78OrUuZcVUvDPFxwQNWs1tnvCxx+9b2XBg11+7MPZn0Lt5+7vDgGHgEPAIXDlIRDvhIboQX/VIeRXfn8w4/KUCtv37d8nQnDGptRQeHqhrlAec/9zYGBhFFE/gGHDFfHvKFzuL8N4hlXj8WoYQr2DX7b5YRlk70o9bNSoifKwpjPdurSLVKsaN36yCNMQe+gPH9rP9uLwX3juq1ZvYL3WKGa1ad3YepvDJQzhGAy/SyaXOg+UsHr1aB8pfxyIAUaZVx8R7vPFhCtF+I2atLbF4pC6bl3a2MiCv06F71NwTH+dVmrCSaSqv9L0cuX6txYiFKFBPSqXSAZRKmo+MLq9izlBr4xqGpMd8pKTRhgoCkBkI1hEMFiEhglXTPULpFnlV4+adm2bBe11RJoT64tIDdf5EhrG521J9a5d+7PSp2bbaJe3fhnH1m26SDJ5erwQmjbtutp6l8aNats6MKR8sdCZ87cr+gE58I8h98+uOpbdu/Zqvjey3v1gewtRJv49/0RHaFZ9rzqU6o2sQwJBApTCgvk0qBOBGCHCUbxkFc0h9fZRFG3f/v2qLzpmCRXPeecdaWwtSeDzfPjhAlOtZgOpF76sOrLuYdU0QQDqSbWM3++uWpVSpSurrqqyUswq6X4JrLJbd6VK0nto9eo1VmQChwlz28Mvru/LXApFaPjMi9let5LgbVr9qxborQkwqyHislq1MP6I3o/qv0TN0fbt26XCNsSmWAa7/PtGOPtTqL3Y/d0h4BBwCDgErjwEzovQcOhjVGIQkLPeomUn26Swe7d2tkM2F0YBBcqe4fXLL7/KQ9rT5knjVc+jz4VS/Ykv2GPqQ+PdAzlg6lx4N7z561ST8rYMKNSpMM7xzlLQ/KWawr1TNKIAOzbPH9iHhhqIDlKmQoIZGdwO8sByD9SUKlSqbXPJUWAqVfJtFfintfjt3bfPFjlT/AsRpGj5uWcjpFnDJQzhGAwQBOoK5s37xLwuRTD6b5BGgtcbo5I0PYwaoloUMCOvG+7zxTT2kAma+lHkvXePaoRUvGwll0mVEglFlYlCY4y9aaqF+lPCCHnzvibJ5saRTTX5/VCEhvctV6Gm9Ya/9urL6sNR0comM+cpYKaJIE0so1M5ixOh0fPgVW/ZqrNN1atWtZyaFUbUX3EhJsHcITqVVc1dbQ+VeCA0/6hPUWkJOXwnpaluXVtbssx40kRy2edfmB49B1oDltSq843QUDA+a9Y8u0fkypXdpndxUYNCk15SuwKjYP0HDlXfo2G2dg1M6FHjNdzcL5KxXWQSQxmRDdZvdISGyBdRgq80ls89+7SVxUa2mfVEM9B96h9DLQ4S50UlU847o3LGHKhZg0L5CLxJi0opQoP6GHLuKVVL5r+oi8r1emFzr2SaScsiPZP1kCLFTSLGETLLoS7q0Kg54bcg6qtWrTF9JfueXXU97LnLli2XaElTm0bK/KN/0ID+3e37eFdc35e9LDaEpkuXPmbEqHEmo8ajqerDWHOsR0j6iJHjpLj2rXX+0BjUmy/79h0wLVt3MIvU/4c9r0qlsjZdFuzpq4qzgd49h6TwyL7Cs4SzP4XC1f3dIeAQcAg4BK48BMImNHjRMMY/UfM0DJLTkrhFzeivv7ZaQwvPJc3fyHtH3QnvK9eSJcskS9zaGoOl1RSORnOxIQTxAT2Gtqe6dG4fmog7HNNzlSlT3Dyq5ncQmi70WnnkIZOWLuQytnYp7QyVNLyzvXt1NJmeODfdItiz3p/+KfWEuVnRq86RTRTxWDZVOguGNmpISDBjpM2Z85FqNvpLvvSwjdBQEwBGGOcoKpFuUkc9HPLne902BuRCArpQYaRe11tRgMAaGoiYv4bGEzSgz0PTZqhJJZAowDBLTPzXcBkn1Bz4RQH4O1EJOprTdyK9DKp7lct/3XVJzCkRQZ5z8+Zt1tBDJSl58hvDfr5Q447hiqw0RtRPqnVKJwPyrjvvEKG53pIrisXpo7J7zx6buoMClD/6wO+PVk8SlOOeUs8ZUvgC04f4DA01ScnaJ1L5tFTb7tC7YSwin8zcgLjjIR80sIeMsVfteHnzjflCOhwE3j/XMf5qy2O9QUXWniiAHUul9PToNcCKHqSUcU5E72alf3HRIBXjnTQsmp2+qB42XKTToXLmqUpBRuJyQeDBsGevQZoD6WxtTlKlg21TeiSEjLqxtUprqlCeGppqkSlN1HyRgviKesCQfuR/P//70yCz/Nk6k++//1EktL3ZJulkVMZsjEnG8I033qimpddZw/xx9TpBROF6SUBzIfnbXu/4pXrE3Pm/NOYhpaQlpQhf30PCmOaxpMf17N7BFqvblL2zKmd91SPmrbfeiHw2egexrtdo/T0qbO9RlDSxBCzY0zCqeWceau7sKVYqfQjRVM0R23RXTg2ua1SzA/Ei7Y86m3yKplHn4l2M4TvFK6gm6g/zohqv0giUZ4JAocoXmwsS1UqqX0R7IHq3S01wYH9q5u61XydyCDn7a8sW1fQcV/1QdtNFqnfeXuvdIy7v6yc0kI2+1MiIrARekCyio0jQP/7YQ7bW65TG4iftP1Qz0Sdo1gdzIxtres4OnqVz197mZxHyB/WZey2huc6SIYg6hOZ/Wr+jzvZlCnd/ig2+7jMOAYeAQ8AhcOUgEDah4bAdgsTw8DHWA4+VTZ0CRgEetwQ6+E+dOGUyqDfDyOH9rLHC9aN6U1SrXl9G2z82ulFYPSUuFKGht0v9Bi1s+hHPmFBGaOB1SCSCXiIUBFMz88GceZa44RHnwtjNmvUpq3gEKYqtmlSGh5+xhhp9MjDWuMAQI7itUnD47zTKpJ6GguAfJAFMPw6MP2RrufA8P/bog+ox85aNRtCF3LtoYldQhIbu7J8v/egcozxCFCCbrVt4f/qYSNlmJKRRS4KwvDdtnFK3oooJIBHcq/dg2xSR5pXeWNGb5Gc1Hv3k06UqXP5GBd2/WlJEeh5kKoPukyfPa7aImpS4cJ8vNksNQxFS8OmiZWa5GjD+ojoHDCSeh/F6IuOjNi2OLvJ3iGgH9g6aKJGGtu26yCjPJpLaKTLF0H9vCDgF2u/P+EBG9Qqb/08jTuYJ0srvzZit9TBGaYJ9reQwOBGVwuBENQwxgbx5c0WZ65sUBahRq5FZJ0WxWTMnRjZ05b4U5uMpp+AeIxFvNzVJqTQOEKinnsooSd98kV3ku3bva9Xo6HVDd3av9iU2+HmfITIxQz1iUNHbvmOHyMT1lpQSKcSgphdN/bo1LJn25j2qfDQWhSg2a1ovyvt57//FF1+r4WUT9Sx52/6dPiSVKtdRo85EVvwCco3WGHNkvSK469b9YpJpHlVSjVpxiWjwHfYV1OlIw8LI3bBhkzlx8oQIxrVqdppGUcw7lQr4gn1W5iBEl5qSDz9aYFXBkDb2LtYaansLpVzG2Pz+5582tTSJCDkd79PdfZcixzlNDqWLEQlpobo2amIgeq9kj5B6hyxvVURojRwMuxTFukfF+J07trSRCi6elwJ+6mDYO4ju0pizZYv6tmlrbK8FUgajhof3oW8P89OT5Ga/bdO2q4jDh3aNkXr2tvpPBe6ncX1fiF7+AsXtPjVQ+xVzIPDiN3GuvK95v0hiG0dFqJKLYL6kdEyie38I0+o1GtkaQf98IWWWtTr/40U2yv2X5jny4Ncq0vWA+uncfruas75dMLJ5a7j7U2zxdZ9zCDgEHAIOgSsDgbAJDQYjKRFb5P0m/SLY5dWfPPRQ+shaCgwzJEnxCBMNCOYN/6+gxQj59dffrUc3uovaBPqr8Fw8/wFFPrYp/QuPK1cSeRPpJ0NBbGCtRkzPjZceA470EK8mh89jqKCUdEIEgTSm1GdlnDGItqjPBalUdKTnYRLr3njqMcoxMP0Xn/9R9Q8n9FnScjyRAe8z4L1y5fdSHktii6q9v/NeG6Quxe8RiQr8Hs38/pInGNJKs0b/5aWX/S15Xw8fvk/OP/VRFHl7NVLhPl9s54L3LESiiFadUeog1ijjRXE73nQkkIOR550y5DGWGXO80tGNKwbkNkUCdsqTzPzn3YhE8tt/qWHjFkWlvLnjGbUYb/uEMf19AuWgaULI30lVw2vvnxfMPUgUqYdEOhg/+z6KWGDs86wRDVAj1h5RPtYi0TzqUMJxEhD526d7IVpxULLR4MC97pTH/KQisBCNtOpNQmqk9/vgBn58hn8fOCe998eDTwodtShVqtY33ymyValiKdskk3XBhZF8QOR98OAR6hi/WIQimyIu7SKjQV4jU+7HfCNFjL2H9MJkimxCpL2GmxFrfZNNEUVgA6zOnbv7NZZ/RzgMBDhOmKSKwtCQkmeFtH0lst5MUslEavr16yKp6bSRPwOR3r79b1sXwrO3Vj3JmxIJ8LBhfBmX/fv226gqxC1duv+d038lpjnOsxENYf3cfIvmpxqX+seWFFWIKDjEtJ9GrI/Q78uz0DCXGi5wSC9p+OicNjwTkUL2CJqyJtLaZ19k/jHniRYHzhd+n3FkXNg3cN7Q64h3IpKLqAMRL6/27nz2p9juHe5zDgGHgEPAIXD5IxA2obn8X929gUPAIXChEdiwYaNtygoZGTdmsFUzC7w6S4Vs/MRpVnyhj1I0vbSzC/2s3I8GlxTf00uJnkqBhB+DPE/eItYwb9G8vo3chkMmL8a7uXs6BBwCDgGHgEPgSkHAEZorZSTdezgELgMEqJEgNRIvfSXVk6AUeHuaiOayh0QKqNdBFv23Tb/bYvKySmVLqEjRxbqGKGWMiBFiAKiyvfB81sjowSap/SHSMVyEJ1myG83oUQMVQbn7Yj2qu69DwCHgEHAIOASuWgQcoblqh969uEPgwiNwTLUW7w4daYUmSJ286393Rhaxk7ZFOhliCQVVxF+rVhV1lE914R/Sd0fECGqp19FvSl9DbOB2pYR6KYnUCPF3IjK1a1W2Ih3UsrjLIeAQcAg4BBwCDoELi4AjNBcWb3c3h8BVj8Au1U58JbWypRKk2Kj6Lep1uJLekNQW1b/4YlYpyWUyadLcftHTt4gk/ayav4ULF6kIfp3Zsm2bOSniheAE5IaaKaTAUc6j5sRdDgGHgEPAIeAQcAhceAQcobnwmLs7OgSuegSOqWAecQVkqCm4R+WM+hR60aSSGiDCEpfSRRE7he622S6CE7oQaEieHAGBiJQ5dzkEHAIOAYeAQ8AhcHEQcITm4uDu7uoQcAg4BBwCDgGHgEPAIeAQcAjEAwKO0MQDiO4nHAIOAYeAQ8Ah4BBwCDgEHAIOgYuDgCM0Fwd3d1eHgEPAIeAQcAg4BBwCDgGHgEMgHhBwhCYeQHQ/4RBwCDgEHAIOAYeAQ8Ah4BBwCFwcBByhuTi4u7s6BBwCDgGHgEPAIeAQcAg4BBwC8YCAIzTxAKL7CYeAQ8Ah4BBwCDgEHAIOAYeAQ+DiIHDNqVOnIjRI3eUQcAg4BBwCDgGHgEPAIeAQcAg4BC4zBK45ffpsU4XL7MHd4zoEHAIOAYeAQ8Ah4BBwCDgEHAIOAZdy5uaAQ8Ah4BBwCDgEHAIOAYeAQ8AhcNki4AjNZTt07sEdAg4Bh4BDwCHgEHAIOAQcAg4BR2jcHHAIOAQcAg4Bh4BDwCHgEHAIOAQuWwQcoblsh849uEPAIeAQcAg4BBwCDgGHgEPAIeAIjZsDDgGHgEPAIeAQcAg4BBwCDgGHwGWLgCM0l+3QuQd3CDgEHAIOAYeAQ8Ah4BBwCDgEHKFxc8Ah4BBwCDgEHAIOAYeAQ8Ah4BC4bBFwhOayHTr34A4Bh4BDwCHgEHAIOAQcAg4Bh4AjNG4OOAQcAg4Bh4BDwCHgEHAIOAQcApctAo7QXLZD5x7cIeAQcAg4BBwCDgGHgEPAIeAQcITGzQGHgEPAIeAQcAg4BBwCDgGHgEPgskXAEZqLNHRnzpwxhw8f0d2vMddfn8QkSHDNRXoSd9urAQE3366GUXbveKkgwHo7duy4OX7iuEl+442XymO553AIOAQcAlcsAvFGaHbs3GmOawNPmTKlSZYs6SULGIfMrl279XxnzG23pTKJEiWK9bMePHjY7N27xyROfJ1JnTpVrL8X7INHjhw1/QYM1e/tM61aNLykMTuvF43Fl0+ePGm2bdthrrkmKqlLkiSJufXWm2PxCxf/IxgwBw8eNP/onzvSpLn4DxTwBOHON+bniRMn7Frh4j23bdtuUqRIYZImveGSe8+L8UC7d++V8XrUpElz+zlz+GI8j3dPxmrXrj0as9OR43cxn+di3ps9ZuvW7XZ8UiS/0SRPkfw/fZzjx4+biZPeM9+vXmOqVS1vHszwwH96v8vxx8Fo29YdJt3dd12Oj++e2SHgELjEEDgvQoOBP//jhWbRomXm4KGD5tSp0yZhwoQmQ4b7TZFCBUz69PddUq/LodZ/4HDz7cpV9rnSprvL1KpRydxxx+0hn/OXX341nbr0ssYdhkLdOlVNlmcyh/xedB848M8/pniJSubXXzeZz5fON7fckjLs37rcvzh69ESz4JPFilIljPIqRK1uvjmleejBB0yhgvlNqlS3XLKveuTIEdOuXTez8bdNpmyZ4ibv669dUsZtOPNt586/TZ++75pNm3433bq1N+nS/s/MnDXXzJg5166Zrp3bXFLveDEmx959+0zz5h0skc2b9zXzztsFLxlMNv76m+nde5CcJvtN3brnt19dDGzP957s0yu018/9cIHZsnmLOXr0GAFxk+jaRHa/zfVadpM9+0txcmrF9pnYDxo3bWsWLlxs+vTqZHLnznnJzIvYvsN/+TnIzLDhY83ixctM9pdfNDVqVHT4/JeAu992CFwFCIRNaA4fPmyaNG1nfljzo4z8k/ZQOH36tPVSJ06c2Nx11/9M86Z1TaZMGS+ZjerAgX9MnXrN7CGXMEECm+bVulUTkz9fHv33BNEONwdji5Ydzew5H1nCBqlp1qSuKVmyaNjvhoFZsFBp8/PPv5jvv1uqSMSla6z/1+ugYePW5qP5n5hk8vjfdFOKiNudMUrXOGE4+LjuvPMOEYVi5tWcL8eLAYJXffnXK81jjz6kuXpn2OPoYfMPBLVkZbNx42+mVq3KplqV8uf9m/GJezjz7fc//jL1G7Qwv/yy0UycMNxkfPwR06NnfzNl6kwbofxwztRL6h3jE6/Y/taWrdtMyVJVzP79B0yRIvlN08Z1LxlMVq36wdTT+O3Zs8d0aN/S5Hsz9yXzbLHFN9zP7du334wcNc588ulnilLtNddem9AkTpTY/hz7yrFjxxRlvNE8/1xWU1vr1YtAhnu/wO9BaOrWb273tf59upr8+V+/arCPDYbg07R5O7NgwWKT45WXzID+3R0+sQHOfcYh4BCIFoGwCQ0HRoGCpcyTmR4zmTNnMmlS32aOKp3rq69XmLlzP7aGaK5cOUybVo1NcoX4L4WLZ65Tt6klNBkff/T/7F0FeJTHFr3FC7RIoVCguBQt7m7F3d3d3d3drbi7FGiBFtfi7u5FiwSXd84Nf9hsstlkSUjom+nX9yi7+/8zZ+yeq3Lg4BEIyLlk+LB+QvcmR+0KBLvyFWtJ2LBh9WK8fv2mdGjXQmrXruryIeyKgBkUMAyIPlDoWr9+o+TKlU2aNKqrWlS2589eyLnzF2TL1h2ybdsuiRcvjjRtUg/WjwJerDl+7deESdNk1qyFSpLq1qkOEu5710Pv3sX1vmTJSrl246YULVxQUqZM5tcuBej3XVlvtDqsXLlWaKmpU7s63Ekj6N7Ztn2XxIR7VcWKQccaEaDg+fDwFy9eyJw5i2ChcZPs2TNLxgxpA6srXt77zz93df7cnrlJubIlJHbs/w/Xnmdw5x0xfKwsW7FaQocOJblz5ZDUqVNKtA9uk1zPh48cl81btomb2wsVqHv36gSC439uaBahWYdzbfSIgYbQ2K1Oekv89dcW3MFHJWvWDDpHdh7HQWYfmY4YBAwCXwYCLhMaCnBbtu5Sd6AIEb+VMKFDq4Xm3v0HMmTIaNWMUfM9ZvQgSZI4aPgPW4Tm770H1C2IgvLt23dk4fyp8tNPiR3O2MBBo+APvVgKgaBRSNi3/6AhNP64vi1CU6zoLzJ4UC8PkkgXRjc3N52jGbPmy6JFy+HGmFCmTBrxycJZn35D5Ve4PDRpXFc6tG+hlrdPabTiPX78WF6+ei0RIRjRShmUmiuE5h3GRMsDhY/vIkdWi+YLaLafwNIZGvs9qCgqAhvnBw8eqrvtN9+Eh2IkdGB3x+P9b9++1fnjuRwpUsRPXuNBZmBOOjJ/4XIZOWKcugY3aFhLihQqoGSF5IaNcZTcq3+s2yiTp8yE8u21tGnTRGp8gsXdvkuG0DhfLU+hBHBze4ZzJDwS43zt/AfmGwYBg4BBwAcEXCY0vCx4EViXhO07Jk6aLmMQ8B4xYkQZM2qgZAgiWktbQtO6ZWPE/TyTceN/lQb1a0onuJDZB6VzTGW7P3wAACAASURBVHfu3JPqNRvBbeOh9OzRQZYvXy27du91SmiOHDmBX79Xq4J3gp93AiYv2suXr8DX+5X8/HNyb6eNrhKMuwmDCyA+nk1ief78Je170qReSRnd486du6hCTVRoKKN9H8Xb59KtiG53cRBXRPfBM/jv9+/eS1wEbHpnvaKVipiECxdOEiSI+0mbjIRmw4ZNUqRwARkyuLeXeeBau4g4jg4de8rRoyekebMG+q/9fNHt69KlqzoO/pswYTwvxOL2P3e037Nmzpcly36TShVLS0XEPfD7YcN+DaIUy1uXNmfjtYLlH8IKyABgRwTJt/NxFBrkSJEjqusm27+I1bh8+boKzfHjx/WzNtMZoTmC9zGZh6Pxcz28RAyCT/NN4nPlylV5/eatRxD0o0dPYNG8oXPl3XxYC8c/xnvx4hV1eWVikh9/jOFlTX5K/3xa4JcuX5VnOEsSYh+EtrH0PnnyVPdzjBg/IGbDPbkF19HDB/9KeAhx8eLG/qR949vxvgHZSgJFgG27evUGsiy6qWKA657r9xTcX1/q2ZPCV1kXrf3G3/I33jUmi7lz+67ExVnFtctGN1sSwFixYnixiljrJSzcT13Bh8kvqlZvIGfOnEdsRnbp1bOjQ3dengOd4fa0Y+ffkihRfJk/d6piwfYGa/jYsRN6ftMNlmM8fPgYXC2jIfnD917OHvf9eQ2ua99jvqMJCQ3dm9fjXLO30FjrhfuYGS7ZeF8EDx5M3+ebZBvOziM+k2T24sXLkiJFMpxpIYTzdeHCZT3jSXD92rje6LYdJ04sp7/3S/9SwZXV9rwk0WHcHu+r6PD8sPbNfShLo0aNqviaZhAwCBgE7BFwmdD4BOXUqbNl+MgJiHv4AYRmkCRLliRIIG9LaKiVT5o0iTRt1l4vlTWrF0okEDDbxkts6dJVMnDwKEmcKIFMmjhCXdZo4bF3OeN3aUlYs2adbNqyXTVP9J2i91SGDKmldKniSjisWB1LwDxz5pzs2rFOdu/ZLytX/S4MMsbtKbGAHV16cuXMrpeR1f7eu18GDR4t6dL9LPXq1JARo8bLiROn9ePSpYtL3Q9ucHeRyY3kaytctdwQ78RnUqhMA9eL8uVKYk5+8jTWgoXKQChJKS0QnDl77mLZtWuvvHn7Rn4pkFcDNqmRJ5naum0nYonWy7Wr1+UraOwpmHwPklQaPuJ58+byEAj8MuHOCA2fxTitKdCmjhozCSQrtqz7fakKAGwzZs6TjZu2aRpsCjRfMQAH/xsFSQQKQztbvNgvHlnkxo6bon7tXAu88CmsWISTcTo9ureX2B9IhF/GS9ejgYNGKt4D+veQrFkyeILAL/Nx6tQZrLPOki9fTqlZo4oswRr8a+MWzSLI9fMT1lHlSmXh7vmzrwRPdsQRofkXGAyDe86BA0ckGZ7LfRENQoRmyLp/Xzas36TrmWubBJdWGmbzypEjq7r+WYI633ENxKV370HyNVwz+/ftJqt++0NdCRnD8dVXweQHCCLVqlaQnPitbczap4yXQtoqxLZt2bJTXeP4XFom4saNI1UqlVFlSogQ7vvH1f45W8s1ajWWx8Cxbp1qUqzYxzgVuuYx9o5ZDJnJaRFij/YfOCyvoQgKBWtB2jSppHatqn6K4fLrePv1G6aC9vjxQ0G44nkMpWXrLrC0PZbOnVrL2XPnkehhLbKA3dLYtcggX0UQxF6mTHEPgdv6IUnhIQj2q1at1XMHS0LeAe/wICtcD1RKUFi2lA3Dho9TZcWggT3Uerlg4TK5AAXMe/wTOVJk4FUQZ2NRVS799tvvsg7ffQISHAJnXtKkiaRhg9ogNnF87dq778AhxLB10POia5e2+mzvFFXWeObOWywjcFfR5XTqlNEq/LNt2bJDuvXor+uYGdHGIZnMDbiTvsOABw/qidjQVKok4tpdtnyNHDp0RJMOcP1lypReKpQvgYQakzAery5nXC8vcE717dMFgvsVWQrFyvUbt1RJQTLOmM5SOE955to2v5xHnKdZsxcijmiOrF61QA4inop//hcJIrgfJk8ahfvZeTIcjmnjpq2yAolA7ty9p/s4OM6AhAnjS0246ya3uUdc6d+cOQulNvaNrXVsBdbiVMQ/8azgHlkIy/z+/Yf1PiLxyZQxnXpY0APENIOAQcAgYCEQIISmRcuO6nLGgOtxY4cFmexU9oSmVKli0qRpW2jHjks3CB1VKpfzdPlRCOyITDUbMZY+vbvgoikijRq39pbQ0JLTf8Aw2QuyEz9+PHfygsP3Mi6sI0ePI0PUj9K6dRPJktld0LUETMbn8NLdvWefaiR5od24eRMX5Tm1wPSAVSh9utQe/dq0eau0a98DmeQSgfTEkO079qhW/fnzZ5I5Uwbp0rmNCp8DBg3HJXtUfowVS6gB46XOy/PosZOqGaXgmgGxT1aLnyC1pEiVTBInTCDbduyWWMhiRU17MpA+ajl5uc6Zu0hmgjxQYE2Jiz8qiMwduOAdOnRML5vKlctK1crlfaVhtN2CviE0kK8hZGxDkHM3JS1bNq2GYO2uqatUpQ7IyRNdZ0wnzIQPD3BxX0TGMVqwmiBtak1cgMSAwsMOjO/M2XNq8SDmvJxxT8N69b3G0zDgncKKX8ZLjWwLkF2SpXEIcOVasQQppqT2y3zsR5xK5ar1NA6HGkla5OJCq/o1tMfnzl1QwZ19HjSwl64R3zTvCA0Te4waPVkWL1kh30eNopmw8oGUcq65ngcNGSm7du6FsBoOWllo2MOHVSJITT5Jdv58uZHtr7FHIocL0AZzP5FMZsyQBi6dO6FxjquxNzdgmWDWLWqwabW1dfF0dbwc09ixU2TN7+vlh+jRVXFCgnoZFpNjWOffwOLEBA0cE4U4V/vnDN+cuYsCl8fSrFk9qV+3hse8cy3Ub9BSqlYpL5dhuaL1LgHw4Lrg+rt79766sVKwtRdevXunK+Nt3qKDWisWLZiOWMfUHo8tW74m3GfvSMaMaZXMksT+ED0aMqI9lMOwgkbGOdQI7loVypfyIJ/cE+swpgkTp8u/IEPpUqeSGFC8cB0dO34K59YtJUJtWjf1sMa0R8KPVSAqtIIyhTEbrRAPYR1hHAtdwZhA49CRo3IQ/fgR6zwsFEy0JNy4cUPnjlZbn2IcbbEiYSJBZ2r9+XOn6Lt8aowJawYCRBJMCzzdXjk/jD1qCuzq162uZybP1B9xbpIUD+zfXXJC0XTq9BkoMUbo5zFhhUuYIL5aZnjOhsNe4ZnFdcgsZ7ZJAbheaIUoUCC3np10Uf0B5y0tRidBEsNg/M1gga5UobTHWvLreURL8HBkuKMHQu9enUEkl6ryiWfkVSijZs+cqO67PjW+czGUKVRQUsGRBUqaiDhf74LY0GJeCvdWlUrud6ar/ZswcZrUA8bdu7X3GOv06XNlGFwGs2XNJI+wr57hbvsRdxzVg8dPnNLYSq7bAZgH/4x7crbPzecGAYNA0EbA3wnNyZNnINS0g0D5ENrlytKyRUMPDWlgQ+GJ0CCon0Lu6DETVZPFFNMzZ0yQcBDWrUb3poYgMPSLX7xwhrovkax5Z6Ghlm/qtNlIhJAXVpLq7iQOB70bLi4Gi8+cvUCFFwaffvvttx6EhlpRajRr16oCrX5G1XSyTg41m9RK1axRSdq1beYh8DCQtUPH3qopp4tQFQhL6aCpp4WA7kAUgpk+eNXq3yUzyBM1nD9EdzfbM3B5wYKlKtSnTfuzTJow3MMlK1HidBoLxdTJVUBMsmfLrJdUCKQ4TQWic/r0OViz2qnmtEP7lpIi+U8qNLx69VIFpp7QzBOfUSMG+Dkg3jeEhv3nfLRo2UkFp8ULp6uWlG3Dn5vUB5uZ4nT+oOl85vZcNm3epsIXLUgb/1ypFyaFyqdwBWJSAGrMKWzyQqW1ielcOW8Ufo9DQPPLeH3ymffrfByAFr8K3GZCQ2ucCJbBShXL6lhDwRWQLl0dO/dWjXbjhrUhdNb2lfbaO0JD19DpIKiRIkSEpr6lapaZ+IKN65lZohInSqjvSADtPq0Kz2EFo4aewhLV+e3aNkdK7eIehIH7g3Vq+Bx3a0wWXdP/QCDk+0hyqlevIL16dPLotyvjpQC6FkSmLywQdJtq3665ppXmeuVcUFM/cOAItebNmjFRSTYJjSv9c3Zu5clbXGjpaty4jidCw4BwCsskdAmhKKhRvSJiDhPruE+cPCXdug9QRcCs6RM81rKjd7k6XlqUNUvdnF9hrfqowKhQqbacOnlWwoQNIxXKloR1NacqKHheTZo8A3tqM4TGdDIU6bq5f9iofOmEtXcY5KMn5o/nFYkG+3bt2nWQ40kgNif1DKC1lhYHKoTW/r5BCQ7XVxkokTgndF2ayPfAgkGL6DPMGfdhVgixtJifQ5p8xrnRzWjenClO8bFw47qcDa0/ra4b1i1zGptBl6xqNRrpmmnWrL7UgcWM8/MbrIut23bBeRBFSTKTkdD9k2czs/1RkB7Gd+Hu4FnYulVj/ZxYnDh5Goqf+XIa1nc+d/jQfp4IDdfLfZAXPoPWY5I2Yk+Sw7i+PxEsz30/7dexSFvv7jXg1/OIhIYp13kn0W2LhKkeyDat1newF7Nly4T7w90F0FGjl0F7uPnSOsysnr8UzKfuuFQSXb16TXGhl8On9I9nAu8+W0JD7IYgmyLv3VRI3lMZllYq8Hiw74a799BhY/W86dunsxSEB4FPFjhne9d8bhAwCPx3EPBXQsMDcABqtaxGljP6jU+dMgrWgKBjFvZEaNoiS1mdqrh8zki9+i1UAzVoYE/JDb9ruonxQqB70rjxU1EYrba0bdNMXZRawS/antDw0i1esrIerIOhNacmy/IJ5nOp0cpXoJRm2RkzBi54SX/yIDTUvlMDyXTEvITpskB3AWLYGmk/KYTMmDbO4/IhoenYqY9+hxrU8uVK6e9IPth40dRv2FoFhqFDeqt7j21fqF2vU7e5EqJJE0dKqg/ZuBIlSa9a9xogUHVqVdOLlBpGCq28PAYOHKluAIxdoYBrG8RJV4PefYfI4sUr4ObRTqpXq+AnEutbQkNSRQHt0uXLHwQ094xSJHPEjf20XJnoGnIC2rw27bopCdi5fb0nS2G//sPUBaMRtMNtYDmzL7A6YMAIP42X64VpWu2zGnF+6zds5af5cBfw60s0WGc6wSWIpIBkleuLwkQXuDH9/sefkjtnNhk2rC802s4Dam0Jzcnje4SuNnPgWsh6HHSJYhYoy0pgredn0IT26NZOa2hQyOT7rQKi4ydMk1+nzlLBddSI/to/EgbOD1NXU8ArX760ap85J3SzomtYj54D1E1t6+a1Hu5yroyXgmJbzO0aCMtTJ49GPZEcnuaQrpvcPzsRH0FhnhpdV/vn7Lj3mdC0Vxe9ydhr8eLHka8/xNjwLOrYuZfGWNCqamvZ8e59nzJeEpr5SLvNbJRWI6FhlkcK8BR0uQ64f3iOcD6q1WioLsOj4TJMayz30/Llv0k3zF9WKEpGw8r2zTcfs1dy/S9bthprs69anIcN7avrhYRmzdr1apEbNqSPPpOKDwr+JE3d4dbFWCNawAuiLkwEKHu4Xnh+9ew1UJaj7lE7nL3NUC/MN4Jrl659Nb0+19jmjb/5mI6fWJCkVUY9MOJrS0hJaFqB0JAMDBvaB/sjFRQMofTc5VlB8lGqTDUQuRsyfuwQvTesRCC0IJ+G9aZz134gNWdl1PAB3hKawmrNaqJ9tbDfBPcu/o5n9gS4CdKtlM2v5xH3KQkN9yhjdUaiD/x/KqTewB2Psa/O8OQapQJgz98HNFkL3eCs33C+2axz09X+OSI0g4eOVutazx4d1cPA2je8gxnTSitYtarlVbnmbBzO9q/53CBgEPhvIOBvhIYX1Er4VTMjGA/T/v26QXuSx+mF8jlhtLfQMO0yD+badZrBbeCEXsQ9kGaalwstTFWrNYSrwT+yfOlsPVy9+z0PU/oYMxaHrmZ1a1fT+ga2jbEe1Da6Qbs9bvRg1XzaCpj7/t6oQo9to+UmU5YCqplaumSmmvrZLELDS3/G9HEafG17oP+GGJ4+fYZoeulePTtLiA9xJtazv8LvunXvp0Gv9AXPkzunalJJaKgxHAEBmfER9pdE/oKlQczuwne5KjSSSfU3Hxs0Z0jXPQ3awMZIu0xh1i9ZvnxLaChotUBsCV2uFi2YplYmq5FUUTCin/ctVATnGuSfp8F9gdpjWtgotFvNndDMhQWrlgoV9v3163i5/r0jNK7Mx8GDIDTV6qsAQoEyEV3ibACfMmWWxk4xRTA/902Ar7XeGKROtzoKfbRo9YCrB60/VpwJ8bHWM60yjIHjurZPqUrNdl6QdLrarEX8GbW1FmGgAD0LLi2ZoZG37fcexInRLY8B1KdP7vU4G5TQ+HG8jx49kgK/lIWg/VZrv3jUL/owwW9h+Vi56g+1DowdMxg1WArDTeaKEi6/9s/ZGeUToaELHgPmly2Z7eksJDGlFZYCJ+eD8R4+CWafOl7vCM2+fQdlFIhJiWKFPb2beyl5yqy6PugeyPOKCUv6waV2LkhwNSgscuXIBlhU4+HRmDiCWcN4ZtGCaktoSDi5lmxjp44dP6GxYleuXNdaXFbSAD6Q5zLxmfLrTGjwq0GD385XguuAwSNl4YJluh5olbVXVNjPJd0TufZIQprDQsOYJstC07xVR8QwZpMJ44Z6sWbQjTRbjkIaYL9k0QwviQfohtccZIDWFvs6NFwvtBQ3hEKqESzotvNOBQgFdsYA6fmMwp88av16HvGZJDQkDBXhukb3LJ9qrXm3xkne+uLeYiHdH6GYpEt27tzZ1C3aPnHBp/TPOwsNCU06nO8832zj9NjPprB6bob1vTji1aiENITG2QllPjcI/H8g4G+EZjUE6dHIbEbtLgXEsqVLuBQgHpCwOyIka1FJuiW0uckQhDoWhCNOnNgI9FytsSplyxSTfggMpfnb0e/pdjAQFylN+NTo2R+wdGe6jwDrMKHDwGrSRwVIW0Jz5NB2L4f2w4f/SqrU2dX1YPmy2V4IDTV4C+b9qu4btm3ajLkawEqBniSMgrat3BEMBIepp0PCnWlg/25aWI6NhIYXhyXA2M9DkqR0LwmtvvZM0e2p4calwEOiwWBNWrT8m9BwPJsRnN4GMTQM/t+2Za1E/+BKR4sALSN7oUm8jT6o9hH/vHnzWv7Bfz954gYt/WRP2facERq/jtcRoXFlPiwBn3EyvNBtg7mJO10yeOEztmoM1qtfCM1VkLuc2bNoLRm6c9AdhlmLbJu1nhmQy/d7V/SVmtL8Bctgzu/IgX2b9Tu2hMZegObzKUBbhPTcmf1eCI1fxst4g3QZ8kBw/VaLrgZjEJRt++o9tOjP9DwaNKCHWplsCY1f+ufsTHJGaNJhnkiobc8FyyXIOw21d+/z7/HSQsP5GD9uGBJneK1inxAuqLaEhhaMNu26yqZNOzQY28oGZnu2vMZ+o0sWNepTp4zxRGjywwJNVzRbDBhTRRdSJkY5d+aAJ4Hbr/hYmE0BQZyIuIwwYb729ny0x5ZxPY0at1XLy8AB3REXlkfJOy00JDS/FMyr/bZcMa3f/wnrUt0GLbSGDWPmaKG0bT4V1nS0Xvh7y2LE8TORQt487q57fj2PbAlNHSjuGCPqiuBPxQXd1vZirXDPM6NlaiSPyZUru3vCjQ/p7j+lf44IDWM8vVPYWGn+ixYp6G1WTGf71XxuEDAI/DcR8BdCw0BMCkG3YM2gHzR9xRknEtSaI0JCzX7JUlXl7r170gcBlMxUVLlqXU13PBgaoAKwNJFAOPq9e1a38ZIAGvXKCIpnUKt9I6khEaC2M3LkSA6zTlm/owCTOm1OD0JDVww2y0LjiNBMhkZz0qQZ6j5Ev+d37+GK5lmRimQFyFQTPAQ06O5CC5szQhMPSQP43SrIrmVPovQBuHX14kWgKTW0ftEG+sZCQ8JA335mOWOChT/WLlbtKwWoXr0GIZD5OALbo2oMU9QoUbQvdzCfC6CtvYkMQvNB/mxdbpwRGr+Ol1pt7yw0rsyHbwmNowvfu31nEWgWKmVMwpAhY+TK1atIXlBUeiLpAxMpWI1BuUMRWJ2RAgUIk731g997hKDwHDkLg1y+lL93b1AyHNCExna8JCqpUucAaY+trkJhIcB6alRrc01i7VPwoquTq/1zdo59DkLj3+N1RmjszwNaHGhd27R5u2akYmFiL2ccMOdRQ6UH42vYLJcz7wiNNR/MFOZfhGbN2nXSq7d71Xm6uLFYr09t7rwliBcbrxZKWn2tJAIWoaGXweiRA70QGirwmiFpgCMLjk8xda4QGr+eRzwvLQuNPWFwtp5tP6ciid4CjJNkgoOtUIRchZtebFimmOjBPX4uuPhn/yyFjU+Exqc0/34Zn/muQcAg8N9B4JMJzc5df0v//sMRqH0bAdbl1GSvAfFBsDkiJOwq3RvGT5iqrikM3u/QqafWJhgzarBmBWNz9PvNuOQbw7WEWWMYROsonSQvWVoP1EccGZrKlK2hNRnobmGvBXeV0FgXOtOQMssPs0p52yB8kGBZxMMZofmlcFnNHjViWH+4QWSntOjtYxmH48zNw/6HviE0vFTrIWMUA20bI2sZ/eqJ5+9wKaJbBItA0rrGObCsQ5fgXsXaNcwMZq+Rd0Zo/DpeRwKMK/MRkISG6+3g/i2IQ7qKeLAuiG15pTFRdZkY4YNf2YqVq1Gfoy9c3RJoYVzvMkUxZW+xEpWQfS22rFwxR7PLuUoYXBnvv3A5K1S4vFpgtm5erTWvHDXuOSoAXO2fs6PscxAa/x6vXwkNCfsAJFlgApUmIJBNmziKaXmvyhKrPtnnJjTMQlaxUh2NcWGmQaZhd3Qe0QreCXVoGGdF99UpSGVsFUZ1RmhYJyVnnuLqDroCFnSuf9vGuD4qOBjr5p3LmXdJJPh7RxYav55Hrlq4HK11zj8xpQv2CpQXmI/kMhnSpVGXL2ab9M/+GULj7MQxnxsEDALeIeAyobEKjQ1A7Q2apcuULqbBpd8j8N3e3972xSzGeZA5++GzTM2pb4qI+dfU+URoKKwzlSkvYiYyYLa2ypXLaL0Z60J09Pv79x9K7rzF9Ht0b8mfL5embLZtxItV1kkiKDgGFKGhtrNu/ZZaM4Y1Jjgv9tYSBvi+ePHck9bRGaFhsC1Tf9KPuiNiFrwrFsp3UtPpqKiko3n0yYWAriA3QZZpBVuybJW6F02bOkatNGzT4WI3Fi52zPj214YVntLfMhtXB6SNvYJECfaEZhBqC9HiQ4tixw4tvQg9fh2vI0Ljyny4IuA72yP2643xUgtQUX00LF5ctz17tEdQdj611GhK1tLVdC7pqsK6GLZzynkeiSxodO8pV7aEpoVlkghXCYMr46XFoDGyKW5F1jQKrdVhNbAXXLnn6AppBUC72j9n2H4OQuPf4/UroWGygIWLlsH6MVhju5gG2ruUuTzjQtqcAZ+b0DA2sH3HHlr7hpZwFkzOizgUq4ClNZd0n1qM7JOTp8zQNTJqJDKzMV7lw+XljNDw94WKlFcLMevX2FqCeGaxLhaTGtC91z5tsysWGr+eR/5BaBjrxnT4JCyWkoh7ilkm8+Yrod4Dlkusf/bPEBpnJ4753CBgEPBXQkPhoBuyLdEHmcSEAgUvEE9CPC7BSPg7uihZLi2sydK9x0AVqJmSuApctFzx7XVlOn0iNCwg1oEXIXyjmYqUAtyvuKgYR2A1R78nQWB2NwrXGTOkQ3anklpwjNo+fnYPWmQSJsZ+MECTl2tAERpqBplCmYGc7EPN6pVRnyOxXkgUSpgu9AoK7V27fh3B+008sHdGaPbtOyQNm7RWu0z1apW0cKS79YexCk/lJoJkGctSuFA+rT3il2YRGrqpNG5c98NP32v1da4zurkch7tDKJDBFqgrwtoYVhA7g76Z5CBkyFBaBI8FR9nol093EsaKvIQVYj7crGxdzn7//U9Nyc3AemaZiojU2UznzHiVcCBHfh2vI0Ljyny4IuA7w9u79fYAGuqxiHujYMdxd0OCALp5UBhiOuR58xcjMDc1CryW/rCev4ar2SPVaLMeUQgQIWbo47yRNLtKGFwZLwVX1s8ZgOx7zMjHOAEmfXBPnvFeg64ZbM4U0rVQAPBTCJczbD8HofHv8fqV0BCDC4h5aY6Yl0uXoPyBqxHjS2IgHTDnnkkOGCjPzGn8+xSoQcb2uQkN30nrYdfufVHL66ySLxb7ZMFMJmthLRamED+AxBs860lMuD6a4NyxjZNxRmg0syOSryxZuhJZ4JJrQoG4KJ7KzID7kTJ8JixZj0AIeGfQqm1bh8YVQuPX88g/CA3T5I8YOU7T/zPWkkkbeE8yTf54xCkxffXY0UO0bpd/9s8QGmcnjvncIGAQ8FdCw2BW+ugy/S/907/77jtUEn/nKVyDGYhY+I8aXCtokjnt27brofVLalSvpBq0z0Vo6GLAQnNMu9wR6R5t3Wwo7DNLW0/EY/AyYJHKSRNHeLggEDzb39NyU6/exyJ6tALQbY0VpiOi7gSrW1MzzAuUbjEsVMjgYFpwaE1gDAK14CdhUTlxdJcXlzP+JuXP2dSFauWKuR5JAZiBqkPHXipE0OebF7Z9OwdiMR4F1XhhM56EF62mSiWhwXNZUC8+BNh5syd7YE8faMZBjENGKF5g9o2C+QJUbJ6CLEZMwRsLgcGsT8HUzk+QYvU2nkk3N17eljDj2y2n2YDQV7oNsXgdGyuJkwDS9c7Cji6NuRGMSs2wtWbuAlemit0M3FnMlC4g1CKe/1CNnG4SzHK2YN5UjV+yGqt+V0WtFxbMSwNBmMVCmY2O5IZz59fxuscYdEZhTXcXE1ZZt/ro1/lgoclKVeoiADe+ZuhKDE2obZuOdNODhoxW8jEWAcn2igTvcPduvXHumPWsO1LxsuZRjuyZtZArMxppVaQkiQAAIABJREFU/BgSD7Dg63cflBIk6Cx0RwsO/8waR8wMaO1tEppmzdtrFrH5c6ei7shHvNknFp1t1qKjrr9LFw57WA5dHS8TPjBT3ULE8LH+UGwkN7Bi91gg8gZip6hMmTJ5FIpshlfC5Ur/nK3jHLmKqGDMWB7brFV0N2rUuI26M61YNsfTOUcCwFo/LCxIMsb0tM7OQf8cb9nyNTQpwITxw4XB1fbvtmIixsLl0DoPeC6yWCj7fP3aTcWWwizPIgr4t7CX7mJORiHmhGmM2ZhYhW6XjKGhS6injF4f5oNWzIvnP64H/s4VfKx5ooVkD9btPMTP0YIXLtzXWMOR1ar8BrElDx48wFn+CAQmjCpnypUrqYVlbRur1Tdv1UEzdbLf9kH/vC9oAWYx5ZOo58Ng+RiwZDARBYuoMk3461dvNJsgs7uVhqXcGruj9cL3U/FVsXJdvYOY5cxKUuDX88gWPyZqYf0zZ+vLfp3zTmvTtitKAdyAwiOufAP86FnB1P+sV9a+fXMpCRdtWkb9s3/W+ZYeLm0835hS3LbxnGX9oiKFC8pwZOX067ic7WfzuUHAIPBlIuCyy9n69Zs0daxlzVAR1C74nKlTqTXt3LG1R90SHti9+wyGheKpasXczfyfBzw3NzfV6LIwHIUxpn20PQx5EQ1C2umr11BArmMbrf9h26zfHzp8VFq3bKKXtNV3BmFehf/2YVR+3oXiX9RmfoXMS+FRMTpixEhaUI/PYwFPWhf4LFom6K42Y9pYL0kUKCBRixobxQLpsmAVQaM2e/DQMVoFfSSy73jn+sXLlvURjkDDtm3bLnW5opBPIZRZ2EiCskN4TZUyucfwSpauiurgEZE+to0WAfSuUdt4EkXjtm3frYU2n7o9VQsU3b+iRokMwpbmQ8E2zxl/nM3uDGj7mVWOuHycj/e6ZujW8DNq5fyE2j1xYsf0Ili8x/vPX7ykhIgCsxuIRSTgzfgnZiBahNo4R48dR2Av42s+josCA4u0rUBFcPrd84KmQM9isBamfhkvL3QWfNu+c48MQS0i2xTRfp0PkokWyLDE5AqcD5JS20YBcSISP1BDSgLmrEAef+tovbFvZ1HEkHFIdBfi+1j7gkLhZQT/7tq1V/btPwBycFuVF6w9kgBpnAsXzq9CHJNVWHNGAtEflkrGO40fO0wVHbaNBQf7DxgOS5ibrFo57yPhc3G87DuF/BMogspgZbq+UrDmWmcfKWyzUCOJH9eWq/1ztn4bNmqtVlgWOs2X7+OZsGv33xqgzlS3PANtzxriyzgExqSwcCBTNzsTzPxzvJ1QA+ckLBhM221rubTGyvOAmcy4HlIkT+YBwRNYYy8B5x0798J1+DDIwSM9A6Ng/3OdksSywrtFsseMnaIafQr0VtFK62HWfJAc2a4Hfu4KPrbzxHXA5x89elJ2Yh6ugLi/hlWP5zQLsFJZkB3FJRkfZp8WmM+hFZI1d0qg8CXvKatGk+07aK24gLOHxJXkkH2OFj2a5EdtprRpU6lyaxaKfPbt1QWp8D/eJY7WC59N5Q1jb5ihkUoz27nxy3lk4Tdz1gLtPy1qztaX/TqnZZvxh7SCn8F5T6UIz2QSWRIZKtts3Q79q3883yZNnilZMqdH/bfmnpSK7COTODDjJckeLfZ+HZez/Ww+NwgYBL5MBFwmNMwMdvXqdR+zWVHLTs0oBRsrjoP59ZldiS4UsRAPQWvF52oqWEJ4dYMWjX7B9uluKeRev35Tq1YzYxnJmm37+Hs3jbOxJxPkc9Rg3YcGkIXh2ChI8TKk4EeXB+vw5bNYHIwWHAqG9nEnvHiZWYbV2ePRZe9DTA4F02voI/3UeRn7lE2MAuq9u/fVJYxkkxYIXkh0HbC1crCfJCjMVsOEBt5d3hYO7BetJvStfv36lT43HEgbC58xMNYKBvbLnNIPnTVjmGr5Y3Mv6Mm+MssW++To4qIAyyDb+3jOK8xhKGgMOT4KKpxvWmm8m0/Gc9Fa8BSY8s38PpMz2L7Ht+PlfNK3nPMeP15cLz77HJdv54OC0kUISrQa0WJlWyOGz6GlkO49jD/jfPkmo5xP600tWqh/Qcvbjz/G8CiY6F5E001rMtH9j+ub2FJTS422/XxQK8y1yUQDTMFs32/uq+sg2uwLCy1a7VPHy317794DobD9FkIl+8l1w4KjXAdWP1ztn7O1TMsP+xADtaRszwTrjIwElzh+ZtuILdc9YyxYJZ5Fd33b/GO8DD5n7RWuH+/iGHkeMDMjrXUeKZo/dJB9p8KF5wDXNBtjA8PAlZaWEFpqrbXBdcoip1wv9olPbOfDdj3weZ+Cj4Wjxi1iL/E8ZtHndzhr+Xc8r8KHC6+uio7OFM4dCT0VNcza5tPZQzL7AP/SAs5zMDpIDZVHnF9arpk4w7bGjqP1wn6TiJCYM8mJd/ejb88jC7/bWF+xcP/6JrW7d+vPeg7P+1c475mmmWPhGL3DxD/6p+cbkg9EwDnDAt3272FMJZNkRIJFn/e4aQYBg4BBgAi4TGgMfAYBg4BBwCBgEDAIGAQMAgYBg4BBILARMIQmsGfAvN8gYBAwCBgEDAIGAYOAQcAgYBBwGQFDaFyGzvzQIGAQMAgYBAwCBgGDgEHAIGAQCGwEDKEJ7Bkw7zcIGAQMAgYBg4BBwCBgEDAIGARcRsAQGpehMz80CBgEDAIGAYOAQcAgYBAwCBgEAhsBQ2gCewbM+w0CBgGDgEHAIGAQMAgYBAwCBgGXETCExmXozA8NAgYBg4BBwCBgEDAIGAQMAgaBwEbAEJrAngHzfoOAQcAgYBAwCBgEDAIGAYOAQcBlBAyhcRk680ODgEHAIGAQMAgYBAwCBgGDgEEgsBEwhCawZ8C83yBgEDAIGAQMAgYBg4BBwCBgEHAZAUNoXIbO/NAgYBAwCBgEDAIGAYOAQcAgYBAIbAQMoQnsGTDvNwgYBAwCBgGDgEHAIGAQMAgYBFxGwBAal6EzPzQIGAQMAgYBg4BBwCBgEDAIGAQCGwFDaAJ7Bsz7DQIGAYOAQcAgYBAwCBgEDAIGAZcRMITGZejMDw0CBgGDgEHAIGAQMAgYBAwCBoHARsAQmsCeAfN+g4BBwCBgEDAIGAQMAgYBg4BBwGUEDKFxGTrzQ4OAQcAgYBAwCBgEDAIGAYOAQSCwETCEJrBnwLzfIGAQMAgYBAwCBgGDgEHAIGAQcBkBQ2hchs780CBgEDAIGAQMAgYBg4BBwCBgEAhsBAyhCewZMO83CBgEDAIGAYOAQcAgYBAwCBgEXEbAEBqXoTM/NAgYBAwCBgGDgEHAIGAQMAgYBAIbAUNoAnsGzPsNAgYBg4BBwCBgEDAIGAQMAgYBlxEwhMZl6MwPDQIGAYOAQcAgYBAwCBgEDAIGgcBGwBCawJ4B836DgEHAIGAQMAgYBAwCBgGDgEHAZQQMoXEZuk/74eXLVyV4iBASPdr3EjJkiE97WCD9+uXLl3Lr1m35+uuvJRrGYdqXicC9u/fl8ZMnEjVqFPnmm/Bf5iACsddPgN2dO/ckYqSI8l3kSIHYk8//6nfv3svVa1dF3n8lceL8KF999VWAd+LNmzfyzz935fnz5xIhYgSJGuW7AH+n/QtevHiBcd+QaN9HlW+//eazjPuzD9K80CBgEDAIfEEI+AuhuX37jpw7f0EP9W/Ch5ekSRNLqFChvggYKIycP39JnuFy5OUc5bvIkiBBPPQ/ZID2v07d5riMv5WmjetKwoTxA/RdAfXws2fPy7gJU+X169cyYdwwX13qxPv48VPyww/RJG7cONq1M2fOyYOH/0ryZD+pcGCa7xAgoTx16qy8fPlK0qRJ6fKem/LrTNm776DkzJFVqler6Kt59KmHly9fkRs3b0tcCLgxY8bw3WD86VvXr9+UaxA0371/JyGoMIj+vcSJ/aM/Pd37x/z11xaZv2CppEqVTOrXqyXhwoUN0PcFpYffu/dA+vYfKm/fvpWmTepK0p+SBGj37ty5I1OnzZObN2/Js2fPJAyUKVUql5Xs2TLLjp1/S+RIESRJkkQSPHjwAO3H3r0HZNSYSZIzexapXbuqhA4dOkDfZx5uEDAIGAQMAj4j4DKhef/+vVy8eEnmzV8mZ8+dl8ePn0AQEggRISU8LvQypYtLiRKFP1k4CqgJvH//vixYuFz27z+s2ul3uJDf42WhQ4eSsLgkCxbIi/4XkvAgaAHRkqXILN+BPI0Y1k8yZEgbEK8I8Gfu339IWrftJsTy+NFdEixYMKfvXLX6D5k9eyE02RFl8qRR0LK+kGbN28ujR4+levWKUrJEkSC7ZpwO7jN/4eTJM9J/4Ah5/OiRtGrZWPLmzaV70K+tXYce8uefm6VI4QIyoH/3T8a/YePWsNz9I+nSpZb27Zrrfgrotm/fIVm+YrXQ8vkc2nPB+fQV1iP3c4wYP0jF8qUkU6b0AdKN2bMXyNDh4yRD+jQyHPs5Eiw1/y/t6tXrUq1GI1VqDOjfTfLkzhFgQ6dlZtiI8bJq1e/y5s1riRUrplqIa1SvJOnSppYevQZirYWWmTMmSoQI3wZYP/jg1avX4ezrIgUL5pWhg3uDxIYL0PeZhxsEDAIGAYNAABGaJ0+eSq3aTeXuvXvqMkXN3LPnzyBQXJO7d++pBr55s4ZStEgBXwm6n2ui3r17J4cOH5XBQ0arJpfELGzYsKrd5p9fvnwh//77CJaCCCAaqaV50wYB4kqRMHE6iQJXiTGjBkrGjOk+1/D99T37oNVv0aoz3G3uyrkz+301z3PnL5bJk2eq0LdqxTxoWZ9LhUq1ldA0bFhLqlWp8MkCtb8OMgg/7DDWcfuOveXhw4fSv19XJeGuuPy0bttV1q/fiL1aUIZAOHPlGbYwlSpdVW7d/keyZs0kA/v3kDBhAk57zfUzc+Z8WfXb77DyPZTQ2Mfh1W3uK1hc3wnPKZLmmDGjS+lSxaRa1Qr+3p+ZM+fJ4KFjJD0I3JjRg/+vCM2VK9ekctX6SmgGDewhefO4Rqp9s80uXrwsLXHenD13Qdq2aapWmecvnsu333wj7Efb9t31z7+tmh/gc0BS1aJ1J+y5PDJ6JIgU7hDTDAIGAYOAQSDwEHDZQkMBtE695lK4UH69yCPCl5luBzfgCjB4yBi5dOmyCjSDBvZUN66g0g4fOS79BwwTard/gmtCsWK/wEUuCSwx0LDBRHPn7l3ZsWO3bPhzixKbYsUKSZ9enVx253E07kRJ0quF5v+N0FDw2P33fomGeI3c0OZS6Ny4cQuE8n8lU+b0cFOKHVSWSpDvBzHbtn23Cuz58+VUguxKI6HZsGGTWmj8g9Bs2bJDbkJznihRfNWc+8Zy50q/X716DQvxEpk+fY48evxYCubPo25z8eEyCj6jVpoT2Oe0Pu3ctVdjhLp0aiUFIIT6p0sSCdXgoaPVQjN61KAAF6ZdwSqgfvM5Cc2BA4elWYuOSp42rF8O9zJ3SxjvHXoIrP19g95DJBkB7fL8229/SPNWHQ2hCaiFZZ5rEDAIGAT8iIDLhIaXyvHjJyVevLhq3re0uvz7EXALmAk3jPjx46rGMgH+Pyg0xm8MHDwK7gLrJTJcngYP6qWkhoHQloDz6tUruFA9VCFowKCRCHgPgzEMlBzZs/rrEP5fCQ2FD2rVGaNk+Z1TIKc7SdiwX/uroOmvExYEH8aYLwZG07LIuA1XLSv+TWgY28N9xPkNSMHy9Olz0qZdV7lw4ZIUh+KhaZP6SE4RxZO2nBaaG4irGThklOwCqaEb3PSpY3Wt+VczhObzWGgOHzoq9Ru1hgthdFm5fK6X9U7X4RDBQ+iZ7epe8O2aMITGt0iZ7xkEDAIGgc+DgMuExtKMeafpnDhpuoweOxlkISEsEIMlduxYn2c0Tt5y6vRZadW6s7rFdezQAu4nFR0G/9ONqkvXPrJ5y07EAxWF5rqPxyV5CBfrlavX1DJFP+7de/bCl/uOBiCnSZ1KL1Sr3YH73ZHDx+TJUzd8Hg0a65/Vr987l7On+M7u3XtVu5w/X24VVE+cOC0XEKvEv0yVKqnEjwftsw+NLoCHD7m/LwwEypQIVI6FwGz7C55WKAp7WbNmBCGNIH9t3KpazkRIUJAsWRJfEQufXM4YGP733oMIyI6lMUL26+TAwSNqxfsK/xC31KlTeuuHznnYs2e/RIkaWbJmyaTa2X2I3bmNGI3QcGXKmiUDNOJeM0vxdxsxpuwI2v3xx5ggTG9ly9YdsLr9Cy1uRMmMeAq1yjlo74D9IfTx2nUEmL99J3HixpaUKZJ6EdBd7Z9vNgQJ+K7d+8TN7Zn2NU3qFLAyRPX4qa6XPfvUQlMclkbvhLhHj5iE4YRmhQoTJoy368Ge0NBllMqK+w/+BXaxJGOGNH6ysnB/XL5yFes1OZQZH9cr42p27NwtaWG1oZKDQd3sP/tIpULGDOmwFn2XFILEeO68JTJo8Ei1TM2ZNcmhayitgEdgma1Rq4nGXsxCjEXGjO5xa7Ty/PnXJjXoFC5cUIgp1wnnPEXKpJ76z+ecg7vTaSSxwPLw2I+OCM2njtf9fRfxvrNqyfzuu+/0/LBPOuDm5ia///EXxs+5SqcZ17Zt36XnUBZYPSNHjqxuoZ+yHxytV+8sNFevXpX9sKaQzCZMEB9B+gl9XD/sG9fbQ1jEOTa6LzNjmtW4drlurl29IbPnLtL5boJkKm/fvpGYMWLgfEmj+3vN2vX47+iezhv7+eUeOYzz+CLOnpBIGpESa5RJI3wiQExacvzEKQkVMqR+n1ZkZy5nPLvPnDkv5y9ckFcvX4NoR5UUKZJ5ie3xj/755iwx3zEIGAQMAv91BD6J0HgHDt1gGkKLdvzkaSmQLxcCRXsEiaw/vGD+WPeXtG3XTX3oN/65Che94xSrKjDh8uw3YIR+b9eO9RDK3YPee/UZLLuh7W3XthmE8iuyYuUacYPV4bvvIknfPl0lRfKkwrSeK+FnTU3eP7iw3QX695I6VQqp36CmFC1WSZ9r63J2Ge5YXUGimLlnQL/uMmHiVDl46Ajiel7LawheFPZKlioqVSqV9ZJV5xECwxcvXinr4DrEd9PNh2OgUJE7VzapXauqp8u0YeM28gRuOu3bt5SlS1epYEmykBAC6Nixg32VDME7QkOc2ecBA4bLvfsPpGKFMlKvbnXEWYXEOF7K1m278L6VIAo3tX9sJDWRgF3pkkVV024rsO3c9bf07TtU0oI81qxRUcZPmKZZ6d6gr69h1fkebkTMMvQLgnNthRJa2Dp06oV+dIfWNjiyUC2Xmzf4znc6D7Eh/DVqUAsae5Ktj8kMiMHfcImbATei24gDCYbPkDALWbPeQziLi7HUkJQpk3m8y9X++XSwUMhZvnI11s46JWAWGaQAVrNmFY1LYwYvrpcePfvrGpw8cSSI6E8ej6XFi26T8xCzRILCRiH8a6z9wnAtYzYzi9BZhIauOvyMWc9Ikl68eCnBIABSsG/bppkSY9807o8tW7ZjTvJJp46tPLDajL9rhziHHt07SDgk21iEpBxXr11TYf3d2/ew9saR5s0bKHF05qZGyxSTGfzxx59SC5h079beR6H06dOnUr9hK53b1q2bSrMm9fT7N27ckkZN2mJ9BpdJE0YgY9cwOXbspPYpM8hAT/YVAd/MrjVh4nQV1F88By7BvpKvYeUphTX75MljmThphheXM1fHyz10EufnHJw/x5AR0MKCa5MKlApIcJA3Tw5dA2wkA9zPv/yST0oWLyQDB41CDNNt3V9169TAvqmkZMaV/eBsvi1CQ4tc61ZNFKctW3eq5ZAWxOA4hwrBLblunWqeMhhyjLwrFuHM4l59/foVDgLEPfFMwP8XwtqpUqWskrjfcI6OGjdZSeaDBw913HQfJB6ZMqWTHph7ZvorULC0JEyUQKZMGgGC7E6MrfkNgX08ceIImQRlGxPBvMJvuUfChw+rsVVVK5eXUFA0WY39Y4zljBnzdM7dEB8aIlhwnM1hpGjRghIBz++Es7pA/tyeYmi4bk4i8+CMmXPl9Klz7nMHtvzm9RuJBsVNDcwFM6NZc+dq/5zNi/ncIGAQMAj8vyHwSYSGghc1lkx5zAvgLjSDGzdvQwzKHkkFoY9pPFPDYhHQ5n/fTBovv4kTZ8ByNFEyIQh/3txfnfZrKzS1rdp0Va3tti1rNdEBW6s2XWQzxpktS2Y5dfoMLtfvVNBgXFGrlo0g8CaXpctWyciRE3FxvlJtMC0r9+7dF1omGDtz9OhxvXRtCc0FBL02bdZOtcbxIdxdhKBKv/zvUeuA1oxdsN6EADEYNqSPxgpYjd8fNmKsrFr5O4TC2JIDn9GXnAIDCcQ1WJMo7FDg4N+zlatQC1r7O+pydwwCUeJECeVbEKa30HQOGdzLQyDwCVvvCM1xWJT69B0MofCECsdNG9dTQZVt0eIVSLk6Wy1BtG7FixdXL/vLGOd2TbkaUYUvZi2yLvxNwLld+x6KPQN+n0AwpcWHmbOOHj2hOFLomTRxmCROnMiju6pBhY97Pli6rsBaEAlWmdRp3NfiXgi15+CmlBnrgAQ0Zswf9Hdcw4wlGTN2igaYFyqUT+LFRR/BaE7CvYlzHjdOHOndu5PixuZq/3zClX3o3XeIhEOgcfHihdU9kgTjwMHDkjbNz8CosloWuV5atOyoaa8XzJvqKVse4wkGDR4N4fu5ZMyE9Qei+gyWHrWeIDNVTwiBVhZCi9BwXTJtNon2zyDe1PxzPz+C5jxPnpzSD1j5JiUx94eVZGAo1qq1/6lQaETBG+STa5sKAJ4TweEmxPiII5jP7Nkzy/Chfby1utli9vjpE6lUqa7GyEyeMFzXt0/nDMl0H2C6cNEyKVLkF+y7Qfp9CuSVqtRTy03u3Nllz+79kjy5OzFk7F/nzq1V+9+z9yCdf9ZbYjA6ay/Rcsq02RGRfp0km9YT2xgaV8d7BmutW88Bcv3GDVgSM8AylxJ9DYaskpc13iwULK8kfiVA/jkGYlepSl30OykIaxgkarkvP/2UGPP2EFjnl8pIa7xmzXo/7wffnKsWoaG1LSbOwHewmtDCG+OHH9QqxHiq9/inJIgfFUBM2sBGMjF02FjNTMe1mTNHFomM9cA7hOmXL+O849pv0byhXAexWLvuT/3sL4yf5yazIb5991ZT3hdDMgue0alSZ0fcVgJZsXyORITVmc2aX84/rbLMyEkrFtceLfW0/BBPElfGg1priNbRXr0HQymwGWdPdMmGeNCvkUHt/IXLIJundB2Q+ObKlR2EZoCHmyNjNAfCVfnCxYsgLtlg0UmqyqezZy7gLN6hip2OHVqBkObUjISu9s83c2O+YxAwCBgE/p8Q+CRCQ+3SgEEjVAvG9gSC6nNodWMho1DlyuVw0fwiIQO4notvJ4tWix4QEpYuWy2VKpZGVijn6WlZa4BZvKgVXLRgGmp9pNLXUQCkVpEuHQwwLlemuLoCMTA5NtybKHyQMNDtqm7t6lKuXAm9hKmFPHr0JDSviyG8HVMriD2hadmqk2oG6Z7WvGl9COEpIQSE1mdPnDhNlkEAKF+2hCcXuD/WbcTlO1CFwL69O2sdnRDIPEet4CX0oUPHnqpt79unM9KqumchYmaxU6fO6LNr166mwhy1lU8eP1UXEV68zppFaEiMzp89AIHrigwZNhqC33YpA0zq16sBYhZXtZS8uOs1aImxXQexaiz5EcBtFXF0gzBC4W/c+KlwJ4mkLkEWCdq8ZZt07NRbBSAKbLT2JEmcUK0W17Hu+vQZAo3oGWncqLa0bNHIQyChZYzzRAG8WNFfVJNuubEQE2rl30Egmoj6OdkgoLIxBWy37v0heOyE1rcDUrLmUUGFAtnTJ24yf/5SmQbNa41qFaRzpzb6Llf75xO2TD9Lq1nVKuWlUcPauocs7TRJF7EhpiQ0XC+sBzQfBD09yC8bBdqatRrJVbjo1KtTXYnLNyAqmrQDljG67WTNklE1/RzDx/XsXtODlpWo30cBuX2jrkzjxv+q7moTJwxTouOsOYrJWYdMas2a0+KBtOggNRXLl1Z3QPaBwnp7rFO6TM6YOl6ywJXQp/YQlqvceYpr/aJtm9d4rBdHv6FCYzhi+0ioiRMJoEVomKWLFpzvMWZae4gNm1osITCvXrNOevYaBLIXHkJ5c1WIcP2RmFPgnT1nobpvpsX5YEtoXBkv30kr1mZYOWitbIA9ZKWBZuzZb8jmNgFWBvZrxvRxWveLhKZK9QbYyyHVxasRsgUmSZJYs05SsOdZ4p5m2G/7wdk883OL0JAA0HWrLvZn+vSp4e4aRjNGLli0HJbuxWodHja0L8iEu6vfzp17pCXcf2NBmdCta3uNt+SZQ0sPz4huPfrDsvgA9a2GwlUrqWJNAkErU6xYMWTK5FHqJkiywHOEypvUaXMqoVm+bLZE+NY9bbPVv6cgwFRO1KpVRRVMdB+jcmQIstNt3bpLM1ry3LEIzcZNW+Ge3EUJfs8eHdUqyzl/9O9jJVU8w+/DAp0rV1YZNcKd0FgxmitXrpXSZYpKw3q1ddzcq0+hHLCUJXS3XLRwut3681v/fDM35jsGAYOAQeD/CYFPIjQUKmbOXIDMZjfdM4RBI3cK2kWmcaagUrlSGSlRvIhT95HPATg1iG3gbrZhw2YILZWduqiwT5bAzotr7uzJHn73lsBGAXvQgB4aI0SLAgVGXl68DJu36KQ+7cNxidMVyLoo6Ypx5uwFqVipjgoq3hEaWr1oOWBcBDXBbHRloNDfpWtfvVj3793kgSuzzbEmTG1c1gyMti0KSiLQvccA+Q31XyrDVa1rl7baFxKag7AWVa5UDum1G4BIRPZwU+MYfGNVs7XQ7N3zlwqkfGZpuMXRDYwuSpa7zCzUnqGGnAIA3emo4bR9B8kEhRUKOt2hLa0FK8RHwtBHrSfDoLnPkjmDRxyLpopF+u3FsPxQyGcaaOuZJDTK3TtZAAAgAElEQVRMq5o+XRokf+gJovmjrktLUG3arL3OUxu4HzWoX0s/27VrjzRu2h4FP2NDuJngYc2y1icJLueeRHH3rj/V7cid0Pi9fz6teVo4WKyRWcd69+rsEZNFDLgOLBc0R4SGY+/UpReIbQK1dlDIs3DhemAmQmryafljs9Yz46n69+3usRb42QOs/eKlqqoLUdu2TeHuWM7p2vCJ0NACyexnU1CDiPVhLEscrUFcp8tXrJHWqKnTokVDH99z/8EDSZ8hr+65A/s2qwuST41rZeSoiXCnmwWrcQpZsmimJ4GS46M7EPeQJQxbWNeu21T27j0Ey04BdW+yiLjlNjVi1ARZvny1Wh3tCY1fx8tYjcZN2slLCPbTfh2t7qu2+4SFQytWrqNWo7FjBqm1wZ3Q1Edtp8jSBRYlpk5m0gP2n4170JX94Jtz2SIMVBi1xJyVLVPCU2zabezrslDuMA6sKdz8qJDgeKhkWQbMeoEsVMI9YatA4ZwOHzFOJk6eIR3atVA3T+5PnnGNm7ZTxcSSRTM84UKlk0+Exrv+cf4WLFwmw1BDiIqPxQtneFjh28Odcemy36QOlD1UwFjumdackxhPQvr5fMguaKVtZowm00qz6Oe6P5Z6cdFk3baWIEkk78uWzIYVLZEH4fJr/3wzN+Y7BgGDgEHg/wmBTyI0vHgYJ/EK/stsvIRprRkzdpIK7QwI79+vm2p1fSMgByTwdDno228oYimWSbmyxSHkOq+3YVloWDhy9W+LNMmBrQD4C+p+DIXAaB/wTksDtdrUMo+CO4IlIFnjI25Jkmb0UofGVkCdN2eKl4KbVn8YE2HVfSHZKl22BjSYjyVf3pxqvaBFgUVC2YLDWrR3/0HZvn0PLBUFxXIBIqEhIRkxfIC6b1A492uzCA3jPJjEgMHUJUsW0fgEe8LSuEkboca6PQSU+vVqepAL653UzI4YMUGmTJ0JV5Mi0Hr290RoiPH8uVO8aOInI95jEuIXqEndvGm1xnywOctC1BtxHjNAxqnNbtO6iQp906bPhRvMGE1QUAAWJLJ0C0c+8wGy39GV6+bN23Lh3EH9jUVo/No/n7AmTj16DgSJe4fselnUdS/1zymUYNkKfo4ITZdu/WQl4rpyIXZq1IiBmoTCvlEws/aksyxnufMWV3fKxo3rSH0Il872sk+EpknTtkgK8LMKj7ZxMiQcFCwZv8N4L2cxMUypXrBQGcQ53ZEN65ZCOPS5Qr2ur5FcX7MkF1wyp08b54nQ8HOeVYwjsh0fyWuBQqU1hTsF9po1qngZ/7Rpc9TlM0P6tF4IjV/Hu3jJCq2RRWzqwrqmZgibxr//FaSM88eU+Pny5oYSAYSmWn3dGyRUiW0IrPVTv+4H32ans00KMBDKHZ5BntYH+lmjdhMlXaVwNvTr200/z5K1oMYdFitaAPFsHxMAsL+MqaPVlbWFGkLZwP1JSwzPmyZQRLhCaLi+vOsfrS3uSqIQsNr9qsoMtsJFy6vFmYWPuf/sz0cS2NbIsGdbh4aW6eZwAeVZREsf96/t+fESpG/N2g2wml+VBbCo0nXWGX6O+ufXs9p83yBgEDAI/NcR+CRC4x041AAfhWtAI1QLp5sANVyMK/HtBRlQgL+GYDIGmdcmwG2LPt6/rZzvo2BGgWH9+k2wOvTQLv29+y+PVK+WwFYUF91gbwoR0lKxFhl36JPNzxmUbt+8y3LmSEC1futdzMrVK9elIvznaYGKjYxU4b+Bi5TNLUrhgMIa45wYwMo4GstCw+eNh8uVre+4X/C3JTRF4MfOuJVcObPKQAhaDNa3bdQqk5BR4KIrjb1QTG3yggVLpTvcrajpXrTA3SXDljDYChzWs6eiBskEJAqg1twvhKYfgr9JYBoiMQAFJrZRoyfJr1Nnw7oYQwkZ14BtY5AzcWZf165e9En98wlnxgMw2H0t/qW1jiQtMYhqDsQZFEEmLrpGsTlaL7Tw0CWS82obw+Lonc4ITR4Qmn/9kdAwdTIJje0asCwozJBIK4kzQkP3nnIVakNxcg6V2vtASVHCx/1MhUanzn2QqGOtavxpybB1OXNUGPL69VtqzeQeGtC/mxJd+7XrKMsZiSkJjV/Gy/U8fvw0TNV7jeXheWrbuBaYnjhkyFDStXMbdZ9TCw0IDd3QuL8Ssg6PXXNGaOz3g2/Pa9/UoWEc4oYNngu3Mm09rSI8s8LCBdG+cdwk0ZUqltGYOhL5TyU03hX+dHS+JE2eySPGMTOswr7BkxZ0EprvEINGFzr784Pshm6DL+F6PGp4f61/5gw/Z+efX85r812DgEHAIPBfRsDfCQ3BogWCGvlN0FjlhxBNLVdgV1KmELpixVr4ZvdTN5f1cAmgy4ujRgGH1b8prDAwfz60d77VaDMOg8GueVA4cvjwfpo+2b75F6GhC0oFuK/RZYEB9RrnA0HcVhQnqfkKFhimNGUALptlofEPQkOL0erfFiCAurcGe5dEzEYfxPIwlshq5SrUVMFrJPzNaRGyFwq5ZqaCTLBAYT5kx6NL0uckNHzX6DHuhDd//lxSrUoFFSo944i/wvfof28JOc4EDkeEy9mhQlLDWIJz5y/KwQNHEVOxTd2MihTOrxnHGNPiiNAwNuGvvzZrLMxw7D1XLSpWH4MioSGxbIH4oc2b3a2CdO30aZxco9wn54HnDFhnmCzCCsr2qdI9UwaXLV9D91e3rm2xdos6IDSjHFpo/EJops+cJ+PGTVEFEMfEfeGZVsOFDB0PBotCChAexmgEdUJTr0ErdeckwWYcDeeJhIHutA1hIf0J8T7qs2zT1DCF78WF9YYJV2iZ+pyEhu5rJCTjxgzWJCveEZpmrToIrfSWyxkVYE2bu1uQevbo4OUcdh8S5g5jSf1zSnVjM4TG2UloPjcIGAQMAr5DIEAIDV9ds1ZjzVZTokQh9cv3z0J2vhua12+x/gADPW8jiL0egm3bQjPvSAgiUahcta6mFx4+tB9q0RTzNaFh8P4YCCU/w02I2ZSsWAWrR0wxmjxlFh9dzmyDvK3feWehoea5wC9l1BrWsEFtWMSqqqDmXaNblOUe55+EhkkBzp7ep6lh+/Ufrq6HNWtWkiaN6npg1qJlJ1m9dp3UhxtNu3bNvVjsOA5mFaJPe7Om9VRo/5yEhiSX8RsdYJFLg0xidG9ztDb495brV0ARGs4fSThxoab6PLKydUSM0VMEn2/ZvFoTQDgiNENACulOx/ocFLasoHJH++ZLtNBQg884huFwU4wYKYLMQ4wbrViO2vQZczUAnHV15s6epBY4NmcCJRUb+ZEOmC5ndepUlRbNvMb2TEKsB617rNdjH0PjVwvN2j82SM+eg9Qlcy5q6/zosIYX12AIXaNBhdAwVi1PbvfsXVajRaJUmWqaUZGxi60QH8U+FylWAWv6Iu6GboizLOxwr9meWZ+T0BQrWUmYba5nj04ae2ib2p1jY8ZGxgExcYhFaFi4lRYaZp3cse0PzYrmffs4d87Wn7PzxdW70PzOIGAQMAj81xBwmdBs375bMycxZsO2kCSFsEMgDvXqt9BUs3TnoU+8FZBNV5G18CN+hs+YvtVKmfs5gKXWu3OXPppql6l+6QpHNyy6Plj+/M+hif0HBQD7wCVpF2qgMAUzM+3YBh07EwCZurNylTpa0I7Z1FgHxmr3EYcxFP72rK3wLTLxeJcUwD5rlU+Ehp+xAOgKPC8L0pL26d1FswDZNrrbubk9BakM55EwwD8JDZNBMKaHWuxZsxdA0JwD7eM3yATWUl10KJQwALgTLDhMoMBg59jIiGRhTk0oyWZzkB7G47BIopVRztmF7l8uZ9SIs35O8xYdQA7dZOL4YVrjwj7bG919gqMehZW+2NX+OVrvFNSZwCFXzmya3ttqD5FGum79luq2d/jgNiXDjggN6580QfA01zjjQnIgFbLH+sa+27J1u7olWq6GztZzULTQEJcjR44h0Ud3zU6XDpm1undpp+uL1is2WjcYjL5t+04ZNGg0CoU+QHxXfWmAOlDWvDoTKPmcjp16ym9Ie8wMXYPhTsmsYWycK5KJniDiLMCazpssZ34lNFeR4bB6jYaqoGiCmCUW/7U9X7lXmLGQe80iqkGB0PB8oWW1fdsWHoH17CsTb3Tp2k+tHSNgrWZMGNvQ4WPVVbQwLI5MDGCv9CEp4P0RNmwYj7n6nISGcUwkqryj+vXtqvvNmnMWae3avZ/G2DBOzUrbzLXEVPGnT5+HO2BrKV+htCbfsG20LNLSyjgbNmfrz9n58jnuTfMOg4BBwCDwJSDgMqGha9BWpBbNj0ssObJ4RYbw9RqaeV7IS5Bylik2maGHWjv6dlva7r37Dki3bv2R3vmFVK1aXoM+nbnE+BeQvFR5+TMzFi8lBoBS2GPNBsZgUBvOYoUkMidQTyUmsnR1aN9Ci9jZBjA7EwBf4DkNkKKYdWPSI1C4OtL8MqbkPjLx/IE0uIcOH9VCcGxjRyNTEdLAsrkSQ8PfsR5LM7g6sNJ2AbhLkURE+RDDwlTadAM7g9S+VZFKmwHvbAFBaIgRk0Qw+HrJkpWwUCXXrFCskE1hsmmzDloHhQSProhWGmW6Vi1ZsgrVuE9LeaS47tihhZIvNmcXun8SGmrh+w0YhjS96+UnEPVSyNZGrT9dzN4hwJdWu/0HjmjtFPr2f4oFydGavnv3PuIh6qkbDoWp71FhnILzIWSPmwKXPNZG0bS0SMfraL0wHW0rZFvajnpQ6dL9rDFLzHTGmjT7kCmKsU6FIEh2Qj0MjsHZeg6qhIZC/Uxkz5sJNy0qSujaxcB8pgrnuFhL6DS07NyHN1BUtXChArD8NVXCb505zgRKztPuPXuxdttr6uwScG/LlzeXJlo4jaxWq1b9oeTjNgpK+geh4VyPGferTJ48XV2tOHdp06ZSwfgtlEW3b91BUPllzVTH2KGgYqEhoWGWtZSpkmua9Ihwhbt56xYKuy7VszY36rUMG9ZX00yzUWnTEHGWd1BbphiyOWZDquwYLNyKM5oWSa5t3iXVkLqc2cDYPiehoYKlXoMWek6XL1dS681wztlvWmdeglSSxLon3nBP20wSNnHSNJk8ZQbO+++ldOmiWoctLNL7szAvE1gw2QHHaBWcdbb+nJ1//nU3mucYBAwCBoEvHQGXCQ0rpDMNLy0O9AVmUURWbud/s4Bk7tzZpDq0i6y2bavlZiasFi074/B/qTUBOqJS/eciNJwsBvceOnQMpGulbIIm+zUuIfqhhwgRXKvIU6P7GkX2mB64csWyIBsMXvUctEq3gnUIAC2KQHjGhHjXf40XGT0RBOqIRIdQGgEZqih0UTCpi6Bkpo/lhT8Z1cmteAy6FVFwOnPmrAbFZ4LFxbb9/fcB9dHmxXj18lEPksWLlJrQmbPny8kTZ1Szb2lv+c4HD/7VGhEsCJkKFie20mWrQ9u/HwUpR6oA4socWP25dfsfuXb5mEd/mMWnb78hWt8hL7IeMWMZ/eW5ZlhR/dBhFBdF4GxkWBDoncL4BqbtLVeuFNZMBSU6Vn+Y5ad9h5767MWo3cAaO7aNWc7GQgCkoLRz+zqPbEQr4D7WpHk7ZCHKqxY2Vnu3bb1QKJEJABo3qoPMa801ixKti0w7zuKLK1GklNphWuZCwh2NhIa4s19N4RLHGBv+2dX+OTo4qJUeNGSU1g0hyY6EdaOCLDBmtrxmqE3ESuXcUz6tF5JcJsHYgTTYXAu0KpAAMENbciTF6AAyw8xpbM7Wc7YchTQpAF0BG8Gt0dlacfQ8Zohr2KiVpAXxWLX8Y4pta18yy9n4CVM1u1fvXp2cvoe/+wcC8Vakzl6G+aaiIMI33yLIPKxmB+PeZn0S7r/CSKbA2K2ECeN5ykp4GWu1fEUG/b/WgrL2Wc74DqZ0no+EFXNQb+Y+9hLd1nhekACz9kyypD/JoKGjJBMsOIxJY2FSNlfHewsWYmY7I8knOaUVmwUpaXF68PCR9icnkm8wNpFzQUGf8UEcG9/PLGf2zZX94JvLzcKPyqLOHVvKJOxHbBXsx3CqYKESgEqWxnA/TQWyYzW68rGGz8xZ83HendcMfpYVhLiSJNLaNmhATygV3MfD86ZBo9Z6PqxaMdfT+mC2x2QpsihxX7N6gUdhTWfza+1fWpF5vjCYn417hcSFVhr+OXr06DrnXE8cB89+eiGw+O64MSiC++F8uQ6SsxC/Y7wmSR7jNDl3Wnga9yL3N2MMeyA1PefO1f75Zm7MdwwCBgGDwP8TAi4TGl6qDLA9i3/pa8w6ANRCUVCl1SMmtKCxYsb0kjKWvtRTpsxGys6nKOJX3tMl97mA52VKoYGC9wnUfWBdAFadDhkipGpv06ZNDbeJ77WOAAVd+zZ//hJUbT+iwjprhXgn4FFAYoX63Xv2qQWFaT9pEcoEgpQ0aWKhT/8NCJdMg2tdotRWzoC2mRdfdwQgUwtv2y6heva06fP0grXPXsX5uIoK8CegATwMKwj/mySAbke85FnMjWTAcpViWunL6B8LL9JC5Upjf6YiUxg1kF06u9e3YeM6OAPtNYWV4MFDakYpkl72m308dvyUHD9+AtmankL4ea8CYpYs6REAHFtdT2ytYazEzsKF4cKFh/tiIy/JJVgEcw0yykWKGAkubu4WB7bjx09qoU4G+FOQtXcdo1sXSWkxaMApxFr1UOgOwjV6Cdjsg3sXCQADlmkxiof5o7WReEaDkMzmav8c4U3B5ybXJrDdtm2XFu9jagJabOgCR+sDseQ4fVovdDO8evWaHDl2Qq07dFMKA59+rj8KvEzxa2HibD0PHDQK+/uBEilq2p01R887ir4w5XBGjMMihNazaJlg7R3OS0EkM6DQ54w48bfEi0Uxr9+4jX18SS2wFIiJGdd6yuTJVCCOibOI1eHtU6zTGkD3J5JZuqPFQOIM7xoF2TNnzqHo6i4l4BRuM2fKoBZPLrnhI8dLUsxRLbjXWi5iro6XY+J5egHjOXz4uJ6zTAFMV7roP0STFMmSap0v69y4BcXIwMGjsMfjqXuv5c5kOw5X94OzuVb8ho2Vr2GhaNGsvpw4eUrXLdcmi/tSMcSilMxmZu0x65lucL9iEeETx0/LsRMntHgtxxk7dmyJ8UN0LfDLmkVWLS7uCSohfsBnJPa260Pdibv2xv5MAKt/TQ+3Q2fza+3fYMGDwV2uuafaU1xHtMLxjPkHbrUsFpoFCrrksDhT0dCj1wAtSVC9WkWPe4LriFbqq7D0845gcWWu7WBwU02EvsWJ+6PuP8s6/Sn9czY35nODgEHAIPD/hIDLhMYSJigo0QpA0zyFCGb0oqaNl413AgkPfF52b9++gfY7qqcikJ8beAqvFIZ4GVKIIOng5UltoaP+s48UNngZswq3VWTPUd9ZQZyXFrEJDy2eVTmaQhGtRVGiRPEgfbz4aN16A00syZR94/fpksRnefc5v09Xvn+hxeWzKGi5V9L+Rt9hOx8f3/+dt6TNN3Nh9YfxUfY+8JxnWm7opkMtpW1QLbWUjx49QiX2N4o7BU9qtb1bL1xf91AHKASyOkWP7h7Ibds4fxQ8QoCM2n5O8sQMVZEQMM7x2z+bc8Lf0XrBObT/nP2nEEtiyHgTCrDhYQWia4l74VH3XrjaP2f4qmCEtWDtK1pnKKja9tPZerFfD8ExBrqskcjYPsfZeqZl6g2slrQyWi5DPvXf0fM471x3HAf3mG3jOuBeIeZ8D12W/NI4R6+RDpe/fwWFBZNmcc6oFCDBcESOdJ2CQLLRimUf/G3bB7WQwELz4uULrZVCS2iYMKHVckLiy/dYZ59i/4njZd+ICf8lPuwbzyeeIbbnE9eBd++37fun7gdHc2HhR6LI/eeO0UPdF9wnLNjL+DRH+DO32Qu784CEneTNft7cz5t7EhLPs08Lz37QrZD4cF48lCtO5tfav5zPH0AWbZUpHLOj8XA+vHufhRM/p5WJ5xPTvbM/XPdMjkOs/Kt/ftkj5rsGAYOAQeC/jMAnEZr/MjBmbAYBg4BBwCBgEDAIGAQMAgYBg0DQR8AQmqA/R6aHBgGDgEHAIGAQMAgYBAwCBgGDgAMEDKExS8MgYBAwCBgEDAIGAYOAQcAgYBD4YhEwhOaLnTrTcYOAQcAgYBAwCBgEDAIGAYOAQcAQGrMGDAIGAYOAQcAgYBAwCBgEDAIGgS8WAUNovtipMx03CBgEDAIGAYOAQcAgYBAwCBgEDKExa8AgYBAwCBgEDAIGAYOAQcAgYBD4YhEwhOaLnTrTcYOAQcAgYBAwCBgEDAIGAYOAQcAQGrMGDAIGAYOAQcAgYBAwCBgEDAIGgS8WAUNovtipMx03CBgEDAIGAYOAQcAgYBAwCBgEDKExa8AgYBAwCBgEDAIGAYOAQcAgYBD4YhEwhOaLnTrTcYOAQcAgYBAwCBgEDAIGAYOAQcAQGrMGDAIGAYOAQcAgYBAwCBgEDAIGgS8WAUNovtipMx03CBgEDAIGAYOAQcAgYBAwCBgEDKExa8AgYBAwCBgEDAIGAYOAQcAgYBD4YhEwhOaLnTrTcYOAQcAgYBAwCBgEDAIGAYOAQcAQGrMGDAIGAYOAQcAgYBAwCBgEDAIGgS8WAUNovtipMx03CBgEDAIGAYOAQcAgYBAwCBgEDKExa8AgYBAwCBgEDAIGAYOAQcAgYBD4YhEwhOaLnTrTcYOAQcAgYBAwCBgEDAIGAYOAQcAQGrMGDAIGAYOAQcAgYBAwCBgEDAIGgS8WAUNovtipMx03CBgEDAIGAYOAQcAgYBAwCBgEDKExa8AgYBAwCBgEDAIGAYOAQcAgYBD4YhEwhOaLnTrTcYOAQcAgYBAwCBgEDAIGAYOAQcAQmi9sDdy+fUeuXL0m30WOJAkTxv/Cem+6+19B4M2bN3L8xCl5/+69pEyZTEKECBHoQ3vw8F85c/qs/PBDNIkbN06g9ycgO3Dy1Blxc3smSRInlG+//SYgX+WrZwe1/viq01/oly5euix379yTH3+MJTFiRP9CRxH0u/3/dJ4E/dnwew9fvHgpZ86el1cvX0qaNKmCxB3l11EYec9viPkroXn27Jls2bpTHkKwCBkipOTNm1OiRInstx4F4Lffv38ve/bsk0uXr8p7/ONde/36jeRHv2PFihmAPXH+6L37DkI4Oyfp0qWWn35KJMGCBdMfrVr1uyxYuEy+/z6qjB41UL766ivnD/vM37hz566s27BJvo8aRXLlzCpff/31Z+6B/7/u4MEjcvToCZ2LDBnSSvDgwb285OWrl7Jt6y659c8dSY95S5Y0icOOrMQ8vnjxQnLlyiY/RI/m/x0O4Cc+dXOT9u17yM1bt2X2zIkSIcK3AfxG54/ftXuvDBg4XNKm/Vl69+wcJPeG81H47huduvSWU6fOSueOrSVz5vS++1EAfisg+/Py5StZuWqthA4VSnLmzCaRI0cMwJF8/kdv3LRV7t69L9myZgJJiSmPHz+Rdev+lAgRI+r5ECZ0aE+dGjlqguzYsUcK5M8tDRvW/k+v888/Gx/f+P90ngQkzpS7jhw5Lteu35BHj57gVe/lu+8iS/x4cSVJkoQB9uobN27K4KFj5Pq16zJ0SF9JkCBegL0roB78Jch7ATV2V57rb4SGi3bLlu0yeMgYeQ3tbZgwoaVb13aSJXMGV/oVIL95+tRNevUeJIewuQT99a49f/5MevXoJAUL5g2QPvj2oS1bd5KDB45Knjw5pEvn1sAzjP506vQ5MnHidBUgN/65MkheZhQ+Ro6ahEMrkvTp1VlSpEjq22EH2e/NmbNQJkyaoURl8KCeEjZsWC99vXjxknTvOVBu3rwt2bJlkr69u3g7P/fu3ZcKlWqrZr038Pk5VYogO25HHXv0+LGUK19LzkIDdmDfZiguvgv0Maxbv1GaNmsn6dOnkYXzpwXJveFfIFWsXEf27z8kY8cMkcKF8gf6WAOyP6dhdWvUtJ2e2X2wp3LmyOJfMAb6c/6B8qNZi45KYurWqSbly5WUNWvWy8jREyR27B91vLFBcmxbm3bdZAMURkWLFJRBA3sG+twHOogB1IH/p/MkICB8+/at7D9wWBYtWi6XoUR+DgXeq1ev9VWhQ4eCojOM/JwyBUh5TYkWzf+VehcuXpZWrTvLuXMXZN6cKaoc/tLalyDvBSVM/Y3QPHz4UFq16SrHj5+UN2/eSiho0wYN7CF58+TCgRs0hvzvv4+kZatOsg+CAIlW8uQ/yTsSGxty8wrawPLlS0miRAkCtdOt23SR3Xv2S+lSRaRVy8Y4ANy1dFOnz5YJE6bLN9+El82bVkswX4JL61m//sMlYqQI0rxp/QC1mqxesw7EdrTEjPGD9O3TVRInDlws/WMiDx8+JmXL14R2OJL8vmaRRIX1ybaR0G+FdZLCxuvXr2FBiyLLlsySiNCy2rcNf26SFi07KS5jRg2Ge1Rs/+jiZ33G4ydPpEzZGkJh8/DBbUGC0Pyx7i8lNLTQLFk08z8t6JEQ74MVd/y4YUGC0ARkf86dvyh16jST0FCS9evbVTJnCnyLlH9ttkePHkvtus3kyZPH0rBBbSlbpoTQYkPFG12K+/bpJj/GiuHpda3bdpX1IO8kNEMG9/5Pr3P/wtmV5wT2eUKXqYWLlgndOUuVKCJZYcH7UhrvwzVr18uUX2fJ1avXVQEbPfr3HsTl/Lnzcv/BQ3n37p3EifOjdO7URpWF/tlIaCjvUek2b86v8KxI45+P/yzPclXe82vnKLMsW/ab7IIHU/261eFGntyvjwgS3/c3QjNx0nSZMHGaFC6cH5aaHcoRgiqh+XvvAWnRrCGIS0kvk8CNSCE0VKiQgTpB1Cpcu3YDxCq+ur9ZrmVk7BMmTPMzoXmAwyNz1gISP35cWbTA3cITUI2+x4cOHZVIkSLC7Sqxh3UpoN73OZ5LMlyuQk25cOGyTJ40Eu4eeTwRdcaU8A0msEQAACAASURBVPAePWaS+urSgjNq5AB1I7FvPXsNkiVLV8IlM5cMhUBCTdWX1oIioaFGtUnTtqqJW7xwxn9a0AtIAuHKWgzI/lCwI3njvkqRMql8Ez68K10Mkr+hQHfs2Em44jySZMl+UsUArZ/79x9W17pkSX9SbbZtI6GhhaZI4QKG0ATgrAb2eUKy2xYKMsor7ds0k+o1Kn0xZxoVgO079oQMc13y5c0tJUoUkrggLpanyZOnT2UvxrVw4XJ1RUuXLo0MG9pHokf73t9m1JbQzJ/7q1ruv7Tmqrzn13E+f/5cOnTqKb//8ZeMGj5AihX75YtZa7Zj9RdCw9iC5i076kXTFhuvW/e+8gqxKEGZ0HRs31Jq1aoSZCeNxIqsOWTIkJ766OoC1wDipBlgFUgov69dBL/sgBWiX716pXEm3sWa+HWzBYXvv0RgYc9eg2XR4uVSpXI51RTbxi/xQGjTtpta/8KHDysPHvwrDerXkKZN6nv6Hue0bPka0FrdkGawlNHNJCjGQTnD3BAaZwgF7OcBSSBc6XlA94exjTRGB4XkE67g49NvSGrcvRo+KtF4fgYLFhzj9RqrZwiNf8+A988LbELz/PkLadykDTw19klXWDC+JEJTu05T2Y44r6xZM0q3Lm3VfZJhCLaNSsKNG7dK/4Ej9K9btmgoNar7H2kzhMb3+4RnUBN4N6z9fYNMGjdcihQt+EXKJZ9MaCh4N4ZW9O+/D0i7Nk0RO5BZqlavD1/JoE1oOrRrIbVrV/XVpP3zz13ZjPigi5euSCgQjIQJ48HtIYOaUP3S7iJ24q+/NkMjcUvd3DxF8eC/f/45hfyC2B0KuJth5dq5c49q4Zihw5GF5gp8U7du2yW3//lHwoULJzmAP7NOWUTi5s1bsmjJKnGDRmTW7IVqNSlZsrCECB5C3e3KlC6KTEmJfDUMWl62b98lZ89dRHard+p+lTtXdlh94ngkLeCD7iADz6/TZsH3+0cpU6aYhPsQb8JkEUth1gyOBAfE/in69OdfW9TqwZb655QI+s3i4V5n3ymSioMHj8qhw0fgouGmB2Qq+ODyN/bEifNFLWcFuA/SpE0NL1343BDMHh1ZsIog7iCaH7RB3PArV66Vzl376O+2bFqDMX/0pXwMrWqhIuX1XUmSJJLFi1do/NPQIX0krE1ShGNwyWzYqLUKMOPHDtEEA2zDh4+TbyN+K2VLF1dcbZsjPK8j6HHJkpX6PsZR7Nt3SLbt2KVuiEUKF0Q/o8AS9Jsm6fDi92m33qz3MWhz774DcgIZzJ5DMx4pYgRJBxcuq5/W93xDaGzXyzv4U4cLFxZasrSSIX1qL/PFuZ05a4FaHjlnV65ck9VwWWCGmlxYY5kypvOAhOSc6+b8Ba5DZFlDjNYvv+ST9dBaUwCgJs7WQnPo8FFotDdL9uyZ1WJ2Gsk2tmzdobhExPgKFsjjY8DopctXZC/ON+5/7tl4cBHMkzsn9n9UT/Pk83wUQEKJxL7aZ7ZfOnPmnOzevU9u37kDbL7B+ZBHEiaIrzFYPrmcXUJfKQjduHFL3r57iz7HkeyI64oZ07P7Er+3fOUaHVPpUsU0acpOJFfgeVMMLk1cW75pjvpD3/kVeD7viVIli+lZYTXfnifW/ggXPhxcsop7uHtS6F++Yo3QJY1CE/3zt2/fjRjJY3jfO0kAazQtqY6ywNGqegruPAcOHFF8Q4UMpThQO0lFkm3z7/OEzz4Lt5tFi1fqmsyTO4enLcrzZsfOv2XT5q1SskRRSZM6pUd37AnNYYx3796DUKI8VFdXPouWeEfNt+uZ/Vu4cIUUL14I52wy3F1bNP40AmL/uFZs7z+60Z45c17c4Nr81VfuCWy0Yd6DBw+mik5bxQ3HR+UP1zD3M8/vDNi3THBhuVfb95/f+/vv/XIQ+/ktzk+e/1yf+fLlQhIiz1kWg/J5wripPRjHeaxbykkxcB9lzJhWktokkVmBu+bY8VOybdsOjcnMiPOPSWYYl8I7pnKlsp7w5FreuGmbnMZ58QJEKDzO2oxwzUwL2cH2buS9OX3mXL2vmzWpp3fwepyN5y9cwpoPgXlOruvHOyLtm3OA3+F6rFGzMeYnlPTq2QlnVj6Hik3GjtVv2ErvmxzZs6jFkXeAtT98u/4YT7gfiXse3H8oP8Tg/V5AniEeulnzDhpDY2+hGT58rETFPV4OLp48m/78c7OcPH1GQiGZFWN+eZ/4pGjchnOGZwfPMCbtSJEiGRIgZdFQC6vZn08PHjyQZcvXqKtdEoQ0lC5dzKn8aa/APgf3Ofv7gMkVrKRR1rsZp7tv/0G5AVmTfeQYeaZ5d77NX7AU9+11yJE7cMddhkUtl2YJ5Z2dGEkbShQr5OU89O1a+Nzf+yRC8w7CxNrf10vvPoNxsCSWcWMGQ9B8KpWq1FPrQlC20HTq0Epq1qzs44Ki0PnXxs0ybfo8eYKNFwwHc7APh3V4XK5jMV77WArvJpCLicLW9OlzhVqJkNTEQTKia4G7FSYUNkUoPZg7dWylfRo6bCwIyAJo+WtKI2SysTaKtcDpptStSzuZMWse3BUeq4DMQ5xWsnLlSki1qhXVVWEfhNPefYfKs2fPhQcpFzUFZgrjzB7EoPT/tXce4FZV19peXjXR+Nt7j1ewkViwN0RFUOm99957hwPSe+9dqkqTIqBSBNFEIoqNaNAgqChBoti7//eOfeZ2nX12OwcOgZu57nOfJJy9115rzDHHHOUb38DxTtbmxOHDhp8z7wmjCz1Oho8LB4LfKFumuAxsBcGsImxmMJqQocknuBwG6o+XRnpEcG7oMaHs3LlTq2D06MnBhyo3E1gBKzlO8i1S5B71DDVTleOkLKL85JO9wZixk8354IA8RtnLX+So/aTMbYE/XWV9Ru53+OLQYWOCZctXB927ttPG3ha88OJLtqmR0c8//yLH7nwdss10iBZMaVTcg7z++puqRHYNeJalS+YanM5dBBNA0uopUMMgNGjUyuCCo0cNMjYXd81fsDAYNny8rcGTuod7zxtuLCQn5DILgP73sqyUw4nkCfNaazU9EszgxA9TUETARja7RPFiQZMmdYKOnXpJxnuizhJZXw4xHIIH9b3evTrb+yMbaJjHjp0S7BbUEf3g3zlAWf+7FCg3a1o/2iuTLKBBxqtWPyv891IFt/tsvbggC+HAKKADo03rJlnW60v15GA3MLiVKpULRowcZ4ExBzUB/aQJkSweDtDkqbOiQbDL2BN0QWM7Ss3UfD4c0MybtzAYM25yUL16JR30J8nBfsoCJfbeD/r/U075f0HTxvXkyD6YRRdgoXtcgal9Xs4zF1Dan3/+KThFwUVtVXiLKRhyezPZetDvkNGzY9q6xt6c/9gi6dnK4LPPP8908n61PpLaNatZpfCVV7Zl66GhUrh48YpggbD36DmyZ23576fIUSCRADuWc9g3KUHRo2c/2wfAhUeMnGAN6si9lBxZsO3pVBDjBTTvKxAcNHiUEhBvWDA3sH+G0Qzn1J4g9xtuvEdU9Wdof/TW+l5na4Hd6yyYBLjvp1ctCoaPmGA9nARwrO3PP/1iSaJeGZ2y2Wm+O33mXHPSscXou44z2YfvTI+aNqlnmH7nDOaFPVm77rmgZasuQR2dQ506tspWyQXCDYy1fr2aQds2TaN/dwENe5J9v1x2Dj3+UTr6g9btbMHWQB8UVzIsXNHKqT7zfM1bdAoGDuhpsp4xa56cnF9tL/C8FcqXMgdo3Lhpcr7fsn2AY0W/5ldfRYIUzqmfZEOeC/V74jxNmjzdklN85hh9B30jCCUZ165NsyyBtwV3m18KZs99LNip32MPsl7oNOfWJTpfmjapm2W9jkR7wjtCnDR5yqMBkCsSe1w/6/1Yp9KlHgqqqvqPjWrdpqsFBhAZIW+cfBJC2HbOHXrnnN3+29ZXg5kz58kmEpQI0aH/+/GnH+3vJBzxIVySjLOgjs5m7MJIQYs4M/Z8/LHJn/5h1g9mvc6dWsclvslyKCf4H5MmzzTotesRJQBLdrnP0zMWOS8j5186+odejh03VfrxFyMd4P3RDSD1JKqWLVuthEf2gAZ7wjlRUTr8hBK+yICzjqoYAfWtt95oDJLhZAh2FBlPmz47eOXVN2zN3BmJzblWQU3TpvXsvEeOYfu0/tllQS/1xW0TFJ+kGOfHjBnjFMwmp10P+3v4htgsAlbsG89Kghqkx4MxAVjnrr2VnHo58xkj0v9J9pA9drX0B5+SBDJXzdpNgj0ffWL+KOfHGaefrnPmd6Zrt6nXvLfs59HCVHtQAc3HomwFZgPX91hlm++8/RZzWqvVaHREBzRbFM2XfLhYUOge2HIyXXnjBvjFDojzM5WMd4GOdPv2d4Lmcuby5VNz+zG/Glxoq9g7unVrl1IhUZh/qjmtQaPWpoj07ZAFoT4D9SYN9GzCpk3q69DPp0x0pOG1b7+hCqTmqlG0jhzv5tkCGpz5C9R0jxG4Xoc2ELLX3njLsNW/U5DRVcpfWo2En376bzWrb5ayfhkMHDQyOFsZvIYNagUnKqj4Re9LVuQSHeDJro2b/qLnGWzZJJyc65UtZCPjsOA84XDhyDeoX8v+HdlUrd7Ang0DlT9zXg4l4JatOpmRZkNjEKD2JqtIRn7Z8lUKiL8UO1h3VZEejh7gGIaMXgMUlGzR896miswdwWmnnqZ3OhCsV1aK0jYZ/L59ukUdF+SHM3rJJRcF3yqYu1WZP9jEOEjWrF4X/F3N7IUL3xn0E2kBFJLpXPv3/9uglQRVOOQYBefsjR03xZzBIYN6Bw8//IBVawguODR4Xj7HoYFRe1IZ6/LlS4tauEv0+5fnv8GyjWNGD1YGPiu9ZCJ54txTJiYbC8QNqBuVQ+RLwFZXTs26dZvMUKHmHHSfa62mTZ9rgR1OUt06kSolWOcu3fqogfI9C1Cvu/5PwR9OODHYq4Bk+YrV1vxfQQxMrVs2tkpgsoBmlgLx6dPnWJB6b+G75FQWsETAXgUoq0VHC7c+mdhePTuZDnNxv9Jla2RS1P5qATprzUX2tUuXtqo27Am69+inCtIr0sFrtX53mZNOFQMdIMD+9NNPLcMWDmg47IcqIwclLkHV1XKuMdS/6Deef+EvZvjRkzHSVTfbicNt+crVwZChY2XgTzPnDdgE/06T6WNi7vmDHIyMHh2DO2T3OMCSrccFWo8m2svpBAd2mMvR7p7Rz5xyqjLYDPSJ6snbb79rtooERZjlDP3iuaZOe1SH8glW6YJwgmoqNnrR4mUGY+rfr0eUfXL9hk0KenvbHiQry56kYkDQi2PPvk7nmV1AM27sUKsqs1eGiDIV3blFVcjWSjiQ5cfW5dSeII/L8xe0YHqMqOpvzSQFIDnUSvuRTD92e6/0iuQM74xNevLJVQrOPwxq16hs+uPeA8dkiBIeVDfJivO8UKdzmJM5XyGWMSpJj/TuEhS4JsLQmBf2hKbzRspOYzdjg10cFuwJvans4wztFff8LqCh8k1Cjb1w1dX5pM+/ZOrzVtv/sCyS+efKjT7zfE2atjP9e/2Nvxtl/Z/ltO3atdvOltsFJxowYLgotVeZjcOpouJJ1W/e/IVWWeBzZK+rVC5rz79v36eC7g4yOQNHIvlz2qmnmi0nuN6ks+amgtcHQ9VP4TL16Ev/AUOD/TrL2Lc3qcJ7ggKlA599YZVWEjFkknt0bW+EIEeiPUHnXlSlFVp59LZK5XI2Q+pY7TdsLw3ZIDiwyRBDQBn9rpAQi5es0JiJXca6erv0nnU8W5X3IvcVNnlSbe7Zq798jF06d4poX99iiIBPZBtWK6lElaeMEBk9e0T0h3OWxBHOMAm3HzRqoOgD91u/1m79jeQNyZTWrRsHtWslT/gmOjPbdehptON3an1HDO9vleWk/oXWsJFQC+dpD2KDSUJwpdK/O1RxniZbN2fuQgtiyshnoLJwQHt/3frng90ffqiE58+WoJk/d0qWHhrsCb934om/V8XxFAviQF68L92GlQ072aJ5A0HgKtt/56Lq0bffMNM5xlHco0rWWWJy/VwVkOekoxtkS3nn4cP6WdLW2Sf8zQe1fiRWC+t3CLY4y3opmUjwkOxyAU3E3ztPVef/tT3NWm4Wguf55/+qHusLghnTxtqed9cjfYZYceGyyy6x84uM5oHPvwieEULoPSEb7pLfN0zJUwIVqqucyVS72UtVlFD8E4RZOjcu1L05D44WqG+uAxoOz1mPzrcMXLOmDdQrUN8iWzZM1eoNj+iAZquiZBx6qgvRQ04Bxvff/aBsVIYZWfDaOJLNWnS07Ma8OZPNkeMi00WgcOGF56XV8D567KRg8uRZdnB2UuaDDURacM+evRYwkVUcNWJgcLfoSB3OtF//YdGApl3bZtkCGp6jRvWK2sTFgzO0qXAYOcQJWoCgcfBMmzrGSs9UZ9hcd9xVzKA187S5XWMtGbRkykqZv5koU8kWkUmsoSz3Kfb8gTkAVG4G6DcJAtlUwBCQW7UaDaMBjXPQHaYVHcFoESTS00Nmj3tNnjLLMhD3yVBM173c2jymuTsDB4+W85HfnDEMEU4uOsihCbseVZNuqsbgjPM95PeoqJbJgLRq0cgOQrItkYGQb1sFifuMHTNIcI5rkxoV90cOk96PDDYIDU7zgnnTos8Ibe37O3cHOHSwqXQTNI2Aql3b5pYhw5FDZ9q062qwiZnTxxsEyl35r7zRZEEAGC+giSdPHOhWYnEhcACOQJBFNozn5ABlTVh7DJM5NfrPKapuzJ37hAVBQN4cBGnEyPHBJMm/SqWy2ssNbI3J4n2v7OBOBaING7e1DCEHDu+eKKDhQCCrC7NNdelndWUcMeDsp++//1GMPW8HXaXz3377fdCyRUPpVKSPzd0PJx0SDDKEV2XOKPhRgQqGlcO2V+8BykqdbtXRSxVgoLvMxNmqw4LKDcHGtdcWyBLQzJo13+YRnHrqyUH1ahWNHQrnGBlRIaxbv6VlQTt2aGn9UTwPcqtUpU7wkfRr+NC+5iidqACPffuV9sQqweF6ZAwIatSoFPQUPT0HWLL1oAoJ61+6V+Uq9YKtqsBVq1YhaNywjuku6/qx9PypVc/aQU7QN2b0oCjLGbLv1CnDnBj0iEAiklmLPDMBzSjRqT/wQOFg9MjIDKsNz21SlaOP7vWjBU3NtPZUyciqEwCnC6t1Ac2kiSMtudBfji7JlRsktzatmkRhsLmxJ8gs/5U3WeKBgAb4DZdjrUROFylYbSdnkKwj70xAQIV22IhxBnndvGnVb5W0V18TNLG9ybRP726mz5xdOA3AQQbrTFu/4Xmzdw4qlRf2hB6NSEBTUw5n1uodzz9y1MRoQBP+uwtomPHWSLpRWPbyZFW0TZ/lKJHd//jjvUqalDSbCCQmN/rM8wHZ4QwpWuw+26tnn3WW2WpkhxPUvFVHwZm/Dh6dOcECYGBL/NbSpU8JGTDYHEKq52SSuebMfVxV1EmWQCD5Q6DvbDl7v3MXJRAF5aGyT+WZe3H+bFU1EgRDS9ly3vtYOZlkkNF5nMwdgseRJOrWtY3mFf3+iLMnyKxb934KllfbWlNBx59gD+JPUN1tKVt+zTVXBtOnjLHzAohSp869RX38qskQ28V1rBIPBC0//PiDkAjjgwWq+j9wf2ERCLSwKiZVLxJWbyjBmaHgkSQWZxXMrc4/I2FBVbuhzqarlEjj93hGxm6w7lRXliyanVYyI9amlSlX09YD+DyIg1R9tMDFqtdsbDoS3t+p9I+92r5DNyWcd1j/DUknyHg443fqLKbCDRugVbtjAhrsCf4ffgF9rFdINs4P6SfbRUKJ9onhQx+Rrp9qZyiJjp4Z/eXsXx30UfKUJAh9b+xV/BCCCJIrM6aPtSRX2D7xblR9CWiOE0oB+XNWp5KNC2jM36shf0/wUzciAUhoj579lVj+wJK5vL/zmUjGR8iJTrQ9STqT/bJZCbw+Quzw75BDMYQa/SMJii8KlHvIoEfkqxax73APfNJ0klrpnm15+blcBzQ4AgQuZ3HIKKtM9pPraAhoUDpKsVQ2KFtz4Bt7s/4PI+rwxxhRMoA4jAxmCkOzODy40lno9h17muPfuHGdoJkqMe47bBLu/6xK+z27dTQH0P0tVUDDob108WzL0IUzj2R0CGrYnDOmjYnicukXuPb6u8xpXqLvRYKq1Bc4TA5IXhejcFkMHOoLVU8eLlnFHMJRI/trI9+aMqAB04qTWFTYWtcIizw3yInoIGaUn2QgoAJ2uNCKlTTvRNkqMiYYnzBeFBkOlAMyT3C4ihXKRCFUyG+GgiP+rWuXNlnok1nPsuVrKKu1U47xUIPgpLOOSIsZOxygyH/enEkySpdY5ua+IqWVcRMN8+ghZiSAGDZUVY5qzQhlbDC0jjzj66+/FeX2sixsTbkPaLra7y96YpaxJEWMF9XGX7O9E9mXtgr+/qV+gVEjB1mWycny9juLWil82JBHBC/LOucDR7qlZmU8q+zOhPHDgyI6PL/8Kj5t8xNibxus4BP9WyLa6vNjJpmTEezRc4A1HzJPZMjgSCbWBTTgyieMH2ZJBcfuxLugXz10mCxST1AzJU/a6oAPB+LAXB5Xxr2fKnMEH+EKDQHNINGIk3Ui8ws00a33zzr8Gio7CONOOWGagWDyt01KCtSt39ycKHQ1NstIb0rxkpUtOzZ/3lSrOEYCmvTXI9HuIygrV6GWZdYGyemDYj5sMzjIawkmQGWKANrNoYFdkn7GgoJkTZ0yOgoBdb+zbdubNpfhczFqvfLyc7b2LqCh4gMkjH6lZDqU6JkJaHBM+vftEZCRfEH9HwULXmtskmSCHcQtN/aE30wW0FCxqytnu2XLRlmgEQR20N9zJi1/cl7UFuKwzFcFoYySHxnKXMc2K1MpxpGkQjhyxADTz7ywJwcT0OCo3aMho8yhCTNWsleHC9I6S1Dk61RJJ3BlCHNu9DniUHa0KipzPMgAO3vBnnQJPxJDnEVh5wxb93CJyuq/KWb7B/uH0wREkGARyFrtmlUNxu0u7jlwkGz5/Cesv4AKE8485w/OGCxYIArC9p+gfu68x21MAMHAKL3vxUqIHGn2BOf2rkIPmQxnzRgfRYG4dzf67gYtgjde3x789cVnbYYb/4Z/AMtZvJ5fglf0G0jy/LnTxBR2XRabzzkHbfEGVRT6CfUAOoREE34bAQ9rgJzpC3YXyTrGO7AnFj0h+62zLKfXvfeXskocdikdWvFIArSRVffCFdhU+kelBP0844wzg8WLHrVB3u5CL0h0dO/RR5WnD81Gh1nO8l9xkwbXnmIoiSJK8DC0110kYkgU4ivh28LOhrw4fx4XjHqs/o2+slg/BCgasqPKRgDK+iH/LYKjl1cvcUf1bbu9Gu98jifn3yBn2f09nqmDfMu1IlZgHbG9YV8wnk/D+VqrTlNLhsHCSuDFRVADfJ2q2Bj5BmGETE7X/z/5+VwFNBhNcNer16yz4ZlkxZ0xg2q4ctX6FrUOGdzLmmePlMtFzBgIsoZV1FgXNqYoAFlod/jSZEmmkY1DVpimRXDmQFbIFsY2YiV6z/5S8nnKouAw9croHL0/WbS27bsZlnjyxBFB4VAvS6qAxubQrFue7RlwhmrXbW5ZCvDmhe+52x6Ld7m+YCHL0uQkoAG3TFYX2QAPi517gwyefmadfuF/NHAyQ87uvYbtT1ahScQL7xxC+i52vPOyvRsyqqCAhowG3OhUxbKwKSjzv2PHTmVp/m6Z92E6PF2FxkH2whUut0apmqoTrSUUk1Wk32R9OHAffJBm9HUyXN3MyA3s39PWl+wlBzpVDubWkFWhrwRDWbrkQ1aWDhucgwlokNfb27dEHdF4z07ZPUPVjTVr1lvvWFtVcxyFJs2NZNWoYNwouEe2JmrJ+LXX3hJM7x1VdYaanIHuxZtDAzSQ0vUNN/xZWduJcffIo2r+Hzh4pGF5mcNj09FDc21e3rLeqmfhC7hVvQYtrSGSbCODS2MvNzcilrY5UqEZbRh7DiiXLXbfj8caBbZ80uQZlrkroIxc7F6nZwGGHuuFWjrXYDNh/U21Hsls4pqn1yrw6GZVNyowVKxir1j9xSZP0MBd+sxIyCD/rKwjga0ZvV44G/9899UsAQ3vRxU6t9O0eR6cWJwAgj36kqZOHqUEyGXRHireITf2hOpesoAmkcOXiOXo4RKVjBIfOQGjirUn+/btD15Uzx0ZbCB9rHEie3ww9uRgA5pEc2joJ6jfkB4+5lypJ0HvmRt9dixfVNMXL5ydbQ9QAWAoKMmEZ9Ysie4rnLU5cx43KFRtBZr0MVIBe1+BJQ4eCS2qbOeeK1KNMDOO1pmzARhVESWZePY5ClY4f0ggPb16UbbeSuS/TSQB+BxUE6lMUqU70uwJ0F/6KtnLEKwcH8NeR0X0ZSUPdyhx9/q2zXZehP2VeAHNK6o0tlJP5/79++WXPJCNGOEYwbBe1n7fJUhb5w6tg/r1a0QDmkQ9zkBQu3SNVFUWKAjIzYw04GPoYCEF3KPlNCcieXB7B8QCTjaIAgKaazMHTSfTPxLR9Bj37TfEIHOTJg7PlsBLxnJGQHOmKn38HusRPovjIUxcTxa6y7gFiDFiL+CtnE9UdvHzXECDfWovpEYDQf3TTZy6e2chBYjj73Xu0tvaFh5Qv9AoJV/Cia8PPtgjooRXRQywR0RUe8x3+1oVzxdf/KvW97gsPe5U59ooOEbmo4UW+q8KaOAYr123mRl6SsrhxnhwruMmTDN4BLhZsK1X5M9nh/N/+kplIGKfj+w/zEZUV4BxgXvkwsAzMLREiaJZshuJ3g/DD24VOaHsYGcx+uA8ae7FiSBrE3a00gpo4gzWJAPDb5HRhpQBDngcgtwGNFOmzQomTmSmRyAoyc0WqIZPIf4dim4y8q1bNVIW/JqUFRoOrXi88PECGvDYZG/YcDiXpymrwX/s9AAAH09JREFUEkFQuZOQZl7Rnuq5yFjWy6RBzgsHhF8lUASutk1ZsWpVK4rEobX49jOkI88Fbdo0CerUikCoOOSBa3BATJk8Wvpyt/UUTJSTPGvGBP3vQiZTdx1sQOMCwEQ6SHA3XPAb8PZkOsPNiMi9Rq3GCmhONagBEJWsV4QcAPgZgRAHQCLIWSdV2BioFmtgw/ejEtdEbGToveuxCt/vtVefz9bXxN/LV6htzDJUF8g6x16JaFZdQENCgt9LJ6ABPoAzlU9EDcDywmvltI8mWipQNJ0Da4qnv7mxeY8C5VXGmcAMpy6W9Y57xgY07Eua4mfMnGPkEpdecmHMPok8CZ+jCXvm9HFZIGcH48C456H5v2TxBw3/zz5p2bKhIIzls8xRyY094f6HMqApVLi4ORtU14ABQm4TtmlU6unHAloC/BLijrywJwcT0CSbQ4ODX0mQxXAPY270ORVtMUmS9pqJs1nBH0maouqhAfqGzZ4ybbb1s1FBgmkO/YJJi4CGvwPzBfYSATqEbLlgf8iengageG5SOmsQyyzp9tZnnx0IbrmNPpDToxn+I82eLFWSp31HDUkVLA/2vXjJUGvM17tPnDDcMvmp/BWqylSEYdikh4l+kSwRoowW5C/Y7UZypuk5TIWgcRXbg7EHVDKWCClynaC/o5VACldO4tlDAhNQJUYiYBWRCIlQMv0zSKagixPka8b2mLnfSBrQxIGwuu/FC2joQy2rpB8+IANOHaHDb+8T8UO+EbQXUib6oMIBTU5YdcMySjWmg4CG85YEQDigIXm6QDN+du/erbP+fEvUG+xbfdD4o6AbwqRd/9UBzWwpYM9eA83QUybMUnqT4wNeG4edrApBQdUq5VSGa5bj6DQ3zkCy76QyEPG+C/adpi8yejRDPq/MA4EIDWSUFYuqXJkq6gZ+gQN3lvDH4pMKToQNTPfdt+/fykZcY4w0NF6F75PbgAZa4IaN2hoT05DBqtBAB6oXy21AM1dQLppTKUFPED+5Y6wKy4rnZoP/UXA0enJS9dDkJKCB6Qp4GE2M9KLA7OPgftFnoOFdz3DWmWdGMf954YC435spth+wxrfffrPm0fQI6gmaxKE6fpz6ZzKHd7keM5qJYZzD6cXJgEZ75fLHsjnk+a8sKIMeIQXgwAtfEXlCsnB5lh6bdB1ovk/QBR69d6+uprPhPQvdasnSVcxxh/nt0ksiB0rsxXfAvochYpAFAA90uN6O6uEAToZspgkLHm9vcLhDf43DSIABDCMVDTTVhdp1mhmsCWx3vCFpwPyaNG2bjbY5NwHNyFETVO2YIhKMYmqOrZaQtvIkETHQy4MDkO56pLJrywRr7Nz1ETWkX2UVmliqZb5PzxYODWxHQDtchWakWN6KPXBf0FzwzNgKjf2u9grwCiopXIfCgeE+FmBpbYYLmvupCAHo/7j44vODbl3am3Pq9CA39oT7H8qApkSpKpaphtWuWtXyRv0de/G8p8ipvCgTZpUX9gSHDVgqxC/dRTsd3ivp9NAkGqxJcqVF607Wi0dATOIgN/qcKqBhndsKpoLjCCTzR/V08J/0M56u4dTlRLFdUc4d6AauXZI5AQ1Jie4i1Cl4w/VxbTl6S/WGpIULgPE11j6zNG62H9KdBx+uYPuE94Up7UizJ1RzqTBjt7qI4fME68fLfkEScIUgmjicqfwVEsstW3cxec+eNTFu9cq8WDnaNMtjtw9HQAMNcJ++Q+xMmCD7RE9jogvoE9BeeoiwE0MFQcb55kqmf9i7aSKeoYf7oYfuF3IgwvoWvkhGo29Ac2MTqPHsiftu3AqNzp9qguoxBBcdi4Xeu+/im4A4IGmWav1SnQP8PTcBDYkDoIogNyqpJxZY2WmZg9Q/0QgSiHXwy31Ak7kCODGUUCOUoPxj5oEghQInSzM0CkdTGFkwMrrhORLpLGRefOZgFMwy1MIswiY1fMR4Y4aoVLFsWlSsjcUUAwwro2dny1bSsMXmY54NzhAOXWxZNlVAw6bfuIFZKCHOfwkNDCwwORrPaP53zjGsQ0DOctpDQ4WBRk0ctplqdnOOUDYHQJ6Sw0MfyoCGg71EqapmtOvWrRG0xFFLcCGLVD1I7qu5hZzxfWBn991f2iAdZIdoqEc+a1Yt1KHy2xRzWHvAf8PE9Zga8MgM3y/Y3ojhkZ6a8JXvioKZJXeRFIhOMnzRyFev/m800I40IB0HGqKIFi07G/FEeTUN0nvi2IPcb5CdueW2ItbPBOb+9kxcbbY1ls4iX/4/kcMwWpAn6Mk5zJ54fKaaVLOzuDBBeqUaLOmhwWFH91M5IN9kDi6FPQcqYYLb8AHG/pw1a4GGtA2zykZsDw2Qs5xUaGgo51DgkB0v2BGMZvGusM6lsx7p2LVXRQlapVo9VQ/Os4APqGX4Au9csnRVy3gDASSgwQ6vFPSgfaee5sCuXLYgYaIl/MyHNKBRpY8eK8gIRo2eaDNWCqivAdgW5wBXbuwJ3zuUAQ19B8+o6k5Wc7AqCLEzZ5ys89qeAJFkbhJzP2ZkVszcb1Nhpy+EyipMc7GkAPTQ0PtHz0isIwfF9HQx+wEfHTN6oDWK50afUwU0wGsaK4EAMQZN6a/L2SNDfYFgwVDvEmDg2LnnwxZhDwnEqXxBA5/ochD2lRoL0VsDjWHgmzJpVFznmH4oRhMUUI8czia6dqTZExKi9JYQpK1cPt+q4fEuZOXOdPpeIz0Yr8TtoWF+GxBmGvDpmSPZl0qehyOgoaeTd8VphsgAltZEsDP6MoEpQxjTWWiHiuXLGGMZVzL9I3BYpcRZW42BgKb8+Y2ro99zMnjzre2y4V2CDwW9ytZDk8MKDYgLoMlr1GYBcVRlBQqpZH0w/qa7d24CmkWLlhm8HKp8er8JsFxFych6RMAQCznk/QxyJvj8mBH/ZT00NOjR0xAv+0rPA5kIBMaMCyoPlJadQoNPnj5jjg3TchTG6Rzyh+IzYQVLNYeGDcOQNqjvYB9zfQU02vUfMEyMQSuMJnCAeiZSVWjuL1pWlHkHZJi7GL6XwIgtS3WLjMxJkk8s01iqgAZGHuYTYDAcJAWqxt6iBea5aYyeJiPn5I5xLHxfSTOWy9QgC1VzhPs/MnAp0QWVZHUxltETAg0sh1C4Kse7kPn/9rtvrbTJdSgDGu4H/AYYDr0MvYVNJZBwDeM4spG5B18Hp+nwhL2OKy8yqk5G/GZFVVsYaoqT/NIWKEhv1RymIVl0AWgFBw4ZxJqijoWFq3NHYZm1bq7x2t3z7nsett4G/l5VWWP6WyJMNduNqYn/BM8cZkFL5UBDUQxlMfMsyCjRzOgcy9j1JtNHsFBKNKvgfSM0vr/NG0LGPA+6hr4kchjAgTOrh8/SvA8pg8Mb03f0yqvbDKP9xRdfGZNZ5UplkgZI7jnRVaighymZQJP5RBEHQKPM3mOPQoE+aMhI6ek+q3oebEADJX2ZcrWkV18abAYSkXAgiM6jc0At6T3iOVKtR7o2jHsXL1nJaJkb1K9t0BvsD3v1X/v2WcV0jZxhKuGsqSMFYDgd60hmDgcYppowmQH3hcwBFij2MNehDmhcxWjPnj1qoh1ojH4EhYMGRJrXc2NPeM5DGdAwO61T50ds8CwsZyQQXFaYijxy+kY9W+xBZ/fzwp5s3PiC0cBzrVAASvXTkgWCcoGLh7IZuwusO15Aw16ksRvdjDznrxrWuNOYOdFfGClxJtnHudHnVAENFVFjaWtQM2hQr5bteTLu9E9x7jBvLTxUGLs5QpU7EB4QDYxW/wIDX2NtOcN9cfxJsKDLQI75z1KlHjTbRDDAOcZvMQcH1kSqzARWzLBhT6YKaA63PcFfgk2RqkoLsTvW0nnAfnDBC34FfYLs8cicuP+xRm0YPBm7UE1z3rp3b2//jn7iU+FDUcldv36jEYf0ly8CSsENxQS+RrKK/g/Xh3c4Ahr0mQrNArGTkghqqvEGnCuw5dG7AQHJN998Z71P4ydOU8XuH8awCBlMGF6bSv84EyGrwSbSswJFOEgSYx2T/g8YOEI9LVuC72A5E6lFFlKAHAY06MsMnaUks6mgucq5m0HG35H1FzqLzjv3XEv2/6cCGuau9VFvEUy3DgHBmoBygfCEfjrsTLhCg64xUgLaf2xGi2YNTdfY07wjnwehxHB2/nszzds5U7p2pF25IgVI9hKRDcNgzZ/MEYjtFYA7u6scGhzgmjWqBK3ETJMqIDhUQnMZj78JgpNtDk3mj6CYzDkA9zlVOGAamB8SUxU9QEA1aPxi0TESGdpEZUWbnOr5+wh2tGLFGmtCg+qPaNkgUsosYLRxzDj0w3S97gAlE01TuwtMiNjHaZAUVR0cKqauw/xCaZlGVogaKM8PUBahsHpK3GVN1fVbBFBW42TeecfNNkX2zrtutb6XRBdZFqbeM8cDPnaY3phajXOH4YBpZdf7H9pgKphweC8X0IR7JLh/GNPKZ2OnzydyCGkmbSu6Y+ZvwORCkOxY9T777DMLGN555z1jOcKwhwOaWPm59zyYCg33GDd+qoaHTTYKUQxXTw05rSqK3bAuMDWb6hbD1FiTX9TIOFy8/Exsz5ZVlZEZLzzwFZrZw4A1hsVhQNxcIYx+ooAGx/fdf2zNVq3DuWnXobtNpC4itq6igiJFJ6gqo4/jwRoADWXNOii7D7V0obvvCG66+XqjaOVi6NY/d+7UrIivNN+otelrIocBow7rHFz+OC1gu5lWDa04lS2gF7CtQaDQpVNbkx9XKgeECgQOO0wswPYIIKEfxmF6TU7Cc3IOcaBIqBDwLlR1yMk4TAqAgY/tSYlHCoBu41Ay9A2CAubpkPECUomRp8oK/TflfEgWYApy+ptoPXJix4A1ciBDPlJaNubPGh7Lfl+7dqMNdztB7x1hORsSDWhwdJiHBOsTMB/WnKx1hJL4F2vGhumM+R9uhpILaDi8aAJOBKVI9eyxc2hAf0B2ArSQNamoZAi0yuhaTu0Jv01AE+6R4N/CDkPH9i2j/XPuWRNh6AkYuuAIqvoMZS26dM01DMmNBBOsLd9FvyqrCo8eJbLHB2NP2N801QPBxYbze8fJ4aMXaeOmF2zA4g5YieIENOvEjEkTNQ4wmXkY5b6Vk0iQwRBhbC/VJ5JAXLnRZ+dQkhxb+PisbDaLQcMdNLj3m2++tr4t9gABIex8rDMsUiAz7HzKvKCa7dq1r6jFtxu9/Z133CZWskj17t+y5SSJXhJ0cajg0tdcHZmFMU8080N0/uCs4k8wB41KOLTGG8Tsh9MK/W63rm3VnyqShyPQnhB84UwOEhkKl72HkpsnywZzkfzCxpNIItGD/FhbHGhsAdUu5sJAcX3gyy8UQNa075HIyeg9UMmw/TYG4Db5Lq4qzr7bpR6Kl4UOWfPUokynNDJWI7bH1q3PoUpwEED3FRkSZx9JFc5tBk6SOIBQharJa9IfZvCwnjCAcU6Er1T6R+8QrGLLFfzTEwrpEmfkx6JQ3rT5RaNS/k7jAfaplyse5CzWnrjfjpeQ5fyBFRUyLPpnGe5b6O7bbDYMftGnkv+u3R8Yo9nc2ZOyQc7i2acsL5vgf7gKTaIesng9NCCoqioJDQlAlcrlIwQ6egF6G9kvVAs5E8IBDckGgpWBg0bo/MxnI0GOE+oE7BWjQUg6wKZGdZvqKWyhkVlI6bzF4fvMIQ9ocHBLl6luzW3Dh/WxhsCw80ZA07RZBxvoBHb4cPbW0NjF/AFYJ6Atdlm5sLjJREN/V0wNjq+/8aZNQQYbTtOvTX/VPchywwdeTjz/0Fanutauf07Nkz0tkIFakmnfaAqHJwES8DBwptD90fjOlaEeJeay0KdDX4PLBNBUPkLNv5AL4GjNFa8/mXg2HEEWEDaceOAUOF/uIlBjovQQQW++UaRORu97ZYUG6+CAiS6ZYtLctlZZoCcEIcGJ4mAhS88mwDCee845VsXCELPWQAoqVq5jPSE0OLpAbQfZw+btjMVm2ZPzsxkwsrlNpBt79+4NPtz9VtRB51BjzZZpgBuMcxwO7t1woOHzhzGrY/tWOsj/mFR+Th6ly1a37DGlemYCpApKY9cYp7xU6Wr2jDQDbly/Mhpkuc9yIE2QU0wAir5DqzxRE+/B5cdeGHaylwQwNiOJtdP37xQNdoWKajJUQzxwP+TpdITnbyx9ZpDYezsirFXhi3VAnhj+008/NcvMJJ4NXPUgBb7oM046tL80czJ5mqyuBdH6HJUAAg94+ZkdA4SFfVBCdN04yW+89kIWYhActeUK4KFYBmZC8It8yUKSpSsrbD0yB5bi5J7sfu6d+D7rTxMpvTSQbPAe6HKhu+4ILtVhNnjIKKPSXrFsfvTeUzVtfYAMNU4P8oORLHw1F/UnQ+hKqqfCQXi4Lw4BOrdarGPv6TAjo8r8CxiJGJLL4Un2EdYbsqKp1iOVnQj/nZ63uYLSAKdhjwFRdPhsMu8b5CjAJMW8prD+Ivs1T68354nAj+9xALGHcGqhYW3csK6xNSJ7pnG3wzYpo+gqtzl5zvB+gkFt6pRRNm+Le/N7zMwBs82B2FakGfSTYfdyYk/4jYsuKWBZ+0laPzeHhgQVkK2//HWr9agB/wzvY2dvsFk45G4gJ/d7a/vbZg+BnhEY4TBwsQ/QfSoHLVo0sEGFyezxwdgT5PPMMxssSw271dlnn2lVcxIJJUoUszOid59BGoRc2+ZMuHdDX1n/1mLqpHKxSjJmjWkAZyYTDfcM62R4bZgWP6f6TC9c/QattO9vMQrfWBu5T5lxRhK89NJWDQXOpyTg2eYAsTf2K9jYK7w+iSfmb7hJ5rwf5+mTmlPDUFv2NGcrF7b8DyedGORXc/iAvhkRFjRd9LCukV2co7lisDXxmeN1ZpJV5hy6V8FBJVES03PmqspHmj3hPdjTzDdZvGRl8PY7/7AzzNARsjWwT50r/QYWTADrznv6jfoPGCkdf0n6f46Cge+DW2++yfo1WQ+y7gQ1Cxc/qYTKNrNDkLpAbME6EFTiW4wY1t8+T+BUXqyhzPYaPWqAyS7sk4btAaMAcst6yPtSNSOBBWvjdp35p5x8kukpvgrJl4svvsBmzhUTUyjDV3Ggw1cq/cOmsbcfU8J1iWT6u98dF51BBdyS5CsDXhm/sShm/8ezJ+63nf9Cz2r4vEV3oYJesnSFRkxs1n77yfqh3dmGjYPwCTpkgrhU9ikdO4u/N2bMFDt/N254KhusjgADW4+/Sr8Sz8J5wXvPVaXmM+mco97m+cuUKWF+JSxxsf7521ovWOMI6ICKYp9gtoXa2lgGda7QC05ASoDI2Icj7TrkAQ0HArStZBOBPMQ2tOIco6hgbaG8jUdJmldCYkFxiN4VzS8bPtL6k7UhFEYQKhhUQHgXonz6N7Yq28hn4STHcbrwAvDBp6Z0hNm47Tt2VxbpZYMdlSheVL0mkY1LQPHBRx8FAweONMPEcFI3nRfc7EuaYA4zCVlW56xSZiUoZEATGTqqEygg73aOaCuvUhCBoxUvWEP2OGaRz/9sfP1ka+OxKMWuARWeD0XH+rGcpHc0TZ5ghuz4ZZqojYMIZSZECVw40LMV7bO2TDimPM7FIQMGFYeGScmxvRzImb//oCF/DXUghw9QNum/BMkCgsHgta9U2uXvMKLgCDBc9CJlsdxBkEh+7r1wuHcro4Lz5eYO5UTvOHxXrnzGZrqcoaAWOF68IVkMQgTrywFymbKm9woe4pyM8O8hz48kW4ZYYlhwXqGUvVyZTwzSTFEPIy/gRY7LHnmtXr1WAfIJRrwR63DgwIC1/1YHv10hfedQoWLI/RyshndCvsgZPYs4d8cqi32FfYbsIWuM0wB8DMOO3lYV/Xk4eObZObzJBJHp/pcqSPz0OXJQ6OkC7kgFwWGlbS8kuV9YTuwnZmC9rYNsl+YL4IgyGPESOU4EGhhdAi7gKU4eBNDAMvLrsAGeEwv3I5DDcbhaDhH7yl2wXzGUjjUkAwo7DPsQY4/e4Szwu2SL+a1U65ET/eKz9L2R9bP9qor3OZI9lWL2N/hwehgsMAyRSHDIf659TjADI89OTRAna36S5EQgTD8XTEtuzfncqlVrDRpSrmzxtAYFx3uP5cvXSE6fWKDE+roLOOC69ZsM8gTD3u1ysrlyYk/4PNVydAx9pWrF5QKCnYId4QhiD8MX9uZp2ZO9cvpr1aySZV4L9nL//s/smelFYO0iQT725Cz7LGvret3yyp5wTlIR4h2oRBPMEBxwxuCMEKzccuuNWXpQ0dcd775nQcJxcog/EC5+y5ZXzP5crr5MgrFLL70oagtzq884vzAosb8cuUz4XqsFUQXiDJsa1MyOBh50xteq2ixcuMygc/S00bTu9iPrRrDDuuCQElDyN+z3ebJ1zGBxRBtRPRJka5cGCLIf6ANgrTh3kBXrjm0JO8RHoj3hmVlv4FD7RHZDUI0e4ghfrX2NLYN1z0HOeHcSw+gHARDoF1AdsIeRHHMXQSEICew9CSZsJMlT1gVbhT47RAM2HoQJRBjMLollfMQecKZA+Ux2353dObVdfB5bBFkOCcp9qvy/o3fA78CuFhStPE4/QSvvG2+4dzL9c8/DuYkeMVwS+8y6M1+QJB3vDTsteyt2/8ezJ+6ezn85WwEmeyw85wlnnvMMWUM6QL8QZymJVJLb2CY3MDOVfUpHppzDL764xQZLFxdSKPaMp5K7XUgB0AO2RzOjU/YUJBz8jVmBJ6kSeLWq0SQxSeIAgYz1z/F90bE3Nb8Le81733LzjfZu2Bb2LHueBHxJJVzCcknnXQ7HZw55QMNDs2nZqDhg8Zw8/o4i/icEggOGo5bowuiEsa3uc0TbXG5OTboZfYKPjirL47wtWTzHsjDhC0e9qSYhk90tV7akBvt1MaVlY1ItwsiFe1z4PAYrPC+HQIXnJqOezlRX93mibodfTlfZWDfWj99jbSN0gJFG8fCFvAguwoEVBg7cr8uqx/6muzcpo2SDP51+ufXAGMb+fiL5ud/kOTA4YTmmKwM+xzs4XYp9z9j7hNcn7PjH+72wfMP7hyAQEVONcsGt+yzvHy+ADd8r9rd4fve9eBSi/B7f52BjaGTsGrvDmfuio4n2Q3i/JdPPdO/n3sP1bkXeAZlEqKXRjVh5uJ4/HK548nfPyPMlWh90l3XkYr3dQR9+71TrkRP9Cn826/4+wfQglX7zffQbPSeSpVcPCBNX7DMTdDB9/OQQoUVOn5XfweazFg7D7+6RTL7p2pN4+s/9+V1sYqxjxt+cveG54v09/Hxk+509MXuLTQsJIZW8D9aeOH12OhipcEV6VcM9qDySk2fYPmBv+U669iwdfU70+5Fn+Fb9G72DpUtXqV9tulU/w3rFfl6vQLaTaGVZYzfINVavnNz4d84jkj3JzlZ3/qHTxx8f2YfxPn/k25NfDVHBOkCmg42N3ZthWcXTj1hZOn1H3lzoR5jYwn3e2bF4/lf0DNaHD6V/RhDD+7IuFoxm9vAlW+tk+pf93SP3p/LAaAd3piWyD4nsibsv+ynZ+Rg+//kOZ2A8PySZfUrHxjp9T3Q2pTq7bH8pKD72+GPN/iPvVP4598QeRs65CN3zb/b0a4PYxfM30nmfvP5MngQ0ef3QR9P9KQcyAwBnasG8KQaHCV/gMpu16GTD6MAAU7lIN1g6muTgn9VLwEvAS8BL4P+GBKiwNdDwzs0vbLGeAeCo4UAWR2qG+j3HCG5LfyhDVv259n9j7f1beAkcqRLwAU0erwwlvEZN2ggmowZ8NWcVKHBlhB1CWYq9mfCpzZpTQyN2n0e6RvGOefxY/vZeAl4CXgJeAl4CuZIA1T9ITMaLQfF6TXanf+WPgh//XlUTII/vv79LfR9/swrE8KF9s/Qv5eoH/Ze8BLwEvARSSMAHNHmsItYEqX6Y+QsWG9sIzBMOa0yWC/wo8wRKadIyDEPx4D95/Ij+9l4CXgJeAl4CXgJpSwDIDf0WCzXzYpV6LoDoRCBOEagc/aG33X5TULZMSfX/FMx1b1baD+Q/6CXgJfBfLwEf0BwGFSCoAVJGky8NgWAUgSXSTH6OGtppanSNrofhcfxPeAl4CXgJeAl4CRyUBBz5B8Q5Bw4cMAKdY0TPTh8MpDqw0kFokmzO2UE9gP+yl4CXgJdASAI+oDnM6uCGj/GzNOTHY/c4zI/kf85LwEvAS8BLwEsg1xIAWkaijguUQSryk1z/kP+il4CXgJdAAgn4gMarhpeAl4CXgJeAl4CXgJeAl4CXgJfAUSsBH9ActUvnH9xLwEvAS8BLwEvAS8BLwEvAS8BLwAc0Xge8BLwEvAS8BLwEvAS8BLwEvAS8BI5aCfiA5qhdOv/gXgJeAl4CXgJeAl4CXgJeAl4CXgI+oPE64CXgJeAl4CXgJeAl4CXgJeAl4CVw1ErABzRH7dL5B/cS8BLwEvAS8BLwEvAS8BLwEvAS8AGN1wEvAS8BLwEvAS8BLwEvAS8BLwEvgaNWAj6gOWqXzj+4l4CXgJeAl4CXgJeAl4CXgJeAl4APaLwOeAl4CXgJeAl4CXgJeAl4CXgJeAkctRLwAc1Ru3T+wb0EvAS8BLwEvAS8BLwEvAS8BLwEfEDjdcBLwEvAS8BLwEvAS8BLwEvAS8BL4KiVgA9ojtql8w/uJeAl4CXgJeAl4CXgJeAl4CXgJeADGq8DXgJeAl4CXgJeAl4CXgJeAl4CXgJHrQT+PwUFwc1k0pAEAAAAAElFTkSuQmCC;" vertex="1" parent="1">
          <mxGeometry x="20" y="100" width="820" height="321" as="geometry" />
        </mxCell>
        <mxCell id="SuySmRBEggdLQJVwu3iZ-2" value="&lt;b&gt;&lt;font style=&quot;font-size: 20px;&quot;&gt;Folie 128&lt;/font&gt;&lt;/b&gt;" style="text;html=1;strokeColor=none;fillColor=none;align=center;verticalAlign=middle;whiteSpace=wrap;rounded=0;" vertex="1" parent="1">
          <mxGeometry y="10" width="820" height="30" as="geometry" />
        </mxCell>
      </root>
    </mxGraphModel>
  </diagram>
</mxfile>
